<?xml version="1.0" encoding="UTF-8" standalone="no"?>
<!-- Created with Inkscape (http://www.inkscape.org/) -->

<svg
   xmlns:dc="http://purl.org/dc/elements/1.1/"
   xmlns:cc="http://creativecommons.org/ns#"
   xmlns:rdf="http://www.w3.org/1999/02/22-rdf-syntax-ns#"
   xmlns:svg="http://www.w3.org/2000/svg"
   xmlns="http://www.w3.org/2000/svg"
   xmlns:sodipodi="http://sodipodi.sourceforge.net/DTD/sodipodi-0.dtd"
   xmlns:inkscape="http://www.inkscape.org/namespaces/inkscape"
   id="svg149229"
   version="1.1"
   inkscape:version="0.91 r13725"
   xml:space="preserve"
   width="440"
   height="72"
   viewBox="0 0 440 71.999997"
   sodipodi:docname="logo-afup.svg"><metadata
     id="metadata149235"><rdf:RDF><cc:Work
         rdf:about=""><dc:format>image/svg+xml</dc:format><dc:type
           rdf:resource="http://purl.org/dc/dcmitype/StillImage" /><dc:title></dc:title></cc:Work></rdf:RDF></metadata><defs
     id="defs149233" /><sodipodi:namedview
     pagecolor="#ffffff"
     bordercolor="#ff00ff"
     borderopacity="1"
     objecttolerance="10"
     gridtolerance="10"
     guidetolerance="10"
     inkscape:pageopacity="0"
     inkscape:pageshadow="2"
     inkscape:window-width="1916"
     inkscape:window-height="1035"
     id="namedview149231"
     showgrid="false"
     inkscape:showpageshadow="false"
     borderlayer="true"
     fit-margin-top="0"
     fit-margin-left="0"
     fit-margin-right="0"
     fit-margin-bottom="0"
     inkscape:zoom="2.4545389"
     inkscape:cx="93.040659"
     inkscape:cy="-7.201184"
     inkscape:window-x="4"
     inkscape:window-y="0"
     inkscape:window-maximized="1"
     inkscape:current-layer="svg149229" /><g
     style="fill:#ffffff"
     transform="matrix(1.25,0,0,-1.25,149.06644,44.277685)"
     id="g149435"><path
       inkscape:connector-curvature="0"
       id="path149437"
       style="fill:#ffffff;fill-opacity:1;fill-rule:nonzero;stroke:none"
       d="m 0,0 0,0 -10.702,-6.178 c 0.496,-0.858 1.212,-1.587 2.1,-2.1 L 0,-13.244 0,0 Z" /></g><g
     style="fill:#ffffff"
     transform="matrix(1.25,0,0,-1.25,134.72906,35.999935)"
     id="g149439"><path
       inkscape:connector-curvature="0"
       id="path149441"
       style="fill:#ffffff;fill-opacity:1;fill-rule:nonzero;stroke:none"
       d="m 0,0 0,-9.933 c 0,-1.025 0.273,-2.01 0.768,-2.868 L 11.47,-6.622 0,0 Z" /></g><g
     style="fill:#ffffff"
     transform="matrix(1.25,0,0,-1.25,149.06644,44.277685)"
     id="g149443"><path
       inkscape:connector-curvature="0"
       id="path149445"
       style="fill:#ffffff;fill-opacity:1;fill-rule:nonzero;stroke:none"
       d="M 0,0 0,13.244 -11.47,6.622 0,0 Z" /></g><g
     style="fill:#ffffff"
     transform="matrix(1.25,0,0,-1.25,149.06644,60.832935)"
     id="g149447"><path
       inkscape:connector-curvature="0"
       id="path149449"
       style="fill:#ffffff;fill-opacity:1;fill-rule:nonzero;stroke:none"
       d="M 0,0 0,0 8.602,-4.967 C 9.49,-5.479 10.48,-5.735 11.47,-5.735 l 0,12.357 L 0,0 Z" /></g><g
     style="fill:#ffffff"
     transform="matrix(1.25,0,0,-1.25,135.68956,19.999185)"
     id="g149451"><path
       inkscape:connector-curvature="0"
       id="path149453"
       style="fill:#ffffff;fill-opacity:1;fill-rule:nonzero;stroke:none"
       d="m 0,0 c -0.495,-0.857 -0.768,-1.843 -0.768,-2.867 l 0,-9.934 11.47,6.622 L 0,0 Z" /></g><g
     style="fill:#ffffff"
     transform="matrix(1.25,0,0,-1.25,177.74094,60.832935)"
     id="g149455"><path
       inkscape:connector-curvature="0"
       id="path149457"
       style="fill:#ffffff;fill-opacity:1;fill-rule:nonzero;stroke:none"
       d="M 0,0 0,13.244 -11.47,6.622 0,0 Z" /></g><g
     style="fill:#ffffff"
     transform="matrix(1.25,0,0,-1.25,191.11781,52.000685)"
     id="g149459"><path
       inkscape:connector-curvature="0"
       id="path149461"
       style="fill:#ffffff;fill-opacity:1;fill-rule:nonzero;stroke:none"
       d="m 0,0 c 0.495,0.857 0.768,1.843 0.768,2.867 l 0,9.934 L -10.701,6.178 0,0 Z" /></g><g
     style="fill:#ffffff"
     transform="matrix(1.25,0,0,-1.25,177.74094,44.277685)"
     id="g149463"><path
       inkscape:connector-curvature="0"
       id="path149465"
       style="fill:#ffffff;fill-opacity:1;fill-rule:nonzero;stroke:none"
       d="m 0,0 0,-13.244 8.602,4.966 c 0.888,0.513 1.604,1.242 2.099,2.1 L 0,0 Z" /></g><g
     style="fill:#ffffff"
     transform="matrix(1.25,0,0,-1.25,177.74094,27.72231)"
     id="g149467"><path
       inkscape:connector-curvature="0"
       id="path149469"
       style="fill:#ffffff;fill-opacity:1;fill-rule:nonzero;stroke:none"
       d="M 0,0 0,0 0,-13.244 11.47,-6.622 0,0 Z" /></g><g
     style="fill:#ffffff"
     transform="matrix(1.25,0,0,-1.25,163.40369,52.555185)"
     id="g149471"><path
       inkscape:connector-curvature="0"
       id="path149473"
       style="fill:#ffffff;fill-opacity:1;fill-rule:nonzero;stroke:none"
       d="m 0,0 0,-12.357 c 0.99,0 1.98,0.256 2.867,0.768 L 11.47,-6.622 0,0 Z" /></g><g
     style="fill:#ffffff"
     transform="matrix(1.25,0,0,-1.25,163.40369,19.444685)"
     id="g149475"><path
       inkscape:connector-curvature="0"
       id="path149477"
       style="fill:#ffffff;fill-opacity:1;fill-rule:nonzero;stroke:none"
       d="m 0,0 -11.47,6.622 0,-13.244 L 0,0 Z" /></g><g
     style="fill:#ffffff"
     transform="matrix(1.25,0,0,-1.25,163.40369,19.444685)"
     id="g149479"><path
       inkscape:connector-curvature="0"
       id="path149481"
       style="fill:#ffffff;fill-opacity:1;fill-rule:nonzero;stroke:none"
       d="m 0,0 11.47,-6.622 0,13.244 L 0,0 Z" /></g><g
     style="fill:#ffffff"
     transform="matrix(1.25,0,0,-1.25,135.68956,19.999185)"
     id="g149483"><path
       inkscape:connector-curvature="0"
       id="path149485"
       style="fill:#ffffff;fill-opacity:1;fill-rule:nonzero;stroke:none"
       d="m 0,0 10.702,-6.179 0,13.245 L 2.099,2.099 C 1.212,1.587 0.495,0.857 0,0" /></g><g
     style="fill:#ffffff"
     transform="matrix(1.25,0,0,-1.25,177.74094,27.72231)"
     id="g149487"><path
       inkscape:connector-curvature="0"
       id="path149489"
       style="fill:#ffffff;fill-opacity:1;fill-rule:nonzero;stroke:none"
       d="m 0,0 11.47,-6.622 0,9.933 c 0,1.024 -0.273,2.01 -0.769,2.867 L 0,0 Z" /></g><g
     style="fill:#ffffff"
     transform="matrix(1.25,0,0,-1.25,177.74094,27.72231)"
     id="g149491"><path
       inkscape:connector-curvature="0"
       id="path149493"
       style="fill:#ffffff;fill-opacity:1;fill-rule:nonzero;stroke:none"
       d="M 0,0 10.701,6.178 C 10.206,7.036 9.49,7.765 8.602,8.278 L 0,13.244 0,0 Z" /></g><g
     style="fill:#ffffff"
     transform="matrix(1.25,0,0,-1.25,149.06644,44.277685)"
     id="g149495"><path
       inkscape:connector-curvature="0"
       id="path149497"
       style="fill:#ffffff;fill-opacity:1;fill-rule:nonzero;stroke:none"
       d="m 0,0 11.47,-6.622 0,9.933 c 0,1.025 -0.273,2.01 -0.769,2.868 L 0,0 Z" /></g><g
     style="fill:#ffffff"
     transform="matrix(1.25,0,0,-1.25,149.06644,44.277685)"
     id="g149499"><path
       inkscape:connector-curvature="0"
       id="path149501"
       style="fill:#ffffff;fill-opacity:1;fill-rule:nonzero;stroke:none"
       d="M 0,0 10.701,6.179 C 10.206,7.036 9.49,7.765 8.602,8.278 L 0,13.244 0,0 Z" /></g><g
     style="fill:#ffffff"
     transform="matrix(1.25,0,0,-1.25,177.74094,11.16706)"
     id="g149503"><path
       inkscape:connector-curvature="0"
       id="path149505"
       style="fill:#ffffff;fill-opacity:1;fill-rule:nonzero;stroke:none"
       d="M 0,0 -8.603,4.967 C -9.49,5.479 -10.48,5.735 -11.47,5.735 l 0,-12.357 L 0,0 Z" /></g><g
     style="fill:#ffffff"
     transform="matrix(1.25,0,0,-1.25,163.40369,19.444685)"
     id="g149507"><path
       inkscape:connector-curvature="0"
       id="path149509"
       style="fill:#ffffff;fill-opacity:1;fill-rule:nonzero;stroke:none"
       d="m 0,0 0,12.357 c -0.99,0 -1.98,-0.256 -2.867,-0.768 L -11.47,6.622 0,0 Z" /></g><g
     style="fill:#ffffff"
     transform="matrix(1.25,0,0,-1.25,149.06644,60.832935)"
     id="g149511"><path
       inkscape:connector-curvature="0"
       id="path149513"
       style="fill:#ffffff;fill-opacity:1;fill-rule:nonzero;stroke:none"
       d="M 0,0 11.47,6.622 0,13.244 0,0 Z" /></g><text
     sodipodi:linespacing="116%"
     id="text150518"
     y="36.024628"
     x="206.36153"
     style="font-style:normal;font-weight:normal;font-size:15px;line-height:115.99999666%;font-family:sans-serif;letter-spacing:0px;word-spacing:0px;fill:#ffffff;fill-opacity:1;stroke:none;stroke-width:1px;stroke-linecap:butt;stroke-linejoin:miter;stroke-opacity:1;"
     xml:space="preserve"><tspan
       style="font-style:normal;font-variant:normal;font-weight:normal;font-stretch:normal;font-size:14.25px;line-height:115.99999666%;font-family:Belgrano;-inkscape-font-specification:Belgrano;fill:#ffffff;fill-opacity:1;"
       id="tspan150526"
       y="36.024628"
       x="206.36153"
       sodipodi:role="line">Association</tspan><tspan
       style="font-style:normal;font-variant:normal;font-weight:normal;font-stretch:normal;font-size:14.25px;line-height:115.99999666%;font-family:Belgrano;-inkscape-font-specification:Belgrano;fill:#ffffff;fill-opacity:1;"
       id="tspan150530"
       y="49.248627"
       x="206.36153"
       sodipodi:role="line">française des utilisateurs de PHP</tspan></text>
<text
     sodipodi:linespacing="125%"
     id="text150789"
     y="52.520142"
     x="1.5399717"
     style="font-style:normal;font-variant:normal;font-weight:normal;font-stretch:normal;font-size:55.375px;line-height:125%;font-family:Belgrano;-inkscape-font-specification:Belgrano;letter-spacing:0px;word-spacing:0px;fill:#ffffff;fill-opacity:1;stroke:none;stroke-width:1px;stroke-linecap:butt;stroke-linejoin:miter;stroke-opacity:1;"
     xml:space="preserve"><tspan
       y="52.520142"
       x="1.5399717"
       id="tspan150791"
       sodipodi:role="line">afup</tspan></text>
</svg>