<svg height="64" viewBox="0 0 58 64" width="58" xmlns="http://www.w3.org/2000/svg">
    <g fill="#fff">
        <path d="m14.3375 40.279375-13.3775 7.7225c.62 1.0725 1.515 1.98375 2.625 2.625l10.7525 6.2075z"/>
        <path d="m.00012 32.001625v12.41625c0 1.28125.34125 2.5125.96 3.585l13.3775-7.72375z"/>
        <path d="m14.3375 40.279375v-16.555l-14.3375 8.2775z"/>
        <path d="m14.3375 56.834625 10.7525 6.20875c1.11.64 2.3475.96 3.585.96v-15.44625z"/>
        <path d="m.96062 16.000875c-.61875 1.07125-.96 2.30375-.96 3.58375v12.4175l14.3375-8.2775z"/>
        <path d="m43.012 56.834625v-16.555l-14.3375 8.2775z"/>
        <path d="m56.38887 48.002375c.61875-1.07125.96-2.30375.96-3.58375v-12.4175l-14.33625 8.27875z"/>
        <path d="m43.012 40.279375v16.555l10.7525-6.2075c1.11-.64125 2.005-1.5525 2.62375-2.625z"/>
        <path d="m43.012 23.724v16.555l14.3375-8.2775z"/>
        <path d="m28.67475 48.556875v15.44625c1.2375 0 2.475-.32 3.58375-.96l10.75375-6.20875z"/>
        <path d="m28.67475 15.446375-14.3375-8.2775v16.555z"/>
        <path d="m28.67475 15.446375 14.3375 8.2775v-16.555z"/>
        <path d="m.96062 16.000875 13.3775 7.72375v-16.55625l-10.75375 6.20875c-1.10875.64-2.005 1.5525-2.62375 2.62375"/>
        <path d="m43.012 23.724 14.3375 8.2775v-12.41625c0-1.28-.34125-2.5125-.96125-3.58375z"/>
        <path d="m43.012 23.724 13.37625-7.7225c-.61875-1.0725-1.51375-1.98375-2.62375-2.625l-10.7525-6.2075z"/>
        <path d="m14.3375 40.279375 14.3375 8.2775v-12.41625c0-1.28125-.34125-2.5125-.96125-3.585z"/>
        <path d="m14.3375 40.279375 13.37625-7.72375c-.61875-1.07125-1.51375-1.9825-2.62375-2.62375l-10.7525-6.2075z"/>
        <path d="m43.012 7.16875-10.75375-6.20875c-1.10875-.64-2.34625-.96-3.58375-.96v15.44625z"/>
        <path d="m28.67475 15.446375v-15.44625c-1.2375 0-2.475.32-3.58375.96l-10.75375 6.20875z"/>
        <path d="m14.3375 56.834625 14.3375-8.2775-14.3375-8.2775z"/>
    </g>
</svg>