<?xml version="1.0" encoding="utf-8"?>
<!-- Generator: Adobe Illustrator 23.0.1, SVG Export Plug-In . SVG Version: 6.00 Build 0)  -->
<svg version="1.1"
	 id="svg149229" xmlns:cc="http://creativecommons.org/ns#" xmlns:dc="http://purl.org/dc/elements/1.1/" xmlns:rdf="http://www.w3.org/1999/02/22-rdf-syntax-ns#"
	 xmlns="http://www.w3.org/2000/svg" xmlns:xlink="http://www.w3.org/1999/xlink" x="0px" y="0px" viewBox="0 0 197 75.9"
	 style="enable-background:new 0 0 197 75.9;" xml:space="preserve">
<style type="text/css">
	.st0{fill:#FFFFFF;}
</style>
<title  id="title4275">Association Française des Utilisateurs de PHP</title>
<g id="g149435" transform="matrix(1.25,0,0,-1.25,149.06644,44.277685)">
	<path id="path149437" class="st0" d="M0-3.2L0-3.2l-10.7-6.2c0.5-0.9,1.2-1.6,2.1-2.1l8.6-5V-3.2z"/>
</g>
<g id="g149439" transform="matrix(1.25,0,0,-1.25,134.72906,35.999935)">
	<path id="path149441" class="st0" d="M0-3.2v-9.9c0-1,0.3-2,0.8-2.9l10.7,6.2L0-3.2z"/>
</g>
<g id="g149443" transform="matrix(1.25,0,0,-1.25,149.06644,44.277685)">
	<path id="path149445" class="st0" d="M0-3.2v13.2l-11.5-6.6L0-3.2z"/>
</g>
<g id="g149447" transform="matrix(1.25,0,0,-1.25,149.06644,60.832935)">
	<path id="path149449" class="st0" d="M0-3.2L0-3.2l8.6-5c0.9-0.5,1.9-0.8,2.9-0.8V3.5L0-3.2z"/>
</g>
<g id="g149451" transform="matrix(1.25,0,0,-1.25,135.68956,19.999185)">
	<path id="path149453" class="st0" d="M0-3.2C-0.5-4-0.8-5-0.8-6V-16l11.5,6.6L0-3.2z"/>
</g>
<g id="g149455" transform="matrix(1.25,0,0,-1.25,177.74094,60.832935)">
	<path id="path149457" class="st0" d="M0-3.2v13.2l-11.5-6.6L0-3.2z"/>
</g>
<g id="g149459" transform="matrix(1.25,0,0,-1.25,191.11781,52.000685)">
	<path id="path149461" class="st0" d="M0-3.2c0.5,0.9,0.8,1.8,0.8,2.9v9.9L-10.7,3L0-3.2z"/>
</g>
<g id="g149463" transform="matrix(1.25,0,0,-1.25,177.74094,44.277685)">
	<path id="path149465" class="st0" d="M0-3.2v-13.2l8.6,5c0.9,0.5,1.6,1.2,2.1,2.1L0-3.2z"/>
</g>
<g id="g149467" transform="matrix(1.25,0,0,-1.25,177.74094,27.72231)">
	<path id="path149469" class="st0" d="M0-3.2L0-3.2v-13.2l11.5,6.6L0-3.2z"/>
</g>
<g id="g149471" transform="matrix(1.25,0,0,-1.25,163.40369,52.555185)">
	<path id="path149473" class="st0" d="M0-3.2v-12.4c1,0,2,0.3,2.9,0.8l8.6,5L0-3.2z"/>
</g>
<g id="g149475" transform="matrix(1.25,0,0,-1.25,163.40369,19.444685)">
	<path id="path149477" class="st0" d="M0-3.2l-11.5,6.6V-9.8L0-3.2z"/>
</g>
<g id="g149479" transform="matrix(1.25,0,0,-1.25,163.40369,19.444685)">
	<path id="path149481" class="st0" d="M0-3.2l11.5-6.6V3.5L0-3.2z"/>
</g>
<g id="g149483" transform="matrix(1.25,0,0,-1.25,135.68956,19.999185)">
	<path id="path149485" class="st0" d="M0-3.2l10.7-6.2V3.9l-8.6-5C1.2-1.6,0.5-2.3,0-3.2"/>
</g>
<g id="g149487" transform="matrix(1.25,0,0,-1.25,177.74094,27.72231)">
	<path id="path149489" class="st0" d="M0-3.2l11.5-6.6v9.9c0,1-0.3,2-0.8,2.9L0-3.2z"/>
</g>
<g id="g149491" transform="matrix(1.25,0,0,-1.25,177.74094,27.72231)">
	<path id="path149493" class="st0" d="M0-3.2L10.7,3c-0.5,0.9-1.2,1.6-2.1,2.1l-8.6,5V-3.2z"/>
</g>
<g id="g149495" transform="matrix(1.25,0,0,-1.25,149.06644,44.277685)">
	<path id="path149497" class="st0" d="M0-3.2l11.5-6.6v9.9c0,1-0.3,2-0.8,2.9L0-3.2z"/>
</g>
<g id="g149499" transform="matrix(1.25,0,0,-1.25,149.06644,44.277685)">
	<path id="path149501" class="st0" d="M0-3.2L10.7,3c-0.5,0.9-1.2,1.6-2.1,2.1l-8.6,5V-3.2z"/>
</g>
<g id="g149503" transform="matrix(1.25,0,0,-1.25,177.74094,11.16706)">
	<path id="path149505" class="st0" d="M0-3.2l-8.6,5c-0.9,0.5-1.9,0.8-2.9,0.8V-9.8L0-3.2z"/>
</g>
<g id="g149507" transform="matrix(1.25,0,0,-1.25,163.40369,19.444685)">
	<path id="path149509" class="st0" d="M0-3.2V9.2c-1,0-2-0.3-2.9-0.8l-8.6-5L0-3.2z"/>
</g>
<g id="g149511" transform="matrix(1.25,0,0,-1.25,149.06644,60.832935)">
	<path id="path149513" class="st0" d="M0-3.2l11.5,6.6L0,10.1V-3.2z"/>
</g>
<g id="text150789">
	<path id="path4186" class="st0" d="M31.6,52.7V56c-1.4,0.7-3,1.1-4.8,1.1c-1.7,0-3-0.3-3.8-1c-0.7-0.7-1.2-1.6-1.3-2.9
		c-2,2.6-4.7,3.9-8,3.9c-3.3,0-5.8-0.7-7.5-2c-1.7-1.3-2.5-3.2-2.5-5.6c0-4.6,3.2-7.3,9.6-8l8.4-0.9V39c0-2.1-0.4-3.8-1.3-4.9
		c-0.9-1.1-2.3-1.7-4.2-1.7c-3.5,0-6.4,0.4-8.6,1.2l-1.1,0.4l-1-3.5c1-0.6,2.6-1.1,4.7-1.6c2.1-0.5,4.1-0.8,5.9-0.8
		c4,0,6.8,0.8,8.4,2.4c1.7,1.6,2.5,3.7,2.5,6.6v15.6C26.9,52.7,31.6,52.7,31.6,52.7z M13.6,45.1c-1.4,0.2-2.5,0.6-3.4,1.3
		C9.4,47.1,9,48,9,49.1c0,1.1,0.4,2,1.3,2.7c0.9,0.6,2.2,0.9,3.8,0.9c3.1,0,5.6-0.8,7.5-2.5v-6C21.7,44.2,13.6,45.1,13.6,45.1z"/>
	<path id="path4188" class="st0" d="M49.6,56.5H34.9v-2.4l4.7-1.8v-19h-4.3V30l4.3-1.8v-3.3c0-3.7,0.9-6.4,2.8-8.3
		c1.9-1.9,4.5-2.9,7.9-2.9c1.3,0,2.5,0.2,3.7,0.6c1.1,0.4,1.9,0.8,2.4,1.2l0.7,0.6l-1.5,2.9c-1-0.6-2.6-0.9-4.7-0.9
		c-2,0-3.5,0.6-4.5,1.8c-1,1.2-1.4,3.4-1.4,6.5v2.4h8.9v4.5h-8.9v19l4.7,1.8C49.6,54.1,49.6,56.5,49.6,56.5z"/>
	<path id="path4190" class="st0" d="M88.6,52.7V56c-1.4,0.7-3.1,1.1-4.9,1.1c-1.8,0-3.1-0.4-3.8-1.1c-0.7-0.8-1.1-1.9-1.2-3.4
		c-0.5,0.6-1,1.1-1.7,1.7c-0.6,0.6-1.7,1.2-3.2,1.8c-1.4,0.7-3,1-4.5,1c-2.9,0-5-0.8-6.5-2.4c-1.4-1.6-2.2-3.8-2.2-6.6V32.5h-4.7
		v-3.3c1.4-0.7,3.1-1.1,5-1.1c1.9,0,3.2,0.5,3.9,1.4c0.7,0.9,1,2.3,1,4.1v12.6c0,2.2,0.4,3.8,1.1,4.9c0.7,1.1,2,1.6,3.9,1.6
		s3.5-0.4,4.8-1.1c1.3-0.7,2.3-1.5,3-2.3V32.5h-4.7v-3.3c1.4-0.7,3.1-1.1,5-1.1c1.9,0,3.2,0.5,3.9,1.4c0.7,0.9,1,2.3,1,4.1v19.1
		C84,52.7,88.6,52.7,88.6,52.7z"/>
	<path id="path4192" class="st0" d="M106.3,71.5H91.8v-2.4l4.7-1.8v-35h-4.7v-3c1.4-0.7,3-1.1,4.7-1.1c1.7,0,3,0.3,3.7,0.9
		s1.2,1.6,1.3,2.8c1.8-2.5,4.5-3.8,8.1-3.8c2.9,0,5.6,1,8.1,3c1.3,1,2.3,2.5,3,4.4c0.8,1.9,1.2,4.1,1.2,6.6c0,2.5-0.4,4.8-1.3,6.8
		c-0.8,2-2,3.5-3.4,4.7c-2.9,2.3-6.3,3.5-10.2,3.5c-1.6,0-3.3-0.3-5.3-0.8v11l4.7,1.8C106.3,69.1,106.3,71.5,106.3,71.5z M107,52.7
		c3,0,5.3-0.9,7-2.7c1.7-1.8,2.5-4.2,2.5-7.4c0-3.2-0.8-5.6-2.4-7.4c-1.6-1.8-3.4-2.7-5.2-2.7c-3.2,0-5.6,1-7.2,3v16.2
		C103.8,52.3,105.5,52.7,107,52.7z"/>
</g>
</svg>
