<?xml version="1.0" encoding="utf-8"?>

<!DOCTYPE svg PUBLIC "-//W3C//DTD SVG 1.1//EN"
                     "http://www.w3.org/Graphics/SVG/1.1/DTD/svg11.dtd"> 


<svg xmlns="http://www.w3.org/2000/svg" version="1.1" viewBox="0 0 400 400"
     style="background:#fbf4f8;">

<title>Hoa Framework</title>
<desc>Hoa Logo</desc>

<g transform="translate(-10,40)" fill="none">

	<!-- Flower -->
	<g stroke="#f7b5d9" stroke-width="30">

		<path id="flower" d="
			M 145,160
			a  77, 77 0 1,1  77,-77
			a  77, 77 0 0,0  77, 77
			a  77, 77 0 1,1 -77, 77
			a  77, 77 0 0,0 -77,-77

			a  77, 77 0 1,1  77,-77
			a  77, 77 0 0,0  77, 77
			a  77, 77 0 1,1 -77, 77
			a  77, 77 0 1,1 -77,-77
			"                    
		/>

	</g>
	<!-- /Flower -->

	<!-- Hoa -->
	<g stroke="#933" stroke-width="18" stroke-linecap="round">

		<path id="h" d="
			M  50,60
			l   0,90
			c   0,70 0,85 -15,100

			M 115,90
			l   0,80
			c   0,10 0,35  45, 35
			l  65, 0
			"
		/>

		<path id="h_bar" d="
			M  30,150
			l 110,  0 
			"
		stroke-width="15" />

		<path id="o" d="
			M 180,175
			a  45, 45 0 1 1 40,30
			"
		/>

		<path id="a" d="
			M 380,155
			c   0,  0 -50,-10 -65, 10
			c -10, 10 -10, 40  20, 40
			c  20,  0  25, -5  25, -5

			M 318,120
			c   0,  0  15,-10  35,-10
			c   0,  0  30,  0  30, 30
			c   0,  0  -5, 60  20, 65
			"
		/>

	</g>
	<!-- /Hoa -->

</g>

</svg>
