<svg xmlns="http://www.w3.org/2000/svg" version="1.1" xmlns:xlink="http://www.w3.org/1999/xlink" width="114.24475" height="127.58813"><svg xmlns:dc="http://purl.org/dc/elements/1.1/" xmlns:cc="http://creativecommons.org/ns#" xmlns:rdf="http://www.w3.org/1999/02/22-rdf-syntax-ns#" xmlns:svg="http://www.w3.org/2000/svg" xmlns="http://www.w3.org/2000/svg" viewBox="0 0 114.24475 127.58812" height="127.58813" width="114.24475" xml:space="preserve" version="1.1" id="SvgjsSvg1075"><metadata id="SvgjsMetadata1074"><rdf:rdf><cc:work rdf:about=""><dc:format>image/svg+xml</dc:format><dc:type rdf:resource="http://purl.org/dc/dcmitype/StillImage"></dc:type><dc:title></dc:title></cc:work></rdf:rdf></metadata><defs id="SvgjsDefs1073"><clipPath id="SvgjsClipPath1072" clipPathUnits="userSpaceOnUse"><path id="SvgjsPath1071" d="m 0,870.236 623.626,0 L 623.626,0 0,0 0,870.236 Z"></path></clipPath><clipPath id="SvgjsClipPath1070" clipPathUnits="userSpaceOnUse"><path id="SvgjsPath1069" d="m 0,870.236 623.626,0 L 623.626,0 0,0 0,870.236 Z"></path></clipPath><clipPath id="SvgjsClipPath1068" clipPathUnits="userSpaceOnUse"><path id="SvgjsPath1067" d="m 0,870.236 623.626,0 L 623.626,0 0,0 0,870.236 Z"></path></clipPath><clipPath id="SvgjsClipPath1066" clipPathUnits="userSpaceOnUse"><path id="SvgjsPath1065" d="m -80.514,14.173 -595.276,0 0,841.89 595.276,0 0,-841.89 z"></path></clipPath></defs><g transform="matrix(1.25,0,0,-1.25,-332.64387,639.7845)" id="SvgjsG1064"><path d="m 271.696,431.1864 16.742,-9.666 0,25.372 -20.647,-11.921 c 0.969,-1.562 2.313,-2.866 3.905,-3.785" style="fill:#231f20;fill-opacity:1;fill-rule:nonzero;stroke:none" id="SvgjsPath1063"></path><path d="m 288.0877,447.4995 -21.972,12.686 0,-19.333 c 0,-1.84 0.457,-3.656 1.324,-5.274 l 20.648,11.921 z" style="fill:#231f20;fill-opacity:1;fill-rule:nonzero;stroke:none" id="SvgjsPath1062"></path><path d="m 288.4384,448.1067 0,25.371 -20.263,-11.698 -1.709,-0.987 21.972,-12.686 z" style="fill:#231f20;fill-opacity:1;fill-rule:nonzero;stroke:none" id="SvgjsPath1061"></path><path d="m 311.4625,433.5991 -21.972,-12.686 16.742,-9.666 c 1.593,-0.92 3.394,-1.432 5.23,-1.49 l 0,23.842 z" style="fill:#231f20;fill-opacity:1;fill-rule:nonzero;stroke:none" id="SvgjsPath1060"></path><path d="m 267.4401,486.006 c -0.868,-1.618 -1.325,-3.434 -1.325,-5.274 l 0,-19.332 21.973,12.685 -20.648,11.921 z" style="fill:#231f20;fill-opacity:1;fill-rule:nonzero;stroke:none" id="SvgjsPath1059"></path><path d="m 312.5146,434.2063 15.978,-9.225 5.994,-3.461 0,25.372 -21.972,-12.686 z" style="fill:#231f20;fill-opacity:1;fill-rule:nonzero;stroke:none" id="SvgjsPath1058"></path><path d="m 356.1859,435.5786 c 0.868,1.619 1.325,3.435 1.325,5.274 l 0,19.333 -21.972,-12.686 20.647,-11.921 z" style="fill:#231f20;fill-opacity:1;fill-rule:nonzero;stroke:none" id="SvgjsPath1057"></path><path d="m 355.8352,434.9714 -20.647,11.921 0,-25.372 16.742,9.666 c 1.593,0.92 2.937,2.224 3.905,3.785" style="fill:#231f20;fill-opacity:1;fill-rule:nonzero;stroke:none" id="SvgjsPath1056"></path><path d="m 335.188,448.1067 21.972,12.686 -1.709,0.987 -20.263,11.698 0,-25.371 z" style="fill:#231f20;fill-opacity:1;fill-rule:nonzero;stroke:none" id="SvgjsPath1055"></path><path d="m 312.1639,433.5991 0,-23.842 c 1.836,0.058 3.637,0.57 5.23,1.49 l 16.742,9.666 -21.972,12.686 z" style="fill:#231f20;fill-opacity:1;fill-rule:nonzero;stroke:none" id="SvgjsPath1054"></path><path d="m 311.1118,487.3783 -15.978,9.225 -5.994,3.461 0,-25.372 21.972,12.686 z" style="fill:#231f20;fill-opacity:1;fill-rule:nonzero;stroke:none" id="SvgjsPath1053"></path><path d="m 317.569,410.9436 0,0 0,0 z" style="fill:#231f20;fill-opacity:1;fill-rule:nonzero;stroke:none" id="SvgjsPath1052"></path><path d="m 334.8372,420.9134 0,0 z" style="fill:#231f20;fill-opacity:1;fill-rule:nonzero;stroke:none" id="SvgjsPath1051"></path><path d="m 312.5146,487.3783 21.972,-12.686 0,25.372 -5.994,-3.461 -15.978,-9.225 z" style="fill:#231f20;fill-opacity:1;fill-rule:nonzero;stroke:none" id="SvgjsPath1050"></path><path d="m 267.7908,486.6133 20.648,-11.921 0,25.372 -16.743,-9.666 c -1.593,-0.92 -2.937,-2.224 -3.905,-3.785" style="fill:#231f20;fill-opacity:1;fill-rule:nonzero;stroke:none" id="SvgjsPath1049"></path><path d="m 335.5388,474.0852 21.972,-12.685 0,19.332 c 0,1.839 -0.457,3.655 -1.325,5.274 l -20.647,-11.921 z" style="fill:#231f20;fill-opacity:1;fill-rule:nonzero;stroke:none" id="SvgjsPath1048"></path><path d="m 351.9304,490.3982 -16.742,9.666 0,-25.372 20.647,11.921 c -0.968,1.561 -2.312,2.865 -3.905,3.785" style="fill:#231f20;fill-opacity:1;fill-rule:nonzero;stroke:none" id="SvgjsPath1047"></path><path d="m 311.4625,454.146 c 0,1.839 -0.457,3.655 -1.325,5.274 l -20.647,-11.921 21.972,-12.685 0,19.332 z" style="fill:#231f20;fill-opacity:1;fill-rule:nonzero;stroke:none" id="SvgjsPath1046"></path><path d="m 309.7873,460.0275 c -0.969,1.561 -2.312,2.865 -3.905,3.784 l -16.743,9.666 0,-25.371 20.648,11.921 z" style="fill:#231f20;fill-opacity:1;fill-rule:nonzero;stroke:none" id="SvgjsPath1045"></path><path d="m 312.1639,487.9856 21.972,12.686 -16.743,9.667 c -1.593,0.919 -3.394,1.431 -5.229,1.489 l 0,-23.842 z" style="fill:#231f20;fill-opacity:1;fill-rule:nonzero;stroke:none" id="SvgjsPath1044"></path><path d="m 289.4904,500.6714 21.972,-12.686 0,23.842 c -1.835,-0.058 -3.636,-0.57 -5.23,-1.49 l -16.742,-9.666 z" style="fill:#231f20;fill-opacity:1;fill-rule:nonzero;stroke:none" id="SvgjsPath1043"></path><path d="m 311.1118,434.2063 -21.972,12.686 0,-25.372 21.972,12.686 z" style="fill:#231f20;fill-opacity:1;fill-rule:nonzero;stroke:none" id="SvgjsPath1042"></path></g></svg><style>@media (prefers-color-scheme: light) { :root { filter: none; } }
@media (prefers-color-scheme: dark) { :root { filter: none; } }
</style></svg>