<svg viewBox="0 0 640 640" xmlns="http://www.w3.org/2000/svg"><path d="m320.3 205c-63.5-.2-115.1 51.2-115.3 114.7s51.2 115.1 114.7 115.3 115.1-51.2 115.3-114.7-51.2-115.1-114.7-115.3zm-.6 40.4c41.2-.2 74.7 33.1 74.9 74.3s-33.1 74.7-74.3 74.9-74.7-33.1-74.9-74.3 33.1-74.7 74.3-74.9zm93.4-45.1c0-14.8 12-26.8 26.8-26.8s26.8 12 26.8 26.8-12 26.8-26.8 26.8-26.8-12-26.8-26.8zm129.7 27.2c-1.7-35.9-9.9-67.7-36.2-93.9-26.2-26.2-58-34.4-93.9-36.2-37-2.1-147.9-2.1-184.9 0-35.8 1.7-67.6 9.9-93.9 36.1s-34.4 58-36.2 93.9c-2.1 37-2.1 147.9 0 184.9 1.7 35.9 9.9 67.7 36.2 93.9s58 34.4 93.9 36.2c37 2.1 147.9 2.1 184.9 0 35.9-1.7 67.7-9.9 93.9-36.2 26.2-26.2 34.4-58 36.2-93.9 2.1-37 2.1-147.8 0-184.8zm-47.8 224.5c-7.8 19.6-22.9 34.7-42.6 42.6-29.5 11.7-99.5 9-132.1 9s-102.7 2.6-132.1-9c-19.6-7.8-34.7-22.9-42.6-42.6-11.7-29.5-9-99.5-9-132.1s-2.6-102.7 9-132.1c7.8-19.6 22.9-34.7 42.6-42.6 29.5-11.7 99.5-9 132.1-9s102.7-2.6 132.1 9c19.6 7.8 34.7 22.9 42.6 42.6 11.7 29.5 9 99.5 9 132.1s2.7 102.7-9 132.1z" fill="#fff"/></svg>