<?xml version="1.0" encoding="UTF-8" standalone="no"?>
<!--
 Logo by Sylvain Lelievre
 SVG version by Laurent Jouanneau 
 Copyright (c) 2006-2007 by Laurent Jouanneau, 2006 Sylvain lelievre
 You mustn't modify this logo without the permission of the authors
 All rights reserved
-->
<svg
   xmlns:svg="http://www.w3.org/2000/svg"
   xmlns="http://www.w3.org/2000/svg"
   width="170.2504"
   height="244.10735"
   version="1.0">
  <g id="jelix-logo" transform="translate(-32.017653,-24.594226)" > 
    <path
       style="fill:#002830;fill-opacity:1;stroke:none;stroke-width:8;stroke-linejoin:round;stroke-miterlimit:4;stroke-dasharray:none;stroke-opacity:1;display:inline"
       d="M 56.382243,24.594226 C 43.208043,24.594226 32.444433,35.357866 32.444433,48.532046 L 32.017653,171.50673 C 32.017653,184.68093 42.781263,195.44453 55.955463,195.44454 L 114.44041,195.51777 L 114.39622,184.90984 L 55.955463,184.9692 C 48.403413,184.96919 42.492993,179.05878 42.492993,171.50673 L 42.919773,48.532046 C 42.919773,40.980016 48.830203,35.069586 56.382243,35.069586 L 178.33023,35.173136 C 185.88226,35.173136 191.79269,41.083546 191.79269,48.635596 L 191.79269,171.46384 C 191.79269,179.0159 185.88227,184.92631 178.33023,184.92631 L 119.48454,184.92631 L 119.48454,195.49004 L 178.33023,195.40165 C 191.50442,195.40165 202.26805,184.63805 202.26805,171.46384 L 202.26805,48.635596 C 202.26805,35.461396 191.50441,24.697776 178.33023,24.697776 L 56.382243,24.594226 z M 119.48454,195.44585 L 111.03746,195.42938 C 111.03746,195.42938 119.48454,195.44585 119.48454,195.44585 z "
       id="jelix-logo-frame"
       />
    <path
       style="fill:#3c90af;fill-opacity:1;fill-rule:evenodd;stroke:none;stroke-width:8;stroke-linecap:butt;stroke-linejoin:miter;stroke-miterlimit:4;stroke-dasharray:none;stroke-opacity:1;display:inline"
       d="M 103.95456,38.062396 C 103.95456,38.062396 103.91059,74.436347 103.89576,89.562737 C 92.556373,83.004077 68.847223,69.110187 68.847223,69.110187 C 65.059933,66.933647 57.572213,66.560767 53.911383,72.851537 C 53.911383,72.851537 106.37284,103.13145 106.37284,103.13145 C 108.57692,104.40516 110.2945,104.18766 111.83526,103.30237 C 113.39931,102.40371 114.39699,101.12147 114.41523,98.511857 C 114.41523,98.511857 114.47062,48.235896 114.47062,48.235896 C 114.45059,43.899876 111.1032,38.088016 103.95456,38.062396 z "
       id="jelix-logo-top-left"
       />
    <path
       style="fill:#3c90af;fill-opacity:1;fill-rule:evenodd;stroke:none;stroke-width:8;stroke-linecap:butt;stroke-linejoin:miter;stroke-miterlimit:4;stroke-dasharray:none;stroke-opacity:1;display:inline"
       d="M 174.70267,63.860997 C 174.70267,63.860997 143.09394,82.189017 129.98668,89.739367 C 129.99696,76.639837 130.17484,49.160166 130.17484,49.160166 C 130.16614,44.792006 126.7452,38.121016 119.46682,38.096026 C 119.46682,38.096026 119.47438,98.668937 119.47438,98.668937 C 119.47335,101.21459 120.5205,102.59331 122.05757,103.485 C 123.61785,104.39018 125.22715,104.61307 127.49625,103.32406 C 127.49625,103.32406 171.46269,77.929927 171.46269,77.929927 C 175.20777,75.744567 178.2548,70.064707 174.70267,63.860997 z "
       id="jelix-logo-top-right"
       />
    <path
       style="fill:#3c90af;fill-opacity:1;fill-rule:evenodd;stroke:none;stroke-width:8;stroke-linecap:butt;stroke-linejoin:miter;stroke-miterlimit:4;stroke-dasharray:none;stroke-opacity:1;display:inline"
       d="M 187.91047,138.09858 C 187.91047,138.09858 156.34571,119.99015 143.25328,112.41411 C 154.60295,105.87324 178.48998,92.287447 178.48998,92.287447 C 182.26857,90.095847 186.33534,83.797717 182.7178,77.481967 C 182.7178,77.481967 130.2639,107.77497 130.2639,107.77497 C 128.05878,109.0469 127.38836,110.64312 127.38466,112.42011 C 127.3809,114.22394 127.99252,115.72908 130.24338,117.04967 C 130.24338,117.04967 173.71693,141.99401 173.71693,141.99401 C 177.48204,144.14466 184.31396,144.27667 187.91047,138.09858 z "
       id="jelix-logo-right"
        />
    <path
       style="fill:#3c90af;fill-opacity:1;fill-rule:evenodd;stroke:none;stroke-width:8;stroke-linecap:butt;stroke-linejoin:miter;stroke-miterlimit:4;stroke-dasharray:none;stroke-opacity:1;display:inline"
       d="M 46.851043,87.002397 C 46.851043,87.002397 77.603303,104.73583 90.695723,112.31187 C 79.346063,118.85274 55.459023,132.43852 55.459023,132.43852 C 51.680443,134.63014 47.613653,140.92826 51.231213,147.24401 C 51.231213,147.24401 103.68511,116.95101 103.68511,116.95101 C 105.89021,115.67908 106.56064,114.08286 106.56434,112.30588 C 106.5681,110.50204 105.95649,108.9969 103.70562,107.6763 C 103.70562,107.6763 60.919583,82.981977 60.919583,82.981977 C 57.154463,80.831317 50.447553,80.824307 46.851043,87.002397 z "
       id="jelix-logo-left"
       />
    <path
       style="fill:#002830;fill-opacity:1;fill-rule:evenodd;stroke:none;stroke-width:8;stroke-linecap:butt;stroke-linejoin:miter;stroke-miterlimit:4;stroke-dasharray:none;stroke-opacity:1;display:inline"
       d="M 58.992703,160.89557 C 58.992703,160.89557 90.788933,142.50504 103.89619,134.95468 C 103.88592,148.05422 103.70803,190.20635 103.70803,190.20635 C 103.70803,190.20635 114.41605,190.35454 114.41605,190.35454 C 114.41605,190.35454 114.40849,126.02512 114.40849,126.02512 C 114.40951,123.47947 113.36236,122.10076 111.8253,121.20906 C 110.26501,120.30389 108.65572,120.08099 106.38663,121.37 C 106.38663,121.37 62.232683,146.88914 62.232683,146.88914 C 58.487593,149.0745 55.440573,154.69184 58.992703,160.89557 z "
       id="jelix-logo-bottom-left"
       />
    <path
       style="fill:#002830;fill-opacity:1;fill-rule:evenodd;stroke:none;stroke-width:8;stroke-linecap:butt;stroke-linejoin:miter;stroke-miterlimit:4;stroke-dasharray:none;stroke-opacity:1;display:inline"
       d="M 129.98999,190.13971 C 129.98999,190.13971 129.97147,150.1936 129.98629,135.0672 C 141.32568,141.62587 165.03483,155.51976 165.03483,155.51976 C 168.82212,157.6963 176.30983,158.06918 179.97067,151.77841 C 179.97067,151.77841 127.50921,121.49851 127.50921,121.49851 C 125.30513,120.2248 123.58755,120.44229 122.04679,121.32758 C 120.48274,122.22624 119.48506,123.50848 119.46682,126.11808 C 119.46682,126.11808 119.47014,190.08351 119.47014,190.08351 C 119.47014,190.08351 129.98999,190.13971 129.98999,190.13971 z "
       id="jelix-logo-bottom-right"
       />
    <path
       style="line-height:125%;writing-mode:lr-tb;fill:#3c90af;fill-opacity:1;stroke:none;stroke-width:1px;stroke-linecap:butt;stroke-linejoin:miter;stroke-opacity:1;display:inline;"
       d="M 42.442713,268.31561 L 42.442713,257.76379 C 42.442713,257.7638 42.695073,257.79534 43.199793,257.85842 C 43.736063,257.92152 44.193463,257.95307 44.572003,257.95306 C 48.262773,257.95307 50.108153,256.04459 50.108163,252.22763 L 50.108163,199.89435 L 60.659993,199.89435 L 60.659993,250.19297 C 60.659973,262.27474 56.559113,268.31561 48.357413,268.31561 L 42.442713,268.31561"
       id="jelix-logo-J-letter" />
    <path
       style="line-height:125%;writing-mode:lr-tb;fill:#002830;fill-opacity:1;stroke:none;stroke-width:1px;stroke-linecap:butt;stroke-linejoin:miter;stroke-opacity:1;display:inline;"
       d="M 70.975233,268.31561 L 70.975233,199.89435 L 98.466763,199.89435 L 98.466763,209.78373 L 81.527053,209.78373 L 81.527053,227.7171 L 93.735003,227.7171 L 93.735003,237.60649 L 81.527053,237.60649 L 81.527053,258.04769 L 98.466763,258.04769 L 98.466763,268.31561 L 70.975233,268.31561"
       id="jelix-logo-E-letter" />
    <path
       style="line-height:125%;writing-mode:lr-tb;fill:#002830;fill-opacity:1;stroke:none;stroke-width:1px;stroke-linecap:butt;stroke-linejoin:miter;stroke-opacity:1;display:inline;"
       d="M 133.48179,268.31561 L 134.23887,258.09501 C 129.06545,258.12657 126.21062,258.17388 125.67438,258.23696 C 125.16964,258.30006 124.72801,258.33161 124.34949,258.3316 C 120.6587,258.33161 118.81331,256.42313 118.81333,252.60617 L 118.81333,200.27289 L 108.2615,200.27289 L 108.2615,250.57151 C 108.2615,256.72281 109.27094,261.28107 111.28983,264.2463 C 113.40334,267.33772 116.49475,268.82033 120.56408,268.69415 L 133.48179,268.31561"
       id="jelix-logo-L-letter" />
    <path
       style="line-height:125%;writing-mode:lr-tb;fill:#002830;fill-opacity:1;stroke:none;stroke-width:1px;stroke-linecap:butt;stroke-linejoin:miter;stroke-opacity:1;display:inline;"
       d="M 139.49112,268.31561 L 139.49112,199.89435 L 150.23222,199.89435 L 150.23222,268.31561 L 139.49112,268.31561"
       id="jelix-logo-I-letter" />
    <path
       style="line-height:125%;writing-mode:lr-tb;fill:#002830;fill-opacity:1;stroke:none;stroke-width:1px;stroke-linecap:butt;stroke-linejoin:miter;stroke-opacity:1;display:inline;"
       d="M 155.24789,268.31561 L 167.73974,233.53717 L 155.43716,199.89435 L 166.36753,199.89435 L 172.80273,220.05165 L 173.2759,220.05165 L 180.04232,199.89435 L 190.83073,199.89435 L 178.9067,232.63814 L 191.87172,268.31561 L 180.84672,268.31561 L 173.93835,246.02902 L 173.55981,246.02902 L 166.08362,268.31561 L 155.24789,268.31561"
       id="jelix-logo-X-letter-dark" />
    <path
       style="line-height:125%;writing-mode:lr-tb;fill:#3c90af;fill-opacity:1;stroke:none;stroke-width:1px;stroke-linecap:butt;stroke-linejoin:miter;stroke-opacity:1;display:inline;"
       d="M 155.16268,268.30862 L 167.65453,233.53018 L 155.35195,199.88736 L 166.40732,199.85611 C 166.40732,199.85611 178.81776,232.58987 178.81776,232.58987 L 166.12341,268.30862 L 155.16268,268.30862"
       id="jelix-logo-X-letter-blue"
       />
  </g>
</svg>
