<svg version="1.1" id="connect_icons" xmlns="http://www.w3.org/2000/svg" xmlns:xlink="http://www.w3.org/1999/xlink" x="0px" y="0px" width="112.593px" height="36.599px" viewBox="-29.424 -1.861 112.593 36.599" enable-background="new -29.424 -1.861 112.593 36.599" xml:space="preserve"><g id="rss"><g><path fill="#C7CCCD" d="M83.137,15.191L83.137,15.191h-2.684v-0.247c0-7.483-6.107-13.174-13.584-13.174h0.163v-2.685h-0.163 c8.957,0,16.3,6.7,16.3,16.106C83.169,15.191,83.137,15.191,83.137,15.191z"/></g><g><path fill="#C7CCCD" d="M77.769,15.191L77.769,15.191h-2.684v-0.27c0-4.279-3.94-7.784-8.213-7.784h0.16V4.454h-0.16 c5.924,0,10.8,4,10.8,10.737H77.769z"/></g><circle fill="#C7CCCD" cx="68.7" cy="13.1" r="2"/></g><path id="Flickr" fill="#C7CCCD" d="M28.137,7.174c0,2.354-1.75,3.734-3.858,3.734c-2.095,0-3.803-1.732-3.803-3.823 c0-2.087,1.708-3.736,3.803-3.736C26.388,3.3,28.1,4.8,28.1,7.174H28.137z M14.443,3.6c-2.104,0-3.806,1.51-3.806,3.583 c0,2.1,1.6,3.7,3.8,3.702c2.107,0,3.814-1.564,3.814-3.657C18.29,5.196,16.633,3.6,14.513,3.6H14.443z"/><path id="facebook" fill="#C7CCCD" d="M-2.822,4.996h-2.819V2.539c0-0.476,0.53-0.994,1.068-0.994h1.232v-2.301h-1.974 c-1.231,0-2.26,0.188-2.865,0.775C-8.727,0.547-9.092,1.18-9.092,2.125v2.872h-1.15v2.3h1.15v8.053h3.451V7.297h2.527 c0.064,0,0.251-1.15,0.251-2.3L-2.822,4.996L-2.822,4.996z"/><path id="twitter_bird" fill="#C7CCCD" d="M-11.189,3.832c-0.646,0-1.337-0.648-2.066-0.561c0.745-0.444,1.316-1.711,1.582-2.552 c-0.694,0.415-1.436,0.388-2.333,0.589c-0.652-0.696-1.589-1.275-2.619-1.275c-1.987,0-3.597,1.538-3.597,3.5c0,0.3,0,0.5,0.1,0.783 c-2.968-0.143-5.669-1.563-7.331-3.755c-0.368,0.529-0.511,1.158-0.511,1.8c0,1.279-0.087,2.3,0.8,2.989 c-0.559-0.053-2.26-0.185-2.26-0.458c0,0,0,0,0,0.044c0,1.8,2,3.2,3.7,3.6c-0.302,0.083-0.253,0.132-0.583,0.132 c-0.231,0-0.273-0.029-0.494-0.069c0.457,1.4,1.9,2.4,3.4,2.6c-1.23,0.96-2.731,1.539-4.416,1.539c-0.292,0-0.556-0.024-0.837-0.056 c1.59,1,3.5,1.7,5.5,1.6c6.606,0,10.229-5.485,10.229-10.236c0-0.158-0.001,0.815-0.012,0.66c0.629-0.671,1.208-0.833,1.72-0.833 h0.028C-11.189,3.873-11.189,3.832-11.189,3.832z"/><g id="Google"><g><path fill="#C7CCCD" stroke="#C7CCCD" stroke-width="0.2" stroke-miterlimit="10" d="M6.509,8.316L5.835,7.808 C5.678,7.659,5.547,7.487,5.547,7.289c0-0.247,0.155-0.416,0.36-0.62L5.94,6.624c0.718-0.55,1.612-1.469,1.612-2.967 c0-0.8-1.542-1.457-2.086-2.495h1.752V0.124H4.517c-0.912,0-2.264,0.305-3.402,1.2C0.326,2-0.147,3.076-0.147,4.045 c0,1.543,1.115,3.172,3.344,3.169c0.045,0,0.086,0,0.171,0C3.346,7.315,3.334,7.45,3.334,7.587c0,0.429,0.086,0.772,0.343,0.976 C2.72,8.639,1.559,8.825,0.645,9.42c-1.408,0.833-1.521,2.076-1.521,2.436c0,1.458,1.286,2.915,4.115,2.861 c3.291,0,5.684-1.839,5.684-3.67C8.792,9.631,7.347,9.03,6.49,8.316H6.509z M3.986,13.614c-1.702,0-2.84-0.871-2.84-1.997 c0-1.058,0.871-1.469,1.254-1.611C3.167,9.747,4.105,9.68,4.105,9.68l0,0h0.099c0.124,0,0.257,0,0.343,0 c1.374,0.943,1.8,1.458,1.8,2.19c-0.025,0.977-0.864,1.734-2.317,1.734H3.986V13.614z M2.038,3.237c0,0,0.101-0.835,0.315-1.094 C2.59,1.862,3.006,1.675,3.379,1.675c1.215,0,1.972,1.8,1.972,2.993c0,0.508-0.111,0.86-0.347,1.115 C4.744,6.031,4.34,6.157,3.99,6.168C2.602,6.201,2.031,4.315,2.031,3.237H2.038z"/></g></g><g><path fill="#C7CCCD" d="M38.348-1.861c-4.97,0-9,4.029-9,9c0,3.7,2.2,6.9,5.4,8.245c-0.027-0.631-0.007-1.383,0.154-2.065 c0.173-0.732,1.157-4.906,1.157-4.906s-0.286-0.575-0.286-1.425c0-1.332,0.772-2.329,1.735-2.329c0.818,0,1.2,0.6,1.2,1.4 c0,0.822-0.524,2.051-0.796,3.195c-0.224,1,0.5,1.7,1.4,1.731c1.705,0,2.855-2.188,2.855-4.785c0-1.973-1.329-3.45-3.745-3.45 c-2.731,0-4.434,2.036-4.434,4.311c0,0.8,0.2,1.3,0.6,1.8c0.167,0.2,0.2,0.3,0.1,0.501c-0.044,0.166-0.142,0.564-0.183,0.723 c-0.06,0.228-0.246,0.309-0.451,0.2c-1.257-0.515-1.842-1.892-1.842-3.438c0-2.556,2.154-5.623,6.432-5.623 c3.435,0,5.7,2.5,5.7,5.2c0,3.529-1.963,6.167-4.859,6.167c-0.97,0-1.883-0.527-2.194-1.125c0,0-0.525,2.074-0.633,2.5 c-0.193,0.693-0.567,1.389-0.908,1.928c0.81,0.2,1.7,0.4,2.5,0.368c4.971,0,9-4.028,9-9C47.348,2.2,43.318-1.861,38.348-1.861z"/></g><g id="rss_1_"><g><path fill="#FF6600" d="M83.137,33.664L83.137,33.664h-2.684v-0.247c0-7.483-6.107-13.174-13.584-13.174h0.163v-2.685h-0.163 c8.957,0,16.3,6.7,16.3,16.106C83.169,33.664,83.137,33.664,83.137,33.664z"/></g><g><path fill="#FF6600" d="M77.769,33.664L77.769,33.664h-2.684v-0.27c0-4.279-3.94-7.784-8.213-7.784h0.16v-2.683h-0.16 c5.924,0,10.8,4,10.8,10.737H77.769z"/></g><circle fill="#FF6600" cx="68.7" cy="31.573" r="2"/></g><path id="Flickr_1_" fill="#1E66D9" d="M14.443,22.073c-2.104,0-3.806,1.51-3.806,3.583c0,2.1,1.6,3.7,3.8,3.702 c2.107,0,3.814-1.564,3.814-3.657c0.039-2.032-1.618-3.628-3.738-3.628H14.443z"/><path id="facebook_1_" fill="#3E5A96" d="M-2.822,23.469h-2.819v-2.457c0-0.476,0.53-0.994,1.068-0.994h1.232v-2.301h-1.974 c-1.231,0-2.26,0.188-2.865,0.775c-0.547,0.528-0.912,1.161-0.912,2.106v2.872h-1.15v2.3h1.15v8.053h3.451V25.77h2.527 c0.064,0,0.251-1.15,0.251-2.3L-2.822,23.469L-2.822,23.469z"/><path id="twitter_bird_1_" fill="#28ADEB" d="M-11.189,22.305c-0.646,0-1.337-0.648-2.066-0.561 c0.745-0.444,1.316-1.711,1.582-2.552c-0.694,0.415-1.436,0.388-2.333,0.589c-0.652-0.696-1.589-1.275-2.619-1.275 c-1.987,0-3.597,1.538-3.597,3.5c0,0.3,0,0.5,0.1,0.783c-2.968-0.143-5.669-1.563-7.331-3.755c-0.368,0.529-0.511,1.158-0.511,1.8 c0,1.279-0.087,2.3,0.8,2.989c-0.559-0.053-2.26-0.185-2.26-0.458c0,0,0,0,0,0.044c0,1.8,2,3.2,3.7,3.6 	c-0.302,0.083-0.253,0.132-0.583,0.132c-0.231,0-0.273-0.029-0.494-0.069c0.457,1.4,1.9,2.4,3.4,2.6 	c-1.23,0.96-2.731,1.539-4.416,1.539c-0.292,0-0.556-0.024-0.837-0.056c1.59,1,3.5,1.7,5.5,1.6c6.606,0,10.229-5.485,10.229-10.236 c0-0.158-0.001,0.815-0.012,0.66c0.629-0.671,1.208-0.833,1.72-0.833h0.028C-11.189,22.346-11.189,22.305-11.189,22.305z"/> <g id="Google_1_"><g><path fill="#DD4C39" stroke="#DD4C39" stroke-width="0.2" stroke-miterlimit="10" d="M6.509,26.868L5.835,26.36 c-0.157-0.149-0.288-0.321-0.288-0.519c0-0.247,0.155-0.416,0.36-0.62l0.033-0.045c0.718-0.55,1.612-1.469,1.612-2.967 c0-0.8-1.542-1.457-2.086-2.495h1.752v-1.037H4.517c-0.912,0-2.264,0.305-3.402,1.2c-0.789,0.676-1.262,1.752-1.262,2.72 c0,1.543,1.115,3.172,3.344,3.169c0.045,0,0.086,0,0.171,0c-0.022,0.101-0.034,0.237-0.034,0.373c0,0.429,0.086,0.772,0.343,0.976 c-0.957,0.077-2.118,0.262-3.032,0.857c-1.408,0.833-1.521,2.076-1.521,2.436c0,1.458,1.286,2.915,4.115,2.861 c3.291,0,5.684-1.839,5.684-3.67c-0.132-1.416-1.577-2.016-2.434-2.73h0.02V26.868z M3.986,32.166c-1.702,0-2.84-0.871-2.84-1.997 c0-1.058,0.871-1.469,1.254-1.611c0.766-0.259,1.704-0.326,1.704-0.326l0,0h0.099c0.124,0,0.257,0,0.343,0 c1.374,0.943,1.8,1.458,1.8,2.19c-0.025,0.977-0.864,1.734-2.317,1.734H3.986V32.166z M2.038,21.789c0,0,0.101-0.835,0.315-1.094 c0.237-0.281,0.653-0.468,1.026-0.468c1.215,0,1.972,1.8,1.972,2.993c0,0.508-0.111,0.86-0.347,1.115 			C4.744,24.584,4.34,24.71,3.99,24.72c-1.388,0.033-1.958-1.853-1.958-2.931H2.038z"/> 	</g> </g><g><path fill="#C9222C" d="M38.348,16.612c-4.97,0-9,4.029-9,9c0,3.7,2.2,6.9,5.4,8.245c-0.027-0.631-0.007-1.383,0.154-2.065 		c0.173-0.732,1.157-4.906,1.157-4.906s-0.286-0.575-0.286-1.425c0-1.332,0.772-2.329,1.735-2.329c0.818,0,1.2,0.6,1.2,1.4 c0,0.822-0.524,2.051-0.796,3.195c-0.224,1,0.5,1.7,1.4,1.731c1.705,0,2.855-2.188,2.855-4.785c0-1.973-1.329-3.45-3.745-3.45 c-2.731,0-4.434,2.036-4.434,4.311c0,0.8,0.2,1.3,0.6,1.8c0.167,0.2,0.2,0.3,0.1,0.501c-0.044,0.166-0.142,0.564-0.183,0.723 c-0.06,0.228-0.246,0.309-0.451,0.2c-1.257-0.515-1.842-1.892-1.842-3.438c0-2.556,2.154-5.623,6.432-5.623 c3.435,0,5.7,2.5,5.7,5.2c0,3.529-1.963,6.167-4.859,6.167c-0.97,0-1.883-0.527-2.194-1.125c0,0-0.525,2.074-0.633,2.5 c-0.193,0.693-0.567,1.389-0.908,1.928c0.81,0.2,1.7,0.4,2.5,0.368c4.971,0,9-4.028,9-9C47.348,20.673,43.318,16.612,38.348,16.612 z"/></g><path fill="#FB0C84" d="M28.137,25.816c0,2.354-1.75,3.734-3.858,3.734c-2.095,0-3.803-1.732-3.803-3.823 c0-2.087,1.708-3.736,3.803-3.736c2.109-0.049,3.821,1.451,3.821,3.825H28.137z"/><g><rect x="49.908" y="3.434" fill="#C7CCCD" width="3.307" height="10.873"/><path fill="#C7CCCD" d="M62.43,4.101c-1.22-0.702-3.019-0.761-4.317-0.154V3.432h-3.274v10.92h3.275V7.67l1.35-0.666 c0.332-0.164,1.057-0.149,1.362,0.028c0.231,0.1,0.584,0.698,0.584,1.019v6.298h3.276V8.052c-0.018-1.526-0.966-3.222-2.23-3.951 H62.43z"/><ellipse fill="#C7CCCD" cx="51.561" cy="0.94" rx="1.654" ry="1.696"/></g><g><rect x="49.954" y="21.891" fill="#1295C1" width="3.286" height="10.873"/><path fill="#1295C1" d="M62.398,22.559c-1.212-0.702-3-0.761-4.29-0.154v-0.516h-3.254v10.92h3.255v-6.681l1.342-0.666 c0.33-0.164,1.051-0.149,1.353,0.028c0.23,0.1,0.58,0.698,0.58,1.019v6.298h3.255V26.51c-0.018-1.526-0.96-3.222-2.216-3.951 H62.398z"/><ellipse fill="#1295C1" cx="51.597" cy="19.398" rx="1.643" ry="1.696"/></g></svg>