<?xml version="1.0" encoding="UTF-8" standalone="no"?>
<svg
   xmlns:dc="http://purl.org/dc/elements/1.1/"
   xmlns:cc="http://creativecommons.org/ns#"
   xmlns:rdf="http://www.w3.org/1999/02/22-rdf-syntax-ns#"
   xmlns:svg="http://www.w3.org/2000/svg"
   xmlns="http://www.w3.org/2000/svg"
   viewBox="0 0 115.1205 128.47749"
   height="128.47749"
   width="115.1205"
   xml:space="preserve"
   version="1.1"
   id="svg2"><metadata
     id="metadata8"><rdf:RDF><cc:Work
         rdf:about=""><dc:format>image/svg+xml</dc:format><dc:type
           rdf:resource="http://purl.org/dc/dcmitype/StillImage" /><dc:title></dc:title></cc:Work></rdf:RDF></metadata><defs
     id="defs6"><clipPath
       id="clipPath16"
       clipPathUnits="userSpaceOnUse"><path
         id="path18"
         d="m 0,870.236 623.626,0 L 623.626,0 0,0 0,870.236 Z" /></clipPath><clipPath
       id="clipPath28"
       clipPathUnits="userSpaceOnUse"><path
         id="path30"
         d="m 0,870.236 623.626,0 L 623.626,0 0,0 0,870.236 Z" /></clipPath><clipPath
       id="clipPath256"
       clipPathUnits="userSpaceOnUse"><path
         id="path258"
         d="m 0,870.236 623.626,0 L 623.626,0 0,0 0,870.236 Z" /></clipPath><clipPath
       id="clipPath264"
       clipPathUnits="userSpaceOnUse"><path
         id="path266"
         d="m -80.514,14.173 -595.276,0 0,841.89 595.276,0 0,-841.89 z" /></clipPath></defs><g
     transform="matrix(1.25,0,0,-1.25,-332.20613,795.7385)"
     id="g10"><path
       d="m 288.7891,571.9068 0,0 -21.482,-12.403 c 0.994,-1.721 2.433,-3.185 4.214,-4.213 l 17.268,-9.97 0,26.586 z"
       style="fill:#4c9edc;fill-opacity:1;fill-rule:nonzero;stroke:none"
       id="path34" /><path
       d="m 265.7649,585.1998 0,-19.939 c 0,-2.057 0.549,-4.035 1.542,-5.756 l 21.482,12.402 -23.024,13.293 z"
       style="fill:#498cd2;fill-opacity:1;fill-rule:nonzero;stroke:none"
       id="path38" /><path
       d="m 288.7891,571.9068 0,26.586 -23.024,-13.293 0,0 23.024,-13.293 z"
       style="fill:#487dc8;fill-opacity:1;fill-rule:nonzero;stroke:none"
       id="path42" /><path
       d="m 288.7891,545.3209 0,0 17.268,-9.97 c 1.781,-1.028 3.769,-1.542 5.756,-1.542 l 0,24.805 -23.024,-13.293 z"
       style="fill:#5295d6;fill-opacity:1;fill-rule:nonzero;stroke:none"
       id="path46" /><path
       d="m 267.3072,610.8954 c -0.994,-1.721 -1.542,-3.7 -1.542,-5.756 l 0,-19.94 23.024,13.293 -21.482,12.403 z"
       style="fill:#476bbc;fill-opacity:1;fill-rule:nonzero;stroke:none"
       id="path50" /><path
       d="m 334.8373,545.3209 0,26.586 -23.024,-13.293 23.024,-13.293 z"
       style="fill:#7f9ad6;fill-opacity:1;fill-rule:nonzero;stroke:none"
       id="path54" /><path
       d="m 356.3192,559.5043 c 0.994,1.721 1.542,3.7 1.542,5.756 l 0,19.939 -23.024,-13.293 21.482,-12.402 z"
       style="fill:#727ebd;fill-opacity:1;fill-rule:nonzero;stroke:none"
       id="path58" /><path
       d="m 334.8373,571.9068 0,-26.586 17.268,9.97 c 1.781,1.028 3.22,2.492 4.214,4.214 l -21.482,12.402 z"
       style="fill:#8f9fd8;fill-opacity:1;fill-rule:nonzero;stroke:none"
       id="path62" /><path
       d="m 334.8373,598.4928 0,0 0,-26.586 23.024,13.293 0,0 -23.024,13.293 z"
       style="fill:#425da2;fill-opacity:1;fill-rule:nonzero;stroke:none"
       id="path66" /><path
       d="m 311.8132,558.6138 0,-24.805 c 1.987,0 3.975,0.514 5.756,1.542 l 17.268,9.97 -23.024,13.293 z"
       style="fill:#6495d5;fill-opacity:1;fill-rule:nonzero;stroke:none"
       id="path70" /><path
       d="m 311.8132,611.7858 -23.024,13.293 0,-26.586 23.024,13.293 z"
       style="fill:#3a64ad;fill-opacity:1;fill-rule:nonzero;stroke:none"
       id="path74" /><path
       d="m 311.8132,611.7858 23.024,-13.293 0,26.586 -23.024,-13.293 z"
       style="fill:#3a61a3;fill-opacity:1;fill-rule:nonzero;stroke:none"
       id="path78" /><path
       d="m 267.3072,610.8954 21.482,-12.403 0,26.586 -17.268,-9.969 c -1.781,-1.029 -3.22,-2.493 -4.214,-4.214"
       style="fill:#32549d;fill-opacity:1;fill-rule:nonzero;stroke:none"
       id="path82" /><path
       d="m 334.8373,598.4928 23.024,-13.293 0,19.939 c 0,2.057 -0.548,4.035 -1.542,5.757 l -21.482,-12.403 z"
       style="fill:#2f5296;fill-opacity:1;fill-rule:nonzero;stroke:none"
       id="path86" /><path
       d="m 334.8373,598.4928 21.482,12.403 c -0.994,1.721 -2.433,3.185 -4.214,4.213 l -17.268,9.97 0,-26.586 z"
       style="fill:#325295;fill-opacity:1;fill-rule:nonzero;stroke:none"
       id="path90" /><path
       d="m 288.7891,571.9068 23.024,-13.293 0,19.939 c 0,2.057 -0.548,4.035 -1.542,5.757 l -21.482,-12.403 z"
       style="fill:#6aaee3;fill-opacity:1;fill-rule:nonzero;stroke:none"
       id="path94" /><path
       d="m 288.7891,571.9068 21.482,12.403 c -0.994,1.721 -2.433,3.185 -4.214,4.213 l -17.268,9.97 0,-26.586 z"
       style="fill:#50a0dd;fill-opacity:1;fill-rule:nonzero;stroke:none"
       id="path98" /><path
       d="m 334.8373,625.0788 -17.269,9.97 c -1.781,1.028 -3.768,1.542 -5.755,1.542 l 0,-24.805 23.024,13.293 z"
       style="fill:#4379c6;fill-opacity:1;fill-rule:nonzero;stroke:none"
       id="path102" /><path
       d="m 311.8132,611.7858 0,24.805 c -1.987,0 -3.975,-0.514 -5.755,-1.542 l -17.269,-9.97 23.024,-13.293 z"
       style="fill:#3f73bd;fill-opacity:1;fill-rule:nonzero;stroke:none"
       id="path106" /><path
       d="m 288.7891,545.3209 23.024,13.293 -23.024,13.293 0,-26.586 z"
       style="fill:#50a0dd;fill-opacity:1;fill-rule:nonzero;stroke:none"
       id="path110" /></g></svg>