<?xml version="1.0" encoding="UTF-8" standalone="no"?>
<svg xmlns:dc="http://purl.org/dc/elements/1.1/" xmlns:cc="http://creativecommons.org/ns#" xmlns:rdf="http://www.w3.org/1999/02/22-rdf-syntax-ns#" xmlns:svg="http://www.w3.org/2000/svg" xmlns="http://www.w3.org/2000/svg" xmlns:sodipodi="http://sodipodi.sourceforge.net/DTD/sodipodi-0.dtd" xmlns:inkscape="http://www.inkscape.org/namespaces/inkscape" id="svg6693" version="1.1" xml:space="preserve" width="169.02838" height="186.31958" viewBox="0 0 169.02838 186.31957" inkscape:version="0.91 r13725" inkscape:export-xdpi="337.07999" inkscape:export-ydpi="337.07999"><sodipodi:namedview pagecolor="#ffffff" bordercolor="#666666" borderopacity="1" objecttolerance="10" gridtolerance="10" guidetolerance="10" inkscape:pageopacity="0" inkscape:pageshadow="2" inkscape:window-width="1869" inkscape:window-height="1056" id="namedview60" showgrid="false" inkscape:zoom="5.0665636" inkscape:cx="49.29083" inkscape:cy="101.64263" inkscape:window-x="51" inkscape:window-y="24" inkscape:window-maximized="1" inkscape:current-layer="g4634" showguides="false"/><metadata id="metadata6699"><rdf:RDF><cc:Work rdf:about=""><dc:format>image/svg+xml</dc:format><dc:type rdf:resource="http://purl.org/dc/dcmitype/StillImage"/><dc:title/></cc:Work></rdf:RDF></metadata><defs id="defs6697"><clipPath clipPathUnits="userSpaceOnUse" id="clipPath6707"><path d="m 0,870.236 623.626,0 L 623.626,0 0,0 0,870.236 Z" id="path6709"/></clipPath><clipPath clipPathUnits="userSpaceOnUse" id="clipPath6719"><path d="m 0,870.236 623.626,0 L 623.626,0 0,0 0,870.236 Z" id="path6721"/></clipPath><clipPath clipPathUnits="userSpaceOnUse" id="clipPath6731"><path d="m 0,870.236 623.626,0 L 623.626,0 0,0 0,870.236 Z" id="path6733"/></clipPath><clipPath id="clipPath4150" clipPathUnits="userSpaceOnUse"><path id="path4152" d="m 0,870.236 623.626,0 L 623.626,0 0,0 0,870.236 Z"/></clipPath><clipPath id="clipPath4162" clipPathUnits="userSpaceOnUse"><path id="path4164" d="m 0,870.236 623.626,0 L 623.626,0 0,0 0,870.236 Z"/></clipPath><clipPath id="clipPath4390" clipPathUnits="userSpaceOnUse"><path id="path4392" d="m 0,870.236 623.626,0 L 623.626,0 0,0 0,870.236 Z"/></clipPath><clipPath id="clipPath4398" clipPathUnits="userSpaceOnUse"><path id="path4400" d="m -80.514,14.173 -595.276,0 0,841.89 595.276,0 0,-841.89 z"/></clipPath><clipPath id="clipPath6707-4" clipPathUnits="userSpaceOnUse"><path id="path6709-2" d="m 0,870.236 623.626,0 L 623.626,0 0,0 0,870.236 Z"/></clipPath><clipPath id="clipPath6719-3" clipPathUnits="userSpaceOnUse"><path id="path6721-3" d="m 0,870.236 623.626,0 L 623.626,0 0,0 0,870.236 Z"/></clipPath><clipPath id="clipPath6731-1" clipPathUnits="userSpaceOnUse"><path id="path6733-5" d="m 0,870.236 623.626,0 L 623.626,0 0,0 0,870.236 Z"/></clipPath><clipPath clipPathUnits="userSpaceOnUse" id="clipPath4150-1"><path d="m 0,870.236 623.626,0 L 623.626,0 0,0 0,870.236 Z" id="path4152-0"/></clipPath><clipPath clipPathUnits="userSpaceOnUse" id="clipPath4162-3"><path d="m 0,870.236 623.626,0 L 623.626,0 0,0 0,870.236 Z" id="path4164-5"/></clipPath><clipPath clipPathUnits="userSpaceOnUse" id="clipPath4390-2"><path d="m 0,870.236 623.626,0 L 623.626,0 0,0 0,870.236 Z" id="path4392-2"/></clipPath><clipPath clipPathUnits="userSpaceOnUse" id="clipPath4398-1"><path d="m -80.514,14.173 -595.276,0 0,841.89 595.276,0 0,-841.89 z" id="path4400-4"/></clipPath></defs><g transform="matrix(1.2945423,0,0,1.2945423,-420.0547,-610.93861)" id="lion"><title id="title17040">lion</title><g id="g5080" transform="matrix(1.25,0,0,-1.25,-1.3964844e-4,1275.3973)"><path d="m 288.7891,571.9068 0,0 -21.482,-12.403 c 0.994,-1.721 2.433,-3.185 4.214,-4.213 l 17.268,-9.97 0,26.586 z" style="fill:#4c9edc;fill-opacity:1;fill-rule:nonzero;stroke:none" id="path5082-8"/><path d="m 265.7649,585.1998 0,-19.939 c 0,-2.057 0.549,-4.035 1.542,-5.756 l 21.482,12.402 -23.024,13.293 z" style="fill:#498cd2;fill-opacity:1;fill-rule:nonzero;stroke:none" id="path5084-8"/><path d="m 288.7891,571.9068 0,26.586 -23.024,-13.293 0,0 23.024,-13.293 z" style="fill:#487dc8;fill-opacity:1;fill-rule:nonzero;stroke:none" id="path5086-9"/><path d="m 288.7891,545.3209 0,0 17.268,-9.97 c 1.781,-1.028 3.769,-1.542 5.756,-1.542 l 0,24.805 -23.024,-13.293 z" style="fill:#5295d6;fill-opacity:1;fill-rule:nonzero;stroke:none" id="path5088-6"/><path d="m 267.3072,610.8954 c -0.994,-1.721 -1.542,-3.7 -1.542,-5.756 l 0,-19.94 23.024,13.293 -21.482,12.403 z" style="fill:#476bbc;fill-opacity:1;fill-rule:nonzero;stroke:none" id="path5090-0"/><path d="m 334.8373,545.3209 0,26.586 -23.024,-13.293 23.024,-13.293 z" style="fill:#7f9ad6;fill-opacity:1;fill-rule:nonzero;stroke:none" id="path5092-2"/><path d="m 356.3192,559.5043 c 0.994,1.721 1.542,3.7 1.542,5.756 l 0,19.939 -23.024,-13.293 21.482,-12.402 z" style="fill:#727ebd;fill-opacity:1;fill-rule:nonzero;stroke:none" id="path5094-5"/><path d="m 334.8373,571.9068 0,-26.586 17.268,9.97 c 1.781,1.028 3.22,2.492 4.214,4.214 l -21.482,12.402 z" style="fill:#8f9fd8;fill-opacity:1;fill-rule:nonzero;stroke:none" id="path5096-0"/><path d="m 334.8373,598.4928 0,0 0,-26.586 23.024,13.293 0,0 -23.024,13.293 z" style="fill:#425da2;fill-opacity:1;fill-rule:nonzero;stroke:none" id="path5098-9"/><path d="m 311.8132,558.6138 0,-24.805 c 1.987,0 3.975,0.514 5.756,1.542 l 17.268,9.97 -23.024,13.293 z" style="fill:#6495d5;fill-opacity:1;fill-rule:nonzero;stroke:none" id="path5100-5"/><path d="m 311.8132,611.7858 -23.024,13.293 0,-26.586 23.024,13.293 z" style="fill:#3a64ad;fill-opacity:1;fill-rule:nonzero;stroke:none" id="path5102-1"/><path d="m 311.8132,611.7858 23.024,-13.293 0,26.586 -23.024,-13.293 z" style="fill:#3a61a3;fill-opacity:1;fill-rule:nonzero;stroke:none" id="path5104-7"/><path d="m 267.3072,610.8954 21.482,-12.403 0,26.586 -17.268,-9.969 c -1.781,-1.029 -3.22,-2.493 -4.214,-4.214" style="fill:#32549d;fill-opacity:1;fill-rule:nonzero;stroke:none" id="path5106-7"/><path d="m 334.8373,598.4928 23.024,-13.293 0,19.939 c 0,2.057 -0.548,4.035 -1.542,5.757 l -21.482,-12.403 z" style="fill:#2f5296;fill-opacity:1;fill-rule:nonzero;stroke:none" id="path5108-7"/><path d="m 334.8373,598.4928 21.482,12.403 c -0.994,1.721 -2.433,3.185 -4.214,4.213 l -17.268,9.97 0,-26.586 z" style="fill:#325295;fill-opacity:1;fill-rule:nonzero;stroke:none" id="path5110-4"/><path d="m 334.8373,625.0788 -17.269,9.97 c -1.781,1.028 -3.768,1.542 -5.755,1.542 l 0,-24.805 23.024,13.293 z" style="fill:#4379c6;fill-opacity:1;fill-rule:nonzero;stroke:none" id="path5112-0"/><path d="m 311.8132,611.7858 0,24.805 c -1.987,0 -3.975,-0.514 -5.755,-1.542 l -17.269,-9.97 23.024,-13.293 z" style="fill:#3f73bd;fill-opacity:1;fill-rule:nonzero;stroke:none" id="path5114-8"/><path d="m 288.7891,545.3209 23.024,13.293 -23.024,13.293 0,-26.586 z" style="fill:#50a0dd;fill-opacity:1;fill-rule:nonzero;stroke:none" id="path5116-4"/><path id="path5118-4" style="fill:#425da2;fill-opacity:1;fill-rule:nonzero;stroke:none" d="m 288.7891,598.4929 0,0 0,-26.586 23.024,13.293 0,0 -23.024,13.293 z"/><path id="path5120-6" style="fill:#487dc8;fill-opacity:1;fill-rule:nonzero;stroke:none" d="m 334.8371,571.9069 0,26.586 -23.024,-13.293 0,0 23.024,-13.293 z"/><path id="path5122-9" transform="matrix(0.8,0,0,-0.8,1.1171875e-4,1020.3178)" d="m 389.76562,543.89648 0,0.002 -28.77929,16.61523 28.77929,16.61719 28.78126,-16.61719 -28.78126,-16.61719 z" style="fill:#3f73bd;fill-opacity:1;fill-rule:nonzero;stroke:none"/><path id="path5124-5" style="fill:#2f5296;fill-opacity:1;fill-rule:nonzero;stroke:none" d="m 311.8133,585.1998 0,26.586 -23.024,-13.293 23.024,-13.293 z"/><path id="path5126-1" style="fill:#498cd2;fill-opacity:1;fill-rule:nonzero;stroke:none" d="m 311.8132,585.1998 23.024,13.293 -23.024,13.293 0,-26.586 z"/></g><path inkscape:connector-curvature="0" d="m 482.01174,471.66254 c -0.68267,-0.39299 -1.38659,-0.71936 -2.10209,-0.9878 5.13212,4.24957 6.59886,11.70105 3.15169,17.65972 -3.45199,5.95674 -10.65338,8.3852 -16.8911,6.04943 0.58804,0.4857 1.22147,0.93373 1.90415,1.32576 6.63941,3.85175 15.14048,1.58937 18.98933,-5.05101 3.85175,-6.63941 1.59033,-15.14532 -5.05198,-18.9961" style="fill:#ffffff;fill-opacity:1;fill-rule:nonzero;stroke:none" id="path255"/><g id="g4632" transform="matrix(0.0879342,0,0,0.0879342,348.09251,497.20588)" style="fill:#ffffff;fill-opacity:1"><g id="g4634" transform="matrix(0.1,0,0,-0.1,0,484)" style="fill:#ffffff;fill-opacity:1"><g id="g4203" transform="translate(381.4478,-520.1561)"><path sodipodi:nodetypes="sccccccsccccscsccscccs" style="fill:#ffffff;fill-opacity:1" inkscape:connector-curvature="0" d="m 5928.9816,939.30953 c 84.4815,245.04597 269.7439,578.99917 461.528,830.31407 630.271,823.6517 1572.3594,1218.3485 2405.7875,1005.1669 l 153.7102,-38.6072 59.4576,154.6667 c 69.9246,192.1224 244.9105,112.2321 -128.9792,223.8628 -417.35,110.8824 -924.2735,81.606 -1352.3642,-77.9802 -84.6872,-30.5669 -155.2463,-55.7443 -160.8241,-53.8213 -3.6871,1.2711 2.5222,67.1444 16.2319,142.8077 122.3181,730.9473 -151.8117,1526.3278 -700.7433,2033.0101 -216.6074,202.5603 -425.5494,332.2426 -718.3059,445.5484 l -248.6067,98.0848 -54.6261,-158.4479 c -370.9426,-1075.9522 111.0831,-2266.6812 1126.433,-2783.6454 47.8373,-22.6273 83.3097,-45.2227 81.4193,-50.706 -1.8904,-5.4833 -64.057,-54.1804 -139.2073,-110.7771 C 6574.0141,2481.3804 6354.9094,2270.4767 6200.8476,2092.6816 5980.6797,1836.6608 5702.7765,1359.481 5601.151,1064.7074 l -40.6436,-117.89057 165.822,-57.1684 165.822,-57.1684 z" id="path4636"/><path style="fill:#ffffff;fill-opacity:1" inkscape:connector-curvature="0" d="M 2235.3,2543.8 C 1757.8,2475.6 1409,1965 1520.1,1491.4 c 60.4,-257.2 255.3,-502.8 434.6,-543.7 56.5,-13.7 157.9,-50.7 226.1,-79.9 150.1,-68.2 276.7,-74.1 448.2,-19.5 411.2,128.6 676.2,545.7 608,960.8 -79.9,479.4 -520.3,802.9 -1001.7,734.7 z" id="path4638"/><path style="fill:#ffffff;fill-opacity:1" inkscape:connector-curvature="0" d="m 4160.7,2543.8 c -214.4,-31.2 -452.1,-179.3 -574.9,-360.5 l -60.4,-85.8 33.1,-111.1 c 42.9,-144.2 42.9,-459.9 1.9,-610 -27.3,-99.4 -27.3,-111.1 1.9,-163.7 27.3,-46.8 64.3,-66.3 204.6,-111.1 95.5,-29.2 216.3,-79.9 270.9,-113 109.1,-68.2 132.5,-74.1 132.5,-29.2 0,56.5 134.5,321.6 214.4,422.9 175.4,224.1 440.4,387.8 725,450.2 48.7,11.7 50.7,15.6 31.2,83.8 -114.9,419 -537.8,687.9 -980.2,627.5 z" id="path4640"/><path style="fill:#ffffff;fill-opacity:1" inkscape:connector-curvature="0" d="m 3279.9,791.8 c -42.9,-9.7 -122.8,-48.7 -175.4,-89.6 -50.7,-39 -148.1,-97.4 -216.3,-130.6 -68.2,-31.2 -136.4,-76 -152,-101.3 -25.3,-39 -21.4,-54.6 39,-187.1 87.7,-194.9 116.9,-325.4 118.9,-534 l 0,-175.4 194.9,-1.9 c 288.4,-2 522.3,-81.9 746.4,-259.2 116.9,-93.5 134.5,-91.6 247.5,40.9 101.3,118.9 181.2,296.2 204.6,454.1 21.4,132.5 19.5,140.3 -46.8,311.8 -39,95.5 -78,210.5 -89.7,255.3 -40.9,169.5 -315.7,368.3 -572.9,415.1 -130.6,23.3 -181.3,23.3 -298.2,1.9 z" id="path4642"/><path style="fill:#ffffff;fill-opacity:1" inkscape:connector-curvature="0" d="M 1502.6,614.5 C 1110.8,538.5 801,160.4 799,-241.1 c 0,-553.5 532,-980.3 1069.9,-855.5 440.4,101.3 744.5,553.5 666.5,993.9 C 2447.7,386.5 1982,710 1502.6,614.5 Z" id="path4644"/><path style="fill:#ffffff;fill-opacity:1" inkscape:connector-curvature="0" d="M 6501.2,216.9 C 6483.7,176 6470,137 6470,129.2 c 0,-7.8 -42.9,-79.9 -93.5,-157.9 -116.9,-177.3 -280.6,-327.4 -463.8,-420.9 l -140.3,-72.1 44.8,-60.4 c 72.1,-93.5 161.7,-284.5 194.9,-420.9 l 31.2,-124.7 198.8,0 c 239.7,0 405.4,-46.8 604.1,-165.6 l 132.5,-79.9 64.3,39 c 109.1,68.2 265,249.4 327.4,383.9 105.2,226.1 97.4,532.1 -23.4,767.8 C 7222.3,61 6943.6,242.2 6641.6,277.3 l -111.1,13.7 -29.3,-74.1 z" id="path4646"/><path style="fill:#ffffff;fill-opacity:1" inkscape:connector-curvature="0" d="m 4661.6,-435.9 c -35.1,-7.8 -66.3,-17.5 -68.2,-21.4 -3.9,-3.9 -39,-76 -79.9,-159.8 -52.6,-109.2 -115,-194.9 -216.3,-300.1 l -142.3,-148.1 44.8,-99.4 c 68.2,-155.9 95.5,-298.2 93.5,-489.1 l 0,-177.3 122.8,7.8 c 228,15.6 481.3,-50.7 699.6,-181.2 l 113,-70.1 74.1,48.7 c 122.8,81.8 230,208.5 306,360.5 70.2,142.3 72.1,150 72.1,370.3 0,214.4 -3.9,233.9 -62.4,358.6 -74,155.9 -237.7,337.1 -372.2,409.3 -169.5,91.3 -419,130.2 -584.6,91.3 z" id="path4648"/><path style="fill:#ffffff;fill-opacity:1" inkscape:connector-curvature="0" d="m 2933,-778.9 c -21.4,-5.9 -70.2,-19.5 -111.1,-29.2 -54.6,-13.6 -83.8,-40.9 -132.5,-115 -68.2,-107.2 -282.6,-313.8 -368.3,-360.5 -54.6,-27.3 -99.4,-113 -99.4,-187.1 0,-21.4 31.2,-77.9 70.2,-128.6 136.4,-179.3 226.1,-401.4 251.4,-631.4 l 13.6,-109.1 206.6,-11.7 c 200.7,-11.7 300.1,-33.1 459.9,-101.3 40.9,-17.5 95.5,-27.3 120.8,-21.4 25.3,7.8 91.6,74 153.9,157.9 66.3,85.7 165.6,187.1 251.4,251.4 124.7,93.5 146.2,118.9 169.6,200.7 39,136.4 29.2,362.5 -19.5,502.8 -85.8,243.6 -282.6,446.3 -522.3,535.9 -107.2,38.8 -366.4,66.1 -444.3,46.6 z" id="path4650"/><path style="fill:#ffffff;fill-opacity:1" inkscape:connector-curvature="0" d="m 1120.6,-1496.1 c -323.5,-78 -584.6,-348.8 -654.8,-676.2 -35.1,-165.7 9.7,-497 79.9,-571 7.8,-7.8 77.9,-1.9 152,15.6 280.6,64.3 567.1,27.3 832.1,-105.2 l 155.9,-77.9 56.5,72.1 c 89.6,115 233.9,243.6 343,307.9 116.9,70.1 130.6,105.2 103.3,296.2 -74,518.3 -569,859.3 -1067.9,738.5 z" id="path4652"/><path style="fill:#ffffff;fill-opacity:1" inkscape:connector-curvature="0" d="m 6068.6,-1482.5 c -33.1,-5.8 -44.8,-27.3 -56.5,-95.5 -21.4,-146.2 -173.4,-421 -307.9,-561.3 -66.3,-66.3 -146.2,-140.3 -177.3,-161.7 l -56.5,-39 50.7,-76 c 79.9,-118.9 152,-333.3 165.7,-493.1 l 13.6,-146.2 118.9,-62.4 c 440.4,-228 970.5,-50.7 1190.7,397.5 72.1,146.2 74.1,152 74.1,372.2 0,214.4 -3.9,233.9 -62.4,358.6 -74.1,155.9 -237.8,337.1 -372.2,409.2 -167.7,91.9 -409.4,130.9 -580.9,97.7 z" id="path4654"/><path style="fill:#ffffff;fill-opacity:1" inkscape:connector-curvature="0" d="m 4250.4,-2199.6 c -237.8,-66.3 -428.7,-220.2 -543.7,-434.6 l -64.3,-118.9 66.3,-93.5 c 159.8,-224.1 231.9,-444.3 235.8,-719.1 l 1.9,-179.3 78,-48.7 c 432.6,-270.9 1019.2,-85.8 1243.3,389.8 52.6,115 62.4,157.8 68.2,327.4 5.9,157.9 0,216.3 -33.1,306 -85.8,249.5 -280.6,450.2 -524.2,543.7 -144.3,54.5 -384,68.1 -528.2,27.2 z" id="path4656"/><path style="fill:#ffffff;fill-opacity:1" inkscape:connector-curvature="0" d="m 2496.4,-2727.8 c -58.5,-15.6 -152,-54.6 -208.5,-85.8 -105.2,-62.4 -307.9,-263.1 -329.4,-329.4 -7.8,-23.4 9.7,-68.2 50.7,-128.6 144.2,-212.4 218.3,-565.2 173.4,-828.2 -27.3,-161.7 -29.2,-159.8 167.6,-255.3 522.3,-253.3 1134.2,68.2 1235.5,650.9 76,430.7 -230,886.7 -664.5,986.1 -120.7,29.3 -300,23.5 -424.8,-9.7 z" id="path4658"/><path style="fill:#ffffff;fill-opacity:1" inkscape:connector-curvature="0" d="m 717.2,-3084.4 c -290.4,-93.5 -514.5,-327.4 -588.5,-615.8 -130.6,-497 198.8,-995.8 715.2,-1083.5 459.9,-78 914,255.3 992,732.7 56.5,343 -120.8,709.4 -432.6,892.5 -189.2,109.2 -475.6,140.4 -686.1,74.1 z" id="path4660"/><path sodipodi:nodetypes="cccccccccc" style="fill:#ffffff;fill-opacity:1" inkscape:connector-curvature="0" d="m 4595.3227,961.91864 c -58.5,-124.6999 -62.4,-144.1999 -62.4,-356.5999 2,-268.8998 37,-376.0998 181.2,-555.399799 101.2999,-126.6999 107.1999,-128.5999 360.4998,-175.399901 95.5,-15.6 229.9999,-56.5 300.0999,-87.6999 116.9,-52.6 134.4999,-56.5 218.2999,-35.1 300.1,71.9999 539.8,298.099901 627.5,584.5997 62.4,202.7 48.7,446.2999 -35.1,625.5998 -67.211,132.81736 -158.813,232.73746 -259.1,339.09986 -245.412,220.7833 -1063.2977,186.9431 -1330.9996,-339.09986 z" id="path4636-3"/></g></g></g></g></svg>