<?xml version="1.0" encoding="UTF-8" standalone="no"?>
<svg
   xmlns:dc="http://purl.org/dc/elements/1.1/"
   xmlns:cc="http://creativecommons.org/ns#"
   xmlns:rdf="http://www.w3.org/1999/02/22-rdf-syntax-ns#"
   xmlns:svg="http://www.w3.org/2000/svg"
   xmlns="http://www.w3.org/2000/svg"
   xmlns:xlink="http://www.w3.org/1999/xlink"
   xmlns:sodipodi="http://sodipodi.sourceforge.net/DTD/sodipodi-0.dtd"
   xmlns:inkscape="http://www.inkscape.org/namespaces/inkscape"
   id="svg6693"
   version="1.1"
   xml:space="preserve"
   width="169.02838"
   height="186.31958"
   viewBox="0 0 169.02838 186.31957"
   inkscape:version="0.92.2 (5c3e80d, 2017-08-06)"
   inkscape:export-xdpi="531.34509"
   inkscape:export-ydpi="531.34509"
   enable-background="new"
   sodipodi:docname="empty.svg"><sodipodi:namedview
     pagecolor="#ffffff"
     bordercolor="#666666"
     borderopacity="1"
     objecttolerance="10"
     gridtolerance="10"
     guidetolerance="10"
     inkscape:pageopacity="0"
     inkscape:pageshadow="2"
     inkscape:window-width="1327"
     inkscape:window-height="931"
     id="namedview60"
     showgrid="false"
     inkscape:zoom="2.5332817"
     inkscape:cx="-10.326225"
     inkscape:cy="143.32036"
     inkscape:window-x="593"
     inkscape:window-y="93"
     inkscape:window-maximized="0"
     inkscape:current-layer="layer3"
     showguides="false" /><metadata
     id="metadata6699"><rdf:RDF><cc:Work
         rdf:about=""><dc:format>image/svg+xml</dc:format><dc:type
           rdf:resource="http://purl.org/dc/dcmitype/StillImage" /><dc:title /></cc:Work></rdf:RDF></metadata><defs
     id="defs6697"><clipPath
       clipPathUnits="userSpaceOnUse"
       id="clipPath6707"><path
         d="m 0,870.236 623.626,0 L 623.626,0 0,0 0,870.236 Z"
         id="path6709" /></clipPath><clipPath
       clipPathUnits="userSpaceOnUse"
       id="clipPath6719"><path
         d="m 0,870.236 623.626,0 L 623.626,0 0,0 0,870.236 Z"
         id="path6721" /></clipPath><clipPath
       clipPathUnits="userSpaceOnUse"
       id="clipPath6731"><path
         d="m 0,870.236 623.626,0 L 623.626,0 0,0 0,870.236 Z"
         id="path6733" /></clipPath><clipPath
       id="clipPath4150"
       clipPathUnits="userSpaceOnUse"><path
         id="path4152"
         d="m 0,870.236 623.626,0 L 623.626,0 0,0 0,870.236 Z" /></clipPath><clipPath
       id="clipPath4162"
       clipPathUnits="userSpaceOnUse"><path
         id="path4164"
         d="m 0,870.236 623.626,0 L 623.626,0 0,0 0,870.236 Z" /></clipPath><clipPath
       id="clipPath4390"
       clipPathUnits="userSpaceOnUse"><path
         id="path4392"
         d="m 0,870.236 623.626,0 L 623.626,0 0,0 0,870.236 Z" /></clipPath><clipPath
       id="clipPath4398"
       clipPathUnits="userSpaceOnUse"><path
         id="path4400"
         d="m -80.514,14.173 -595.276,0 0,841.89 595.276,0 0,-841.89 z" /></clipPath><clipPath
       id="clipPath6707-4"
       clipPathUnits="userSpaceOnUse"><path
         id="path6709-2"
         d="m 0,870.236 623.626,0 L 623.626,0 0,0 0,870.236 Z" /></clipPath><clipPath
       id="clipPath6719-3"
       clipPathUnits="userSpaceOnUse"><path
         id="path6721-3"
         d="m 0,870.236 623.626,0 L 623.626,0 0,0 0,870.236 Z" /></clipPath><clipPath
       id="clipPath6731-1"
       clipPathUnits="userSpaceOnUse"><path
         id="path6733-5"
         d="m 0,870.236 623.626,0 L 623.626,0 0,0 0,870.236 Z" /></clipPath><clipPath
       clipPathUnits="userSpaceOnUse"
       id="clipPath4150-1"><path
         d="m 0,870.236 623.626,0 L 623.626,0 0,0 0,870.236 Z"
         id="path4152-0" /></clipPath><clipPath
       clipPathUnits="userSpaceOnUse"
       id="clipPath4162-3"><path
         d="m 0,870.236 623.626,0 L 623.626,0 0,0 0,870.236 Z"
         id="path4164-5" /></clipPath><clipPath
       clipPathUnits="userSpaceOnUse"
       id="clipPath4390-2"><path
         d="m 0,870.236 623.626,0 L 623.626,0 0,0 0,870.236 Z"
         id="path4392-2" /></clipPath><clipPath
       clipPathUnits="userSpaceOnUse"
       id="clipPath4398-1"><path
         d="m -80.514,14.173 -595.276,0 0,841.89 595.276,0 0,-841.89 z"
         id="path4400-4" /></clipPath><clipPath
       clipPathUnits="userSpaceOnUse"
       id="clipPath3427"><g
         id="g3429"
         transform="matrix(0.06483916,0,0,0.06709863,307.54738,474.29433)"
         style="fill:#ffffff;stroke:none;display:inline"
         clip-path="none"
         mask="none"><path
           id="path3431"
           d="m 1638,1790 c -4,-12 -99,-15 -155,-5 -35,6 -44,5 -49,-9 -8,-20 14,-77 37,-93 19,-14 32,-53 17,-53 -6,0 -8,-7 -4,-15 3,-8 1,-15 -3,-15 -5,0 -8,-11 -6,-25 1,-14 -1,-25 -5,-25 -4,0 -6,-11 -5,-24 5,-38 -9,-49 -30,-26 -23,25 -88,43 -130,36 -18,-4 -46,0 -66,8 -55,23 -207,55 -308,66 -133,13 -295,-9 -416,-58 -68,-27 -218,-101 -225,-110 -3,-4 -49,-38 -103,-75 -53,-38 -97,-72 -97,-78 0,-20 31,-20 73,0 24,12 48,21 54,21 5,0 34,13 64,30 30,16 61,30 69,30 8,0 27,6 42,14 14,8 43,19 65,26 21,7 43,17 50,22 27,22 165,49 271,55 61,3 112,3 112,0 0,-3 -26,-13 -58,-22 -31,-9 -59,-20 -62,-24 -3,-4 -48,-27 -100,-51 -107,-49 -225,-117 -281,-161 -20,-16 -41,-29 -46,-29 -17,0 -52,-56 -43,-70 7,-11 19,-9 65,8 31,12 70,32 88,45 18,13 51,31 74,40 23,9 61,25 85,35 101,45 174,69 187,64 11,-4 9,-8 -7,-15 -28,-13 -28,-18 3,-47 29,-27 31,-47 7,-76 -25,-31 -49,-37 -55,-13 -7,25 -24,24 -32,-1 -5,-15 -15,-20 -44,-20 -26,0 -44,-7 -59,-23 -25,-27 -28,-47 -8,-47 8,0 24,-13 35,-28 18,-26 19,-31 5,-51 -11,-15 -22,-20 -35,-16 -10,4 -24,1 -31,-4 -7,-6 -23,-19 -35,-29 -13,-10 -23,-30 -23,-47 -3,-48 -1,-55 15,-49 11,5 15,-1 15,-25 0,-24 4,-31 20,-31 13,0 18,-5 14,-15 -4,-8 -15,-15 -25,-15 -12,0 -19,-7 -19,-20 0,-26 30,-100 40,-100 5,0 10,-10 12,-23 2,-18 9,-22 36,-20 27,1 32,-2 27,-17 -3,-10 1,-24 8,-32 8,-7 14,-25 13,-38 -1,-21 4,-25 29,-26 45,-2 67,-14 111,-63 34,-38 39,-50 38,-90 -2,-53 -13,-111 -23,-111 -10,0 -12,-68 -1,-75 5,-3 26,-1 47,4 29,8 40,7 53,-4 26,-23 40,-18 40,14 0,17 5,33 11,37 8,4 7,9 -2,15 -12,8 -11,12 3,23 10,7 14,17 9,22 -4,5 -4,28 1,51 7,31 14,43 27,43 10,0 30,14 45,32 46,56 31,96 -51,136 -72,34 -90,60 -107,151 -18,100 -46,115 -80,44 -14,-31 -19,-34 -30,-22 -26,28 -36,97 -20,143 8,22 13,49 10,59 -2,10 1,17 10,17 8,0 14,3 14,8 0,4 18,26 40,49 24,24 36,44 30,48 -5,3 -10,10 -10,16 0,5 8,4 18,-2 15,-10 28,-7 67,12 26,13 50,32 53,41 2,9 9,15 16,12 6,-2 47,2 91,11 75,14 82,14 149,-6 38,-12 84,-23 100,-25 179,-21 201,-26 232,-49 17,-13 34,-22 37,-18 3,3 21,0 39,-7 18,-7 56,-16 83,-20 28,-5 66,-11 86,-15 26,-5 47,-2 72,10 19,9 41,15 49,14 7,-2 46,0 86,5 51,5 72,11 72,21 0,8 5,17 12,21 8,5 9,0 5,-15 -5,-21 -4,-22 12,-7 10,9 27,16 39,16 l 22,0 0,380 0,380 -284,0 c -174,0 -286,-4 -288,-10 z m -628,-454 c 0,-50 -30,-77 -44,-40 -6,16 -45,11 -57,-9 -4,-5 -10,-4 -15,4 -5,8 -22,21 -38,29 l -28,14 53,12 c 30,6 71,12 92,13 33,1 37,-2 37,-23 z m 874,-172 c 9,-3 16,-16 16,-29 0,-31 -49,-46 -94,-29 -19,7 -21,50 -3,57 18,8 63,8 81,1 z M 885,682 c 4,-26 9,-55 12,-64 8,-31 -13,-19 -40,22 -22,34 -24,45 -16,69 15,42 37,29 44,-27 z m 125,-177 c 56,-28 69,-55 45,-91 -23,-35 -57,-29 -65,11 -4,17 -14,44 -23,62 -27,52 -26,53 43,18 z"
           inkscape:connector-curvature="0" /></g></clipPath><radialGradient
       r="405"
       cy="-80"
       cx="-80"
       gradientUnits="userSpaceOnUse"
       id="Gradient1"><stop
         id="stop7"
         offset="0"
         style="stop-color:#fff;stop-opacity:0.31" /><stop
         id="stop9"
         offset="0.19"
         style="stop-color:#fff;stop-opacity:0.25" /><stop
         id="stop11"
         offset="0.6"
         style="stop-color:#6b6b6b;stop-opacity:0.125" /><stop
         id="stop13"
         offset="1"
         style="stop-color:#000;stop-opacity:0.125" /></radialGradient><clipPath
       id="shield_cut"><path
         d="M -298.5,-298.5 L 298.5,-298.5 L 298.5,-40 C 298.5,246.31 0,358.5 0,358.5 C 0,358.5 -298.5,246.31 -298.5,-40 L -298.5,-298.5 z"
         id="shield" /></clipPath><g
       id="f"><rect
         width="100"
         height="60"
         x="-50"
         y="-30"
         style="fill:#28166f"
         id="rect1964" /><g
         transform="translate(0,-20)"
         style="fill:#ffffff"
         id="g1966"><path
           d="M -1.2116,27.8178 C -1.2116,22.1752 -2.0914,20.4715 -4.5417,13.9804 C -5.709,10.8879 -5.0241,7.1025 -2.8585,3.6009 C -2.0824,2.346 -1.1136,1.2135 0,0 C 1.1136,1.2135 2.0824,2.346 2.8585,3.6009 C 5.0241,7.1025 5.709,10.8879 4.5417,13.9804 C 2.0914,20.4715 1.2116,22.1752 1.2116,27.8178 L -1.2116,27.8178 z"
           id="path1968" /><path
           d="M 2.9221,27.6725 C 2.9221,21.7209 5.2387,17.8293 8.5007,16.6604 C 9.9492,16.1414 11.8076,16.3869 13.5193,18.107 C 15.6379,20.236 16.2551,26.1004 10.0355,27.2283 C 10.6938,26.2724 10.6546,24.1467 9.3215,23.4409 C 8.3311,22.9165 7.209,23.1877 6.6462,23.5643 C 5.8225,24.1156 4.9171,25.6702 4.9672,27.6725 L 2.9221,27.6725 z"
           id="rwi" /><path
           d="M 1.7773,30.1835 C 1.7899,32.1913 2.7952,33.5181 4.5165,34.257 C 4.2948,34.9549 3.2566,36.3776 1.8314,36.2812 C 1.5499,37.787 1.2822,38.6324 0,40 C -1.2822,38.6324 -1.5499,37.787 -1.8314,36.2812 C -3.2566,36.3776 -4.2948,34.9549 -4.5165,34.257 C -2.7952,33.5181 -1.7899,32.1913 -1.7773,30.1835 L 1.7773,30.1835 z"
           id="path1971" /><use
           transform="scale(-1,1)"
           id="use1973"
           x="0"
           y="0"
           width="800"
           height="400"
           xlink:href="#rwi" /><rect
           width="15.846"
           height="3.2179999"
           x="-7.9229999"
           y="27.33077"
           id="rect1975" /></g></g></defs><g
     inkscape:groupmode="layer"
     id="layer3"
     inkscape:label="Fodn"
     style="display:inline"><g
       transform="matrix(1.2945423,0,0,1.2945423,-418.17995,-611.33282)"
       id="lion"
       clip-path="none"
       mask="none"><title
         id="title17040">lion</title><g
         id="g5080"
         transform="matrix(1.25,0,0,-1.25,-1.3964844e-4,1275.3973)"><path
           inkscape:connector-curvature="0"
           d="m 288.7891,571.9068 0,0 -21.482,-12.403 c 0.994,-1.721 2.433,-3.185 4.214,-4.213 l 17.268,-9.97 0,26.586 z"
           style="fill:#4c9edc;fill-opacity:1;fill-rule:nonzero;stroke:none"
           id="path5082-8" /><path
           inkscape:connector-curvature="0"
           d="m 265.7649,585.1998 0,-19.939 c 0,-2.057 0.549,-4.035 1.542,-5.756 l 21.482,12.402 -23.024,13.293 z"
           style="fill:#498cd2;fill-opacity:1;fill-rule:nonzero;stroke:none"
           id="path5084-8" /><path
           inkscape:connector-curvature="0"
           d="m 288.7891,571.9068 0,26.586 -23.024,-13.293 0,0 23.024,-13.293 z"
           style="fill:#487dc8;fill-opacity:1;fill-rule:nonzero;stroke:none"
           id="path5086-9" /><path
           inkscape:connector-curvature="0"
           d="m 288.7891,545.3209 0,0 17.268,-9.97 c 1.781,-1.028 3.769,-1.542 5.756,-1.542 l 0,24.805 -23.024,-13.293 z"
           style="fill:#5295d6;fill-opacity:1;fill-rule:nonzero;stroke:none"
           id="path5088-6" /><path
           inkscape:connector-curvature="0"
           d="m 267.3072,610.8954 c -0.994,-1.721 -1.542,-3.7 -1.542,-5.756 l 0,-19.94 23.024,13.293 -21.482,12.403 z"
           style="fill:#476bbc;fill-opacity:1;fill-rule:nonzero;stroke:none"
           id="path5090-0" /><path
           inkscape:connector-curvature="0"
           d="m 334.8373,545.3209 0,26.586 -23.024,-13.293 23.024,-13.293 z"
           style="fill:#7f9ad6;fill-opacity:1;fill-rule:nonzero;stroke:none"
           id="path5092-2" /><path
           inkscape:connector-curvature="0"
           d="m 356.3192,559.5043 c 0.994,1.721 1.542,3.7 1.542,5.756 l 0,19.939 -23.024,-13.293 21.482,-12.402 z"
           style="fill:#727ebd;fill-opacity:1;fill-rule:nonzero;stroke:none"
           id="path5094-5" /><path
           inkscape:connector-curvature="0"
           d="m 334.8373,571.9068 0,-26.586 17.268,9.97 c 1.781,1.028 3.22,2.492 4.214,4.214 l -21.482,12.402 z"
           style="fill:#8f9fd8;fill-opacity:1;fill-rule:nonzero;stroke:none"
           id="path5096-0" /><path
           inkscape:connector-curvature="0"
           d="m 334.8373,598.4928 0,0 0,-26.586 23.024,13.293 0,0 -23.024,13.293 z"
           style="fill:#425da2;fill-opacity:1;fill-rule:nonzero;stroke:none"
           id="path5098-9" /><path
           inkscape:connector-curvature="0"
           d="m 311.8132,558.6138 0,-24.805 c 1.987,0 3.975,0.514 5.756,1.542 l 17.268,9.97 -23.024,13.293 z"
           style="fill:#6495d5;fill-opacity:1;fill-rule:nonzero;stroke:none"
           id="path5100-5" /><path
           inkscape:connector-curvature="0"
           d="m 311.8132,611.7858 -23.024,13.293 0,-26.586 23.024,13.293 z"
           style="fill:#3a64ad;fill-opacity:1;fill-rule:nonzero;stroke:none"
           id="path5102-1" /><path
           inkscape:connector-curvature="0"
           d="m 311.8132,611.7858 23.024,-13.293 0,26.586 -23.024,-13.293 z"
           style="fill:#3a61a3;fill-opacity:1;fill-rule:nonzero;stroke:none"
           id="path5104-7" /><path
           inkscape:connector-curvature="0"
           d="m 267.3072,610.8954 21.482,-12.403 0,26.586 -17.268,-9.969 c -1.781,-1.029 -3.22,-2.493 -4.214,-4.214"
           style="fill:#32549d;fill-opacity:1;fill-rule:nonzero;stroke:none"
           id="path5106-7" /><path
           inkscape:connector-curvature="0"
           d="m 334.8373,598.4928 23.024,-13.293 0,19.939 c 0,2.057 -0.548,4.035 -1.542,5.757 l -21.482,-12.403 z"
           style="fill:#2f5296;fill-opacity:1;fill-rule:nonzero;stroke:none"
           id="path5108-7" /><path
           inkscape:connector-curvature="0"
           d="m 334.8373,598.4928 21.482,12.403 c -0.994,1.721 -2.433,3.185 -4.214,4.213 l -17.268,9.97 0,-26.586 z"
           style="fill:#325295;fill-opacity:1;fill-rule:nonzero;stroke:none"
           id="path5110-4" /><path
           inkscape:connector-curvature="0"
           d="m 334.8373,625.0788 -17.269,9.97 c -1.781,1.028 -3.768,1.542 -5.755,1.542 l 0,-24.805 23.024,13.293 z"
           style="fill:#4379c6;fill-opacity:1;fill-rule:nonzero;stroke:none"
           id="path5112-0" /><path
           inkscape:connector-curvature="0"
           d="m 311.8132,611.7858 0,24.805 c -1.987,0 -3.975,-0.514 -5.755,-1.542 l -17.269,-9.97 23.024,-13.293 z"
           style="fill:#3f73bd;fill-opacity:1;fill-rule:nonzero;stroke:none"
           id="path5114-8" /><path
           inkscape:connector-curvature="0"
           d="m 288.7891,545.3209 23.024,13.293 -23.024,13.293 0,-26.586 z"
           style="fill:#50a0dd;fill-opacity:1;fill-rule:nonzero;stroke:none"
           id="path5116-4" /><path
           inkscape:connector-curvature="0"
           id="path5118-4"
           style="fill:#425da2;fill-opacity:1;fill-rule:nonzero;stroke:none"
           d="m 288.7891,598.4929 0,0 0,-26.586 23.024,13.293 0,0 -23.024,13.293 z" /><path
           inkscape:connector-curvature="0"
           id="path5120-6"
           style="fill:#487dc8;fill-opacity:1;fill-rule:nonzero;stroke:none"
           d="m 334.8371,571.9069 0,26.586 -23.024,-13.293 0,0 23.024,-13.293 z" /><path
           inkscape:connector-curvature="0"
           id="path5122-9"
           transform="matrix(0.8,0,0,-0.8,1.1171875e-4,1020.3178)"
           d="m 389.76562,543.89648 0,0.002 -28.77929,16.61523 28.77929,16.61719 28.78126,-16.61719 -28.78126,-16.61719 z"
           style="fill:#3f73bd;fill-opacity:1;fill-rule:nonzero;stroke:none" /><path
           inkscape:connector-curvature="0"
           id="path5124-5"
           style="fill:#2f5296;fill-opacity:1;fill-rule:nonzero;stroke:none"
           d="m 311.8133,585.1998 0,26.586 -23.024,-13.293 23.024,-13.293 z" /><path
           inkscape:connector-curvature="0"
           id="path5126-1"
           style="fill:#498cd2;fill-opacity:1;fill-rule:nonzero;stroke:none"
           d="m 311.8132,585.1998 23.024,13.293 -23.024,13.293 0,-26.586 z" /></g><path
         style="fill:#000000"
         d=""
         id="path3146"
         inkscape:connector-curvature="0" /></g></g></svg>