<?xml version="1.0" encoding="UTF-8" standalone="no"?>
<svg
   xmlns:dc="http://purl.org/dc/elements/1.1/"
   xmlns:cc="http://creativecommons.org/ns#"
   xmlns:rdf="http://www.w3.org/1999/02/22-rdf-syntax-ns#"
   xmlns:svg="http://www.w3.org/2000/svg"
   xmlns="http://www.w3.org/2000/svg"
   xmlns:sodipodi="http://sodipodi.sourceforge.net/DTD/sodipodi-0.dtd"
   xmlns:inkscape="http://www.inkscape.org/namespaces/inkscape"
   id="svg6693"
   version="1.1"
   xml:space="preserve"
   width="169.02838"
   height="186.31958"
   viewBox="0 0 169.02838 186.31957"
   inkscape:version="0.91 r13725"
   inkscape:export-xdpi="531.34509"
   inkscape:export-ydpi="531.34509"
>
<sodipodi:namedview
     pagecolor="#ffffff"
     bordercolor="#666666"
     borderopacity="1"
     objecttolerance="10"
     gridtolerance="10"
     guidetolerance="10"
     inkscape:pageopacity="0"
     inkscape:pageshadow="2"
     inkscape:window-width="1869"
     inkscape:window-height="1056"
     id="namedview60"
     showgrid="false"
     inkscape:zoom="0.44782518"
     inkscape:cx="616.33909"
     inkscape:cy="376.80364"
     inkscape:window-x="51"
     inkscape:window-y="24"
     inkscape:window-maximized="1"
     inkscape:current-layer="lion" /><metadata
     id="metadata6699"><rdf:RDF><cc:Work
         rdf:about=""><dc:format>image/svg+xml</dc:format><dc:type
           rdf:resource="http://purl.org/dc/dcmitype/StillImage" /><dc:title /></cc:Work></rdf:RDF></metadata><defs
     id="defs6697"><clipPath
       clipPathUnits="userSpaceOnUse"
       id="clipPath6707"><path
         d="m 0,870.236 623.626,0 L 623.626,0 0,0 0,870.236 Z"
         id="path6709" /></clipPath><clipPath
       clipPathUnits="userSpaceOnUse"
       id="clipPath6719"><path
         d="m 0,870.236 623.626,0 L 623.626,0 0,0 0,870.236 Z"
         id="path6721" /></clipPath><clipPath
       clipPathUnits="userSpaceOnUse"
       id="clipPath6731"><path
         d="m 0,870.236 623.626,0 L 623.626,0 0,0 0,870.236 Z"
         id="path6733" /></clipPath><clipPath
       id="clipPath4150"
       clipPathUnits="userSpaceOnUse"><path
         id="path4152"
         d="m 0,870.236 623.626,0 L 623.626,0 0,0 0,870.236 Z" /></clipPath><clipPath
       id="clipPath4162"
       clipPathUnits="userSpaceOnUse"><path
         id="path4164"
         d="m 0,870.236 623.626,0 L 623.626,0 0,0 0,870.236 Z" /></clipPath><clipPath
       id="clipPath4390"
       clipPathUnits="userSpaceOnUse"><path
         id="path4392"
         d="m 0,870.236 623.626,0 L 623.626,0 0,0 0,870.236 Z" /></clipPath><clipPath
       id="clipPath4398"
       clipPathUnits="userSpaceOnUse"><path
         id="path4400"
         d="m -80.514,14.173 -595.276,0 0,841.89 595.276,0 0,-841.89 z" /></clipPath><clipPath
       id="clipPath6707-4"
       clipPathUnits="userSpaceOnUse"><path
         id="path6709-2"
         d="m 0,870.236 623.626,0 L 623.626,0 0,0 0,870.236 Z" /></clipPath><clipPath
       id="clipPath6719-3"
       clipPathUnits="userSpaceOnUse"><path
         id="path6721-3"
         d="m 0,870.236 623.626,0 L 623.626,0 0,0 0,870.236 Z" /></clipPath><clipPath
       id="clipPath6731-1"
       clipPathUnits="userSpaceOnUse"><path
         id="path6733-5"
         d="m 0,870.236 623.626,0 L 623.626,0 0,0 0,870.236 Z" /></clipPath><clipPath
       clipPathUnits="userSpaceOnUse"
       id="clipPath4150-1"><path
         d="m 0,870.236 623.626,0 L 623.626,0 0,0 0,870.236 Z"
         id="path4152-0" /></clipPath><clipPath
       clipPathUnits="userSpaceOnUse"
       id="clipPath4162-3"><path
         d="m 0,870.236 623.626,0 L 623.626,0 0,0 0,870.236 Z"
         id="path4164-5" /></clipPath><clipPath
       clipPathUnits="userSpaceOnUse"
       id="clipPath4390-2"><path
         d="m 0,870.236 623.626,0 L 623.626,0 0,0 0,870.236 Z"
         id="path4392-2" /></clipPath><clipPath
       clipPathUnits="userSpaceOnUse"
       id="clipPath4398-1"><path
         d="m -80.514,14.173 -595.276,0 0,841.89 595.276,0 0,-841.89 z"
         id="path4400-4" /></clipPath></defs><g
     transform="matrix(1.2945423,0,0,1.2945423,-420.0547,-610.93861)"
     id="lion"><title
       id="title17040">lion</title><g
       id="g5080"
       transform="matrix(1.25,0,0,-1.25,-1.3964844e-4,1275.3973)"><path
         d="m 288.7891,571.9068 0,0 -21.482,-12.403 c 0.994,-1.721 2.433,-3.185 4.214,-4.213 l 17.268,-9.97 0,26.586 z"
         style="fill:#4c9edc;fill-opacity:1;fill-rule:nonzero;stroke:none"
         id="path5082-8" /><path
         d="m 265.7649,585.1998 0,-19.939 c 0,-2.057 0.549,-4.035 1.542,-5.756 l 21.482,12.402 -23.024,13.293 z"
         style="fill:#498cd2;fill-opacity:1;fill-rule:nonzero;stroke:none"
         id="path5084-8" /><path
         d="m 288.7891,571.9068 0,26.586 -23.024,-13.293 0,0 23.024,-13.293 z"
         style="fill:#487dc8;fill-opacity:1;fill-rule:nonzero;stroke:none"
         id="path5086-9" /><path
         d="m 288.7891,545.3209 0,0 17.268,-9.97 c 1.781,-1.028 3.769,-1.542 5.756,-1.542 l 0,24.805 -23.024,-13.293 z"
         style="fill:#5295d6;fill-opacity:1;fill-rule:nonzero;stroke:none"
         id="path5088-6" /><path
         d="m 267.3072,610.8954 c -0.994,-1.721 -1.542,-3.7 -1.542,-5.756 l 0,-19.94 23.024,13.293 -21.482,12.403 z"
         style="fill:#476bbc;fill-opacity:1;fill-rule:nonzero;stroke:none"
         id="path5090-0" /><path
         d="m 334.8373,545.3209 0,26.586 -23.024,-13.293 23.024,-13.293 z"
         style="fill:#7f9ad6;fill-opacity:1;fill-rule:nonzero;stroke:none"
         id="path5092-2" /><path
         d="m 356.3192,559.5043 c 0.994,1.721 1.542,3.7 1.542,5.756 l 0,19.939 -23.024,-13.293 21.482,-12.402 z"
         style="fill:#727ebd;fill-opacity:1;fill-rule:nonzero;stroke:none"
         id="path5094-5" /><path
         d="m 334.8373,571.9068 0,-26.586 17.268,9.97 c 1.781,1.028 3.22,2.492 4.214,4.214 l -21.482,12.402 z"
         style="fill:#8f9fd8;fill-opacity:1;fill-rule:nonzero;stroke:none"
         id="path5096-0" /><path
         d="m 334.8373,598.4928 0,0 0,-26.586 23.024,13.293 0,0 -23.024,13.293 z"
         style="fill:#425da2;fill-opacity:1;fill-rule:nonzero;stroke:none"
         id="path5098-9" /><path
         d="m 311.8132,558.6138 0,-24.805 c 1.987,0 3.975,0.514 5.756,1.542 l 17.268,9.97 -23.024,13.293 z"
         style="fill:#6495d5;fill-opacity:1;fill-rule:nonzero;stroke:none"
         id="path5100-5" /><path
         d="m 311.8132,611.7858 -23.024,13.293 0,-26.586 23.024,13.293 z"
         style="fill:#3a64ad;fill-opacity:1;fill-rule:nonzero;stroke:none"
         id="path5102-1" /><path
         d="m 311.8132,611.7858 23.024,-13.293 0,26.586 -23.024,-13.293 z"
         style="fill:#3a61a3;fill-opacity:1;fill-rule:nonzero;stroke:none"
         id="path5104-7" /><path
         d="m 267.3072,610.8954 21.482,-12.403 0,26.586 -17.268,-9.969 c -1.781,-1.029 -3.22,-2.493 -4.214,-4.214"
         style="fill:#32549d;fill-opacity:1;fill-rule:nonzero;stroke:none"
         id="path5106-7" /><path
         d="m 334.8373,598.4928 23.024,-13.293 0,19.939 c 0,2.057 -0.548,4.035 -1.542,5.757 l -21.482,-12.403 z"
         style="fill:#2f5296;fill-opacity:1;fill-rule:nonzero;stroke:none"
         id="path5108-7" /><path
         d="m 334.8373,598.4928 21.482,12.403 c -0.994,1.721 -2.433,3.185 -4.214,4.213 l -17.268,9.97 0,-26.586 z"
         style="fill:#325295;fill-opacity:1;fill-rule:nonzero;stroke:none"
         id="path5110-4" /><path
         d="m 334.8373,625.0788 -17.269,9.97 c -1.781,1.028 -3.768,1.542 -5.755,1.542 l 0,-24.805 23.024,13.293 z"
         style="fill:#4379c6;fill-opacity:1;fill-rule:nonzero;stroke:none"
         id="path5112-0" /><path
         d="m 311.8132,611.7858 0,24.805 c -1.987,0 -3.975,-0.514 -5.755,-1.542 l -17.269,-9.97 23.024,-13.293 z"
         style="fill:#3f73bd;fill-opacity:1;fill-rule:nonzero;stroke:none"
         id="path5114-8" /><path
         d="m 288.7891,545.3209 23.024,13.293 -23.024,13.293 0,-26.586 z"
         style="fill:#50a0dd;fill-opacity:1;fill-rule:nonzero;stroke:none"
         id="path5116-4" /><path
         id="path5118-4"
         style="fill:#425da2;fill-opacity:1;fill-rule:nonzero;stroke:none"
         d="m 288.7891,598.4929 0,0 0,-26.586 23.024,13.293 0,0 -23.024,13.293 z" /><path
         id="path5120-6"
         style="fill:#487dc8;fill-opacity:1;fill-rule:nonzero;stroke:none"
         d="m 334.8371,571.9069 0,26.586 -23.024,-13.293 0,0 23.024,-13.293 z" /><path
         id="path5122-9"
         transform="matrix(0.8,0,0,-0.8,1.1171875e-4,1020.3178)"
         d="m 389.76562,543.89648 0,0.002 -28.77929,16.61523 28.77929,16.61719 28.78126,-16.61719 -28.78126,-16.61719 z"
         style="fill:#3f73bd;fill-opacity:1;fill-rule:nonzero;stroke:none" /><path
         id="path5124-5"
         style="fill:#2f5296;fill-opacity:1;fill-rule:nonzero;stroke:none"
         d="m 311.8133,585.1998 0,26.586 -23.024,-13.293 23.024,-13.293 z" /><path
         id="path5126-1"
         style="fill:#498cd2;fill-opacity:1;fill-rule:nonzero;stroke:none"
         d="m 311.8132,585.1998 23.024,13.293 -23.024,13.293 0,-26.586 z" /></g><path
       inkscape:connector-curvature="0"
       class="st17"
       d="m 433.86101,532.702 c -0.17752,-0.35482 -4.96732,-6.91876 -11.17643,-6.91876 -1.24185,0 -2.30626,0.17729 -3.54809,0.35482 3.90288,-3.54809 6.56394,-9.75723 6.56394,-19.86925 0,-0.88703 -0.53221,-1.77403 -1.41923,-1.95144 -0.88701,-0.35482 -1.77403,0 -2.30624,0.70961 -7.62838,10.99905 -17.03078,10.99905 -17.91781,10.99905 -3.37067,-3.9029 -9.225,-5.32213 -14.36972,-5.32213 -5.14471,0 -9.5798,1.77405 -13.4827,5.32213 -0.887,0 -10.28943,0 -17.91779,-10.99905 -0.5322,-0.70961 -1.41923,-1.06443 -2.30626,-0.70961 -0.88702,0.35479 -1.41923,1.06441 -1.41923,1.95144 0,10.28943 2.83847,16.67596 6.91876,20.04663 -1.41924,-0.35479 -3.01586,-0.70961 -4.6125,-0.70961 -6.20914,0 -10.99905,6.56396 -11.17646,6.91876 -0.53221,0.70961 -0.53221,1.59664 0,2.48364 0.1773,0.35482 4.96732,6.91876 11.17646,6.91876 3.37067,0 6.56394,-1.06441 8.51538,-2.66106 l 0,19.69184 c 0,13.66011 10.99905,24.65916 24.65916,24.65916 13.6601,0 24.65913,-10.99905 24.65913,-24.65916 l 0,-18.98222 c 2.12885,1.24182 4.78991,2.12885 7.80579,2.12885 6.20914,0 10.99905,-6.56394 11.17643,-6.91876 0.70962,-0.70961 0.70962,-1.77403 0.17753,-2.48364 z m -67.41348,-3.37068 c 0,0 0,0 0,0 0,0 0,0 0,0 0.17729,0 0.17729,0 0,0 z m 11.53125,14.72452 c -2.12885,0 -3.9029,1.77403 -3.9029,-0.3548 0,-2.12885 1.77405,-3.9029 3.9029,-3.9029 2.12885,0 3.90288,1.77405 3.90288,3.9029 0,1.95145 -1.77403,0.3548 -3.90288,0.3548 z m 7.62836,30.15868 c 0,0.70962 -0.53221,1.24183 -1.24183,1.24183 -0.70962,0 -1.24182,-0.53221 -1.24182,-1.24183 l 0,-2.12885 c 0,-0.70961 0.5322,-1.24182 1.24182,-1.24182 0.70962,0 1.24183,0.53221 1.24183,1.24182 l 0,2.12885 z m 10.99904,0 c 0,0.70962 -0.5322,1.24183 -1.24182,1.24183 -0.70962,0 -1.24182,-0.53221 -1.24182,-1.24183 l 0,-2.12885 c 0,-0.70961 0.5322,-1.24182 1.24182,-1.24182 0.70962,0 1.24182,0.53221 1.24182,1.24182 l 0,2.12885 z m 5.67694,-30.15868 c -2.12885,0 -3.90288,1.77403 -3.90288,-0.3548 0,-2.12885 1.77403,-3.9029 3.90288,-3.9029 2.12885,0 3.90288,1.77405 3.90288,3.9029 0,1.95145 -1.59664,0.3548 -3.90288,0.3548 z"
       id="path59"
       style="fill:#ffffff;fill-opacity:1" /></g></svg>
