<?xml version="1.0" encoding="UTF-8" standalone="no"?>
<svg
   xmlns:dc="http://purl.org/dc/elements/1.1/"
   xmlns:cc="http://creativecommons.org/ns#"
   xmlns:rdf="http://www.w3.org/1999/02/22-rdf-syntax-ns#"
   xmlns:svg="http://www.w3.org/2000/svg"
   xmlns="http://www.w3.org/2000/svg"
   xmlns:sodipodi="http://sodipodi.sourceforge.net/DTD/sodipodi-0.dtd"
   xmlns:inkscape="http://www.inkscape.org/namespaces/inkscape"
   id="svg6693"
   version="1.1"
   xml:space="preserve"
   width="169.02838"
   height="186.31958"
   viewBox="0 0 169.02838 186.31957"
   inkscape:version="0.91 r13725"
   inkscape:export-xdpi="532.45001"
   inkscape:export-ydpi="532.45001"
   ><sodipodi:namedview
     pagecolor="#ffffff"
     bordercolor="#666666"
     borderopacity="1"
     objecttolerance="10"
     gridtolerance="10"
     guidetolerance="10"
     inkscape:pageopacity="0"
     inkscape:pageshadow="2"
     inkscape:window-width="1869"
     inkscape:window-height="1056"
     id="namedview60"
     showgrid="false"
     inkscape:zoom="3.5826014"
     inkscape:cx="74.221103"
     inkscape:cy="94.995637"
     inkscape:window-x="51"
     inkscape:window-y="24"
     inkscape:window-maximized="1"
     inkscape:current-layer="lion" /><metadata
     id="metadata6699"><rdf:RDF><cc:Work
         rdf:about=""><dc:format>image/svg+xml</dc:format><dc:type
           rdf:resource="http://purl.org/dc/dcmitype/StillImage" /><dc:title /></cc:Work></rdf:RDF></metadata><defs
     id="defs6697"><clipPath
       clipPathUnits="userSpaceOnUse"
       id="clipPath6707"><path
         d="m 0,870.236 623.626,0 L 623.626,0 0,0 0,870.236 Z"
         id="path6709" /></clipPath><clipPath
       clipPathUnits="userSpaceOnUse"
       id="clipPath6719"><path
         d="m 0,870.236 623.626,0 L 623.626,0 0,0 0,870.236 Z"
         id="path6721" /></clipPath><clipPath
       clipPathUnits="userSpaceOnUse"
       id="clipPath6731"><path
         d="m 0,870.236 623.626,0 L 623.626,0 0,0 0,870.236 Z"
         id="path6733" /></clipPath><clipPath
       id="clipPath4150"
       clipPathUnits="userSpaceOnUse"><path
         id="path4152"
         d="m 0,870.236 623.626,0 L 623.626,0 0,0 0,870.236 Z" /></clipPath><clipPath
       id="clipPath4162"
       clipPathUnits="userSpaceOnUse"><path
         id="path4164"
         d="m 0,870.236 623.626,0 L 623.626,0 0,0 0,870.236 Z" /></clipPath><clipPath
       id="clipPath4390"
       clipPathUnits="userSpaceOnUse"><path
         id="path4392"
         d="m 0,870.236 623.626,0 L 623.626,0 0,0 0,870.236 Z" /></clipPath><clipPath
       id="clipPath4398"
       clipPathUnits="userSpaceOnUse"><path
         id="path4400"
         d="m -80.514,14.173 -595.276,0 0,841.89 595.276,0 0,-841.89 z" /></clipPath><clipPath
       id="clipPath6707-4"
       clipPathUnits="userSpaceOnUse"><path
         id="path6709-2"
         d="m 0,870.236 623.626,0 L 623.626,0 0,0 0,870.236 Z" /></clipPath><clipPath
       id="clipPath6719-3"
       clipPathUnits="userSpaceOnUse"><path
         id="path6721-3"
         d="m 0,870.236 623.626,0 L 623.626,0 0,0 0,870.236 Z" /></clipPath><clipPath
       id="clipPath6731-1"
       clipPathUnits="userSpaceOnUse"><path
         id="path6733-5"
         d="m 0,870.236 623.626,0 L 623.626,0 0,0 0,870.236 Z" /></clipPath><clipPath
       clipPathUnits="userSpaceOnUse"
       id="clipPath4150-1"><path
         d="m 0,870.236 623.626,0 L 623.626,0 0,0 0,870.236 Z"
         id="path4152-0" /></clipPath><clipPath
       clipPathUnits="userSpaceOnUse"
       id="clipPath4162-3"><path
         d="m 0,870.236 623.626,0 L 623.626,0 0,0 0,870.236 Z"
         id="path4164-5" /></clipPath><clipPath
       clipPathUnits="userSpaceOnUse"
       id="clipPath4390-2"><path
         d="m 0,870.236 623.626,0 L 623.626,0 0,0 0,870.236 Z"
         id="path4392-2" /></clipPath><clipPath
       clipPathUnits="userSpaceOnUse"
       id="clipPath4398-1"><path
         d="m -80.514,14.173 -595.276,0 0,841.89 595.276,0 0,-841.89 z"
         id="path4400-4" /></clipPath></defs><g
     transform="matrix(1.2945423,0,0,1.2945423,-420.0547,-610.93861)"
     id="lion"><title
       id="title17040">lion</title><g
       id="g5080"
       transform="matrix(1.25,0,0,-1.25,-1.3964844e-4,1275.3973)"><path
         d="m 288.7891,571.9068 0,0 -21.482,-12.403 c 0.994,-1.721 2.433,-3.185 4.214,-4.213 l 17.268,-9.97 0,26.586 z"
         style="fill:#4c9edc;fill-opacity:1;fill-rule:nonzero;stroke:none"
         id="path5082-8" /><path
         d="m 265.7649,585.1998 0,-19.939 c 0,-2.057 0.549,-4.035 1.542,-5.756 l 21.482,12.402 -23.024,13.293 z"
         style="fill:#498cd2;fill-opacity:1;fill-rule:nonzero;stroke:none"
         id="path5084-8" /><path
         d="m 288.7891,571.9068 0,26.586 -23.024,-13.293 0,0 23.024,-13.293 z"
         style="fill:#487dc8;fill-opacity:1;fill-rule:nonzero;stroke:none"
         id="path5086-9" /><path
         d="m 288.7891,545.3209 0,0 17.268,-9.97 c 1.781,-1.028 3.769,-1.542 5.756,-1.542 l 0,24.805 -23.024,-13.293 z"
         style="fill:#5295d6;fill-opacity:1;fill-rule:nonzero;stroke:none"
         id="path5088-6" /><path
         d="m 267.3072,610.8954 c -0.994,-1.721 -1.542,-3.7 -1.542,-5.756 l 0,-19.94 23.024,13.293 -21.482,12.403 z"
         style="fill:#476bbc;fill-opacity:1;fill-rule:nonzero;stroke:none"
         id="path5090-0" /><path
         d="m 334.8373,545.3209 0,26.586 -23.024,-13.293 23.024,-13.293 z"
         style="fill:#7f9ad6;fill-opacity:1;fill-rule:nonzero;stroke:none"
         id="path5092-2" /><path
         d="m 356.3192,559.5043 c 0.994,1.721 1.542,3.7 1.542,5.756 l 0,19.939 -23.024,-13.293 21.482,-12.402 z"
         style="fill:#727ebd;fill-opacity:1;fill-rule:nonzero;stroke:none"
         id="path5094-5" /><path
         d="m 334.8373,571.9068 0,-26.586 17.268,9.97 c 1.781,1.028 3.22,2.492 4.214,4.214 l -21.482,12.402 z"
         style="fill:#8f9fd8;fill-opacity:1;fill-rule:nonzero;stroke:none"
         id="path5096-0" /><path
         d="m 334.8373,598.4928 0,0 0,-26.586 23.024,13.293 0,0 -23.024,13.293 z"
         style="fill:#425da2;fill-opacity:1;fill-rule:nonzero;stroke:none"
         id="path5098-9" /><path
         d="m 311.8132,558.6138 0,-24.805 c 1.987,0 3.975,0.514 5.756,1.542 l 17.268,9.97 -23.024,13.293 z"
         style="fill:#6495d5;fill-opacity:1;fill-rule:nonzero;stroke:none"
         id="path5100-5" /><path
         d="m 311.8132,611.7858 -23.024,13.293 0,-26.586 23.024,13.293 z"
         style="fill:#3a64ad;fill-opacity:1;fill-rule:nonzero;stroke:none"
         id="path5102-1" /><path
         d="m 311.8132,611.7858 23.024,-13.293 0,26.586 -23.024,-13.293 z"
         style="fill:#3a61a3;fill-opacity:1;fill-rule:nonzero;stroke:none"
         id="path5104-7" /><path
         d="m 267.3072,610.8954 21.482,-12.403 0,26.586 -17.268,-9.969 c -1.781,-1.029 -3.22,-2.493 -4.214,-4.214"
         style="fill:#32549d;fill-opacity:1;fill-rule:nonzero;stroke:none"
         id="path5106-7" /><path
         d="m 334.8373,598.4928 23.024,-13.293 0,19.939 c 0,2.057 -0.548,4.035 -1.542,5.757 l -21.482,-12.403 z"
         style="fill:#2f5296;fill-opacity:1;fill-rule:nonzero;stroke:none"
         id="path5108-7" /><path
         d="m 334.8373,598.4928 21.482,12.403 c -0.994,1.721 -2.433,3.185 -4.214,4.213 l -17.268,9.97 0,-26.586 z"
         style="fill:#325295;fill-opacity:1;fill-rule:nonzero;stroke:none"
         id="path5110-4" /><path
         d="m 334.8373,625.0788 -17.269,9.97 c -1.781,1.028 -3.768,1.542 -5.755,1.542 l 0,-24.805 23.024,13.293 z"
         style="fill:#4379c6;fill-opacity:1;fill-rule:nonzero;stroke:none"
         id="path5112-0" /><path
         d="m 311.8132,611.7858 0,24.805 c -1.987,0 -3.975,-0.514 -5.755,-1.542 l -17.269,-9.97 23.024,-13.293 z"
         style="fill:#3f73bd;fill-opacity:1;fill-rule:nonzero;stroke:none"
         id="path5114-8" /><path
         d="m 288.7891,545.3209 23.024,13.293 -23.024,13.293 0,-26.586 z"
         style="fill:#50a0dd;fill-opacity:1;fill-rule:nonzero;stroke:none"
         id="path5116-4" /><path
         id="path5118-4"
         style="fill:#425da2;fill-opacity:1;fill-rule:nonzero;stroke:none"
         d="m 288.7891,598.4929 0,0 0,-26.586 23.024,13.293 0,0 -23.024,13.293 z" /><path
         id="path5120-6"
         style="fill:#487dc8;fill-opacity:1;fill-rule:nonzero;stroke:none"
         d="m 334.8371,571.9069 0,26.586 -23.024,-13.293 0,0 23.024,-13.293 z" /><path
         id="path5122-9"
         transform="matrix(0.8,0,0,-0.8,1.1171875e-4,1020.3178)"
         d="m 389.76562,543.89648 0,0.002 -28.77929,16.61523 28.77929,16.61719 28.78126,-16.61719 -28.78126,-16.61719 z"
         style="fill:#3f73bd;fill-opacity:1;fill-rule:nonzero;stroke:none" /><path
         id="path5124-5"
         style="fill:#2f5296;fill-opacity:1;fill-rule:nonzero;stroke:none"
         d="m 311.8133,585.1998 0,26.586 -23.024,-13.293 23.024,-13.293 z" /><path
         id="path5126-1"
         style="fill:#498cd2;fill-opacity:1;fill-rule:nonzero;stroke:none"
         d="m 311.8132,585.1998 23.024,13.293 -23.024,13.293 0,-26.586 z" /></g><path
       d="m 366.04645,502.92829 c 0.0693,0.80656 0.0693,1.59352 -0.438,2.1152 -0.47362,0.20119 -0.9116,0.68192 -1.14662,1.55792 0.0196,-0.66055 -0.21723,-1.10568 -0.56441,-1.3496 -0.27777,-1.41903 -1.45288,-1.70391 -2.76865,-1.80896 1.06472,1.11992 0.48785,2.33063 0.41129,3.52 -0.93832,-1.46 -1.82854,-1.58641 -2.46951,-1.12704 0,-0.008 0,-0.008 0,-0.008 -1.05761,-0.47894 -1.97455,-0.35431 -3.11583,0.61249 0.8208,0.14603 1.41905,0.0214 2.15615,1.42616 0.0147,-0.008 0.0214,-0.0148 0.0284,-0.0214 -0.0356,0.70864 0.16559,1.39056 0.70864,1.73951 -0.61782,0.38103 -0.98103,0.87602 -1.14664,1.37632 -0.008,0 -0.008,0 -0.008,0 -0.12649,-0.0909 -1.14839,-0.63384 -1.8499,-0.82791 0.0338,2.14189 1.09855,2.57989 2.07247,2.53894 0.008,0 0.008,-0.008 0.008,-0.008 0.4024,0.54303 1.13239,0.79231 2.0155,0.34718 -0.70862,1.83034 0.91162,1.6149 -0.51455,3.35264 0.2724,0.17443 0.47361,0.41129 1.67721,-0.36144 -0.11211,0.41663 -0.38993,0.61249 -0.61961,1.07185 -0.2368,0.48607 -0.42375,1.24455 -0.61782,1.91223 0.68726,0.15305 1.17511,0.11045 1.67542,0.0765 -0.71575,0.17277 -0.41129,1.88372 -0.38992,3.35263 0.63385,-0.19587 0.85641,-0.10511 1.1199,1.23741 0.37568,1.89087 3.56096,5.15271 3.89569,5.48744 -0.44512,0.2083 -0.89025,0.30623 -1.33534,0.22967 0.56974,0.82792 0.97924,1.79472 2.71164,1.66119 -0.11045,0.43266 -0.64631,1.00952 -1.96208,1.84456 1.48136,0.95255 2.5817,0.61782 3.65887,0.19407 0.0979,1.168 -1.18934,1.53656 -2.90039,1.50273 0.18874,0.47895 0.84929,1.50806 1.88554,1.50806 0.68192,0 1.20893,0.16743 1.89798,-0.34007 l -0.0148,0.041 c -0.7015,1.41191 -2.20422,2.30927 -3.5467,3.01968 -2.7259,1.43862 -4.76989,2.97694 -6.41149,4.52773 -0.48785,-0.81366 -0.98104,-1.28727 -1.45463,-1.54544 -0.17278,-1.00062 -0.88313,-1.73062 -2.20424,-2.16149 0.32049,0.87598 0.55551,1.72349 0.0907,2.33599 -0.57155,0.38991 -0.98104,0.94543 -1.11281,1.21782 0.22968,-1.19648 -0.16023,-1.76088 -0.7371,-1.95495 0.0196,-0.0214 0.041,-0.041 0.0623,-0.0623 -0.56975,-1.53655 -1.55079,-1.55079 -2.96983,-0.98817 1.23031,0.28489 0.9668,0.87599 0.75849,1.48848 -0.33473,0.25106 -0.52879,0.54304 -0.43265,0.79943 -0.73713,0.26529 -1.08432,0.7033 -1.18758,1.22497 -0.0286,-0.0284 -0.0641,-0.0623 -0.0909,-0.0837 -1.21073,-0.20119 -1.76089,0.25105 -2.39295,0.63208 0.93118,0.78697 1.60598,1.73951 3.30989,1.97633 0,0 0,-0.008 0,-0.008 0.0695,0.0979 0.13885,0.20121 0.21009,0.29912 0.0623,0.0979 0,0.42374 -0.0498,0.8208 -0.008,0 -0.008,0 -0.008,0 -1.80005,1.11992 -1.4119,1.66118 -1.62021,2.45527 0.54304,-0.52881 1.18223,-0.75848 2.5799,-0.22257 0,-0.008 0,-0.008 0,-0.008 0.39705,0.16024 0.93297,0.24393 1.66296,0.19407 1.10566,-0.0765 2.78822,-1.66118 4.09687,-2.71166 l -0.94722,2.83808 c 1.55793,-0.32761 2.60841,-1.05759 3.27607,-2.03864 0.40417,-0.59112 0.51456,-1.3496 1.54546,-1.26591 0.0891,0.60535 0.11046,1.28727 -0.52168,2.64934 1.06295,-0.66769 2.13478,-1.41191 3.19773,-2.8363 0.14603,0.7567 0.0765,1.58462 -0.36143,2.54429 1.56502,-0.96679 3.1443,-1.78759 4.51349,-4.44404 l 0,2.76862 c 1.19648,-1.02199 2.76152,-1.36383 3.11583,-3.87432 0.0979,-0.70861 0.32049,-1.33534 1.11281,-1.36918 l 0,3.24047 c 1.36383,-1.25879 2.40006,-3.40782 2.68494,-4.30518 0,0 0.30624,0.75847 0.50743,1.62023 0.20298,0.86174 0.30624,1.82143 0.30624,1.82143 1.38522,-1.47424 1.54368,-3.06598 1.31578,-4.65951 0,0 0.76383,1.05047 1.11814,1.92647 0.35609,0.87778 0.40416,2.0244 0.40416,2.0244 l 0.86176,-1.51695 0.0148,-0.0552 c 0.0284,0.0837 0.0623,0.16743 0.0979,0.24394 1.52229,3.36686 7.60794,4.63278 10.48876,4.68085 1.47423,0.56263 2.37159,1.46712 3.82445,3.09447 -0.65343,0.0148 -1.38342,0.0427 -2.17039,0.1051 -4.12359,0.29912 -7.07917,0.19407 -9.40269,1.606 -3.17102,1.91933 -3.86718,2.36445 -5.33429,2.36445 -0.8208,0 -1.11281,-0.40238 -1.96207,-0.40238 -2.09206,0 -6.09279,2.86479 -6.09279,2.86479 -2.64223,-1.37097 -2.71879,2.23983 -2.71879,3.22086 0,1.76624 0.3472,2.67783 0.3472,3.8316 0,1.97453 -1.14662,2.64222 -1.14662,3.28318 0.63919,0.22256 1.01486,1.15375 2.73301,-2.30926 -0.36142,3.51821 -1.41902,5.47317 -2.21134,7.19845 -0.38279,0.82792 -0.65343,1.54366 -1.03625,2.18285 -1.49557,2.51225 -3.63749,3.95799 -4.96572,3.95799 -1.41904,0 -2.14192,-0.90448 -2.14192,-0.90448 1.314,-0.87598 -0.4184,-2.87902 -1.71102,-1.84279 0.008,-0.0284 0.0129,-0.0837 0.0129,-0.0979 -0.7015,-0.45224 -1.63982,-0.21545 -2.74014,0.51454 1.34247,0.30624 1.64873,0.7033 1.89263,1.00241 0.008,0 0.008,-0.008 0.0148,-0.008 -0.0428,0.15304 -0.0907,0.29911 -0.13184,0.48072 -0.48785,0.0623 -0.85641,0.27775 -1.12704,0.58399 0,-0.008 0,-0.008 0,-0.0148 -1.94783,0.25638 -2.2879,0.63206 -2.50511,1.23741 0.98815,-0.0268 1.55791,0.37569 2.03151,0.87602 0.15305,0.7104 0.59825,1.28727 1.25167,1.2659 0.0623,0.20298 0.13166,0.39705 0.20298,0.57866 -0.0356,-0.0214 -0.0711,-0.0498 -0.1121,-0.0711 -1.34247,0.7389 -1.87841,1.622 -1.14839,2.74726 0.67479,-0.36143 1.23208,-1.20893 2.44815,-0.85462 0,0 0,-0.008 0,-0.008 1.03801,0.80655 2.36624,0.38992 3.88143,-0.8208 0,0 0.16023,0.86887 0.16023,1.48849 0,0.61248 -0.16023,0.98103 -0.16023,0.98103 1.46709,-0.13885 2.19175,-0.89736 2.64934,-1.95496 0.76559,1.13416 1.67721,1.49559 2.51224,1.4404 0.27775,0.40238 0.23503,1.00775 -0.21721,1.62023 1.19646,-0.41663 1.80896,-1.25167 2.01015,-2.38582 0.4736,-0.40952 0.77273,-0.89025 0.77273,-1.23744 -0.008,-1.11993 -0.47361,-0.89736 -0.48608,-1.88552 -0.0148,-0.9935 0.4647,-1.73774 0.4647,-1.73774 0.57153,1.15373 1.34249,1.57037 1.83034,2.93422 1.1395,-1.07185 0.65343,-2.47664 0.77093,-3.88856 1.13417,0.6125 1.5241,1.34248 1.42617,2.52471 0,0 0.90448,-1.0843 0.85462,-2.24517 -0.0551,-1.15554 -1.00062,-2.26832 -1.00062,-2.26832 2.93423,-0.26352 2.38582,0.45224 2.81671,0.77983 1.22318,-1.62022 0.25105,-3.36687 -1.27304,-4.56335 2.30216,-0.41663 2.92888,0.48785 3.64463,1.55791 1.1484,-0.80654 0.89023,-3.01788 -0.61961,-4.49925 l 1.16265,-0.22968 0.63207,0.6392 c 0.75137,-1.05584 0,-2.32888 -0.47895,-3.56097 l 1.55793,0.9045 c -0.43266,-1.18224 -0.54306,-1.87662 -0.52169,-2.39296 0.77807,0.45224 1.14662,1.2036 1.48847,1.98344 0.47895,-0.92584 0.53415,-2.10095 0.45759,-3.35974 1.0309,0.74422 1.50984,1.89264 1.30865,3.52533 0.50742,-0.73712 1.1751,-1.10566 1.38343,-2.55854 0.45936,0.44512 0.77272,0.77807 2.63688,0.89736 -1.16265,-1.07183 -1.44042,-2.10808 -1.19648,-2.96271 0.5003,-1.71816 3.60189,-2.01015 6.82277,-2.06535 2.76151,-0.0498 3.94376,-0.93296 5.66013,-1.66295 -1.78049,2.04575 -1.75911,5.2791 -0.98638,7.48332 0.7371,1.96921 2.30214,4.44406 2.60127,5.91829 0.44512,2.23272 -0.68192,2.27545 -1.42616,3.03393 0.63919,0.32582 4.02743,1.5508 3.67845,-3.95798 0.6481,0.72998 0.75136,1.8499 0.87066,3.11581 0.81366,-0.39703 1.68254,-0.68192 2.09917,-2.14903 0.64097,0.31337 1.09321,0.66768 2.14192,0.66768 1.476,0 2.28256,0.96681 2.28256,2.18999 0,1.04336 -0.36856,1.30153 -0.93296,1.86414 -1.05048,1.02913 -0.90983,1.99591 -0.89025,3.15856 0.0284,2.11343 -0.16742,2.55143 -1.78047,3.3651 0.0907,-0.69438 -0.22256,-1.39054 -0.74424,-1.57749 -0.50743,-1.37809 -1.60598,-1.48848 -2.75973,-1.48135 0.42374,0.61782 0.9027,1.24455 0.86174,1.7591 -0.25816,0.27775 -0.41662,0.63919 -0.41662,1.04336 0,0.008 0,0.008 0,0.0148 -0.49496,-0.36855 -0.93297,-0.84216 -1.41191,-1.21784 -0.38281,0.30624 -0.65522,0.54303 -0.91162,0.76559 -1.25166,-0.28665 -1.97631,0.43089 -2.80957,1.03624 1.23743,0.14605 2.14903,0.32582 2.14191,1.13237 -1.53121,0.71755 -2.33778,1.78761 -0.91873,3.00545 0.34897,-0.86174 0.68191,-1.23209 1.3496,-1.57928 l 0.28487,0.92584 c -0.0907,0.17278 -0.64632,1.23033 -0.34006,2.10631 0.3187,-0.16023 1.1199,-0.57687 1.75198,-1.07719 3.15856,1.45288 4.0488,-0.81367 6.22454,-2.37158 0.48072,0.67478 0.0551,1.80182 -0.22968,2.85765 1.14127,-0.17978 1.71103,-0.52168 2.35912,-3.05885 0.95255,0.72286 1.99591,1.29976 3.93486,0.438 l -2.0992,-2.01015 c 1.55079,-1.33536 3.21198,-2.63689 3.39358,-4.36218 0.98105,-0.041 1.93361,2.43569 2.33776,2.64402 0.59113,-0.71576 0.61071,-2.17041 0.1584,-3.83159 1.05048,0.38102 2.0244,0.63919 2.48375,1.1395 0.24394,-1.65584 -0.0765,-2.96269 -1.0843,-3.86718 0.97214,0.11931 1.94606,0.33473 2.91998,1.93359 0.45224,-0.5555 0.28487,-1.05759 0.37568,-1.45999 0.15304,-0.65343 -0.41663,-1.84992 -2.63511,-3.86006 0.56976,0.0214 1.16088,0.0765 1.97454,0.47361 -0.27774,-0.59112 -0.32047,-1.04336 -0.32759,-1.50984 -0.0129,-1.55793 -1.00775,-1.89266 -1.67544,-2.65648 -0.75847,-0.68191 -1.50271,-1.18222 -1.4475,-1.87128 0.0497,-0.4736 -1.56326,-2.02439 -4.22151,-2.69918 l 3.08911,0 c -0.83504,-0.56264 -1.16264,-1.03625 -3.04638,-1.80008 0.43088,-0.38279 0.80656,-0.80119 0.72998,-1.60062 -4.99422,1.16797 -4.32653,-0.89025 -4.54198,-1.24455 0.75848,0.50742 1.37809,0.75847 2.29504,0.55014 -0.3828,-0.32047 -0.69438,-0.93296 -0.69438,-2.04575 0,-1.78047 -1.4333,-3.21375 -2.14192,-4.82686 1.3763,0 3.81734,2.35733 7.07203,2.35733 6.13552,0 8.33262,-7.77532 8.33262,-10.64722 0,-5.72422 -3.13719,-9.16053 -6.94206,-13.49243 0.26528,-0.25105 0.54303,-0.49497 0.8208,-0.72999 0.82793,-0.69617 2.07959,-1.95497 2.88081,-2.72769 2.88614,-2.80247 4.16453,-7.23228 1.91933,-9.59675 -0.61959,-0.65343 -1.96919,-1.30865 -3.5271,-1.23921 -1.02912,0.0498 -2.14903,0.41129 -3.21197,1.28728 -0.27954,0.22967 -1.88554,1.80184 -2.5532,1.08432 -0.16743,-0.19408 -0.27775,-0.55552 -0.27775,-1.13239 -1.53834,1.00776 -2.0529,2.38583 0.25637,3.57519 -0.0961,2.08494 -0.25637,4.37462 2.19176,6.11949 0,-0.90449 -0.18872,-1.50272 0.15304,-2.26655 0.30624,-0.6748 0.67479,-0.61959 0.67479,-1.81607 1.29262,0.13884 2.75973,-0.4665 2.10631,-1.7324 -2.51046,-0.44513 -0.83504,-2.51048 0.75847,-2.64223 0.79944,-0.0695 2.03686,0.11746 2.03686,2.64223 0,1.92112 -0.29911,2.5532 -3.01789,5.19541 -1.168,1.13417 -1.92648,1.72527 -2.64935,2.32352 -2.39296,-2.85765 -5.89157,-7.80381 -5.89157,-12.94938 0,-1.46177 0.5644,-7.09518 6.03758,-7.14327 3.08021,-0.0286 4.30518,2.35736 4.31229,5.46606 0.68194,-0.15305 1.40481,0.0214 1.96031,-0.95967 0.44512,4.87494 3.16568,6.50941 7.3035,6.28684 -0.86887,-0.43087 -2.15614,-0.98637 -2.15614,-4.27669 0,-2.65646 -0.75137,-4.06839 -2.60841,-5.08325 1.48137,-0.25818 1.6772,-1.03089 1.606,-1.96208 -1.2784,0.73 -2.20423,-0.12465 -4.06128,-0.0482 -1.16085,-1.71814 -3.34549,-2.32352 -5.95389,-2.32352 -5.75805,0 -9.00563,5.80792 -9.00563,10.51548 0,5.8916 3.75501,10.75941 6.69101,14.16723 -1.97631,2.22559 -2.41432,4.96574 -2.45527,6.6287 -0.0498,1.77335 0.008,3.42919 2.35736,7.19846 0.84215,1.35671 1.55791,2.62796 1.52942,3.95087 -0.0338,2.07959 -0.32582,4.52062 -4.32477,2.37159 -1.45465,-0.78697 -2.45528,-1.94784 -3.9028,-1.79472 -0.86175,-1.29442 -1.71104,-2.5176 -4.17343,-4.04167 -1.88375,-1.168 -3.83159,-2.39118 -4.54021,-4.10222 -0.8208,-1.94784 -3.06063,-4.08973 -4.99423,-6.1907 l -0.0481,-0.11045 c 0.84039,0.50743 2.21135,0.2564 3.53958,-0.0284 -1.76623,-1.44039 -1.18936,-1.83568 -1.28015,-2.53183 1.0576,0 1.85703,0.72288 3.47014,-0.75135 -1.86949,-0.80655 -2.39831,-1.606 -2.25942,-2.41255 l 0,-3.40071 c 0.67479,0.73713 1.53655,1.20895 3.01078,0.75671 -0.0268,-1.16087 0.0148,-2.27366 0.15304,-3.24046 0.22257,-1.54368 0.52881,-1.78047 0.60537,-2.76151 1.76623,0.3276 1.64872,-0.95257 1.88551,-1.77335 -1.41904,-0.0765 -1.28015,-0.6748 -1.58639,-1.12704 1.4119,-0.1584 2.16327,-0.72289 1.96919,-1.88375 -0.57864,-0.32761 -1.18935,0.0214 -1.21071,-1.66295 -0.008,-0.69441 -0.55018,-1.36207 -0.90449,-2.03687 0.75848,-0.008 1.14842,-0.82081 1.35672,-1.81609 -2.23983,0.29911 -2.44815,-1.75911 -3.31168,-3.41495 l -13.03305,-1.05759 c -1.35674,-0.0765 -2.03154,1.13415 -3.07311,1.19646 -1.0309,0.0765 -1.53121,0.7585 -1.74663,1.62024 -1.23744,-0.14604 -1.94073,-0.0481 -2.60842,0 0.15324,0.58577 0.34899,1.91401 0.9953,1.94072 0.0695,0.87065 0.70863,1.87128 1.41904,2.19889 l 0.97392,1.52231 0.0268,-1.47424 c 1.26593,-0.34719 1.75911,-1.73241 2.62264,-0.11045 l 0,2.71167 c -1.41904,-0.70329 -2.30215,-1.50986 -6.42751,-1.4333 -0.876,-0.0196 -1.29263,-0.50743 -1.50093,-1.18935 0.8831,0.24394 1.31397,-0.14603 1.31397,-0.87598 0,-0.70153 -0.63384,-1.05761 -1.4119,-1.02912 -0.77273,0.0284 -1.40479,0.41662 -1.40479,1.28017 0,0.4451 -0.15305,2.90038 3.97045,2.84341 1.05048,-0.0196 1.95496,0.0765 2.76862,0.24391 l 0.0284,1.98168 c -0.32761,-0.0552 -0.68903,-0.13184 -1.10566,-0.23503 0,0.61071 0.041,1.00063 -0.15305,2.56567 l -0.45224,1.0576 c 0,0 -2.56032,-0.68192 -3.39359,-0.68192 -0.83504,0 -3.15143,0.84216 -4.8963,1.68254 -0.18163,-0.17978 -2.99832,-2.9627 -5.92006,-5.11887 -2.79535,-2.05822 -3.17103,-6.45421 -0.87601,-8.5961 0.79231,-0.89025 1.08431,-1.51519 0.77273,-2.54609 0.22255,-1.46711 -0.64809,-1.96742 -1.2944,-2.65647 z m 20.89385,4.42447 c 0.59112,0.0552 1.29974,0.41663 1.8143,0.96681 -0.86176,0.98639 -2.92176,1.61309 -2.87902,-0.14069 0.0148,-0.64632 0.47894,-0.88313 1.06472,-0.82616 z m -3.55561,8.12966 c 0.97392,0.20119 1.82321,0.52166 2.62264,0.91871 -0.15305,0.54838 -0.18696,1.15374 -1.39767,1.17511 l -1.22497,-2.09382 z m 33.73998,17.56792 c 4.631,5.27912 5.93253,7.57413 5.93253,11.51789 -0.008,4.27669 -2.10096,6.05004 -4.31231,7.11477 1.42616,-1.39056 1.2232,-3.97045 -1.28016,-7.87325 -1.33535,-2.0796 -2.01015,-4.06839 -1.97455,-5.96637 0.041,-1.95496 0.68015,-3.4844 1.63449,-4.79304 z"
       style="fill:#ffffff;fill-opacity:1;fill-rule:nonzero;stroke:none"
       id="path4250"
       inkscape:connector-curvature="0" /><path
       d="m 385.58358,498.67296 c 0.5003,0.65343 1.00773,1.30686 1.14662,2.18998 -0.008,0 -0.008,0 -0.0129,0 -0.3828,0 -0.69617,0.30624 -0.69617,0.69616 0,0.38282 0.31337,0.68726 0.69617,0.68726 0.0338,0 0.0695,-0.0129 0.10326,-0.0196 0.15323,0.83327 0.72289,1.68256 2.18465,1.8143 0.86888,0.0765 1.35494,-0.40238 1.89799,-0.84749 0.77271,1.09855 1.88552,1.30685 3.28319,0.77805 1.0576,0.47361 2.51759,1.03625 3.42207,-0.24926 0.34007,0.52168 0.43087,0.92406 1.96742,1.09856 0.83497,0.0907 1.61305,-0.66057 2.05816,-1.55792 0.1121,0.0837 0.25104,0.14604 0.40416,0.14604 0.38281,0 0.69617,-0.31335 0.69617,-0.69615 0,-0.38279 -0.30624,-0.68192 -0.68191,-0.68905 0.19406,-0.7015 0.36855,-1.09855 1.48846,-1.81429 -1.07897,-0.18875 -2.36446,-0.49319 -2.47664,0.81366 -1.11991,-0.43087 -3.10159,1.14663 -1.18223,1.96743 1.02911,0.43801 0.38994,1.2036 -0.71575,0.91159 -1.07184,-0.27775 -1.02911,-0.64631 -1.48847,-1.41902 -0.44512,0.39703 -0.6481,1.64159 -2.64401,1.08609 -0.17278,-0.0498 -0.98639,-0.36856 0.68191,-0.6481 0.62674,-0.10326 0.7941,-1.76623 -0.57686,-1.62735 0.35432,-0.8208 0.68191,-1.77336 -0.68192,-1.86415 -0.9116,-0.0552 -0.95967,0.98104 -0.98105,1.69856 -1.29262,-0.0498 -1.54366,1.5223 -0.34006,1.79294 0.74424,0.16742 0.73712,0.59112 -0.0623,0.6481 -0.95256,0.0623 -1.55792,-0.77273 -2.08671,-1.65584 0.31337,-0.0623 0.55552,-0.33473 0.55552,-0.66768 0,-0.3828 -0.3116,-0.69617 -0.69439,-0.69617 -0.38993,0 -0.69617,0.31337 -0.69617,0.69617 0,0.38279 0.30624,0.69617 0.69617,0.69617 0.008,0 0.0214,-0.008 0.0338,-0.008 -0.40238,0.77096 -0.97392,1.26592 -1.87661,1.29261 -0.39705,0.008 -1.57217,-0.0837 -0.30624,-1.15373 0.22255,-0.18872 1.99589,-1.78047 -0.77984,-1.89977 0.0356,-1.55079 -1.168,-1.48847 -2.33599,-1.50094 z m 12.20514,2.41966 c -0.3828,0 -0.68725,0.31336 -0.68725,0.69618 0,0.38101 0.30445,0.69438 0.68725,0.69438 0.38993,0 0.69617,-0.31337 0.69617,-0.69438 0,-0.38282 -0.30624,-0.69618 -0.69617,-0.69618 z m -9.49348,2.99119 c -0.6463,-0.008 -1.09143,0.73713 -0.90447,1.27304 l 12.9654,1.04871 c 0.30623,-0.34007 0,-1.37632 -0.57154,-1.45288 -3.1087,-0.42375 -8.50532,-0.84215 -11.48939,-0.86887 z"
       style="fill:#ffffff;fill-opacity:1;fill-rule:nonzero;stroke:none"
       id="path4252"
       inkscape:connector-curvature="0" /></g></svg>