<?xml version="1.0" encoding="UTF-8" standalone="no"?>
<svg
   xmlns:dc="http://purl.org/dc/elements/1.1/"
   xmlns:cc="http://creativecommons.org/ns#"
   xmlns:rdf="http://www.w3.org/1999/02/22-rdf-syntax-ns#"
   xmlns:svg="http://www.w3.org/2000/svg"
   xmlns="http://www.w3.org/2000/svg"
   id="svg6693"
   version="1.1"
   xml:space="preserve"
   width="169.02838"
   height="186.31958"
   viewBox="0 0 169.02838 186.31957"><metadata
     id="metadata6699"><rdf:RDF><cc:Work
         rdf:about=""><dc:format>image/svg+xml</dc:format><dc:type
           rdf:resource="http://purl.org/dc/dcmitype/StillImage" /><dc:title></dc:title></cc:Work></rdf:RDF></metadata><defs
     id="defs6697"><clipPath
       clipPathUnits="userSpaceOnUse"
       id="clipPath6707"><path
         d="m 0,870.236 623.626,0 L 623.626,0 0,0 0,870.236 Z"
         id="path6709" /></clipPath><clipPath
       clipPathUnits="userSpaceOnUse"
       id="clipPath6719"><path
         d="m 0,870.236 623.626,0 L 623.626,0 0,0 0,870.236 Z"
         id="path6721" /></clipPath><clipPath
       clipPathUnits="userSpaceOnUse"
       id="clipPath6731"><path
         d="m 0,870.236 623.626,0 L 623.626,0 0,0 0,870.236 Z"
         id="path6733" /></clipPath><clipPath
       id="clipPath4150"
       clipPathUnits="userSpaceOnUse"><path
         id="path4152"
         d="m 0,870.236 623.626,0 L 623.626,0 0,0 0,870.236 Z" /></clipPath><clipPath
       id="clipPath4162"
       clipPathUnits="userSpaceOnUse"><path
         id="path4164"
         d="m 0,870.236 623.626,0 L 623.626,0 0,0 0,870.236 Z" /></clipPath><clipPath
       id="clipPath4390"
       clipPathUnits="userSpaceOnUse"><path
         id="path4392"
         d="m 0,870.236 623.626,0 L 623.626,0 0,0 0,870.236 Z" /></clipPath><clipPath
       id="clipPath4398"
       clipPathUnits="userSpaceOnUse"><path
         id="path4400"
         d="m -80.514,14.173 -595.276,0 0,841.89 595.276,0 0,-841.89 z" /></clipPath><clipPath
       id="clipPath6707-4"
       clipPathUnits="userSpaceOnUse"><path
         id="path6709-2"
         d="m 0,870.236 623.626,0 L 623.626,0 0,0 0,870.236 Z" /></clipPath><clipPath
       id="clipPath6719-3"
       clipPathUnits="userSpaceOnUse"><path
         id="path6721-3"
         d="m 0,870.236 623.626,0 L 623.626,0 0,0 0,870.236 Z" /></clipPath><clipPath
       id="clipPath6731-1"
       clipPathUnits="userSpaceOnUse"><path
         id="path6733-5"
         d="m 0,870.236 623.626,0 L 623.626,0 0,0 0,870.236 Z" /></clipPath><clipPath
       clipPathUnits="userSpaceOnUse"
       id="clipPath4150-1"><path
         d="m 0,870.236 623.626,0 L 623.626,0 0,0 0,870.236 Z"
         id="path4152-0" /></clipPath><clipPath
       clipPathUnits="userSpaceOnUse"
       id="clipPath4162-3"><path
         d="m 0,870.236 623.626,0 L 623.626,0 0,0 0,870.236 Z"
         id="path4164-5" /></clipPath><clipPath
       clipPathUnits="userSpaceOnUse"
       id="clipPath4390-2"><path
         d="m 0,870.236 623.626,0 L 623.626,0 0,0 0,870.236 Z"
         id="path4392-2" /></clipPath><clipPath
       clipPathUnits="userSpaceOnUse"
       id="clipPath4398-1"><path
         d="m -80.514,14.173 -595.276,0 0,841.89 595.276,0 0,-841.89 z"
         id="path4400-4" /></clipPath></defs><g
     transform="matrix(1.2945423,0,0,1.2945423,-420.0547,-610.93861)"
     id="lion"><title
       id="title17040">lion</title><g
       id="g5080"
       transform="matrix(1.25,0,0,-1.25,-1.3964844e-4,1275.3973)"><path
         d="m 288.7891,571.9068 0,0 -21.482,-12.403 c 0.994,-1.721 2.433,-3.185 4.214,-4.213 l 17.268,-9.97 0,26.586 z"
         style="fill:#4c9edc;fill-opacity:1;fill-rule:nonzero;stroke:none"
         id="path5082-8" /><path
         d="m 265.7649,585.1998 0,-19.939 c 0,-2.057 0.549,-4.035 1.542,-5.756 l 21.482,12.402 -23.024,13.293 z"
         style="fill:#498cd2;fill-opacity:1;fill-rule:nonzero;stroke:none"
         id="path5084-8" /><path
         d="m 288.7891,571.9068 0,26.586 -23.024,-13.293 0,0 23.024,-13.293 z"
         style="fill:#487dc8;fill-opacity:1;fill-rule:nonzero;stroke:none"
         id="path5086-9" /><path
         d="m 288.7891,545.3209 0,0 17.268,-9.97 c 1.781,-1.028 3.769,-1.542 5.756,-1.542 l 0,24.805 -23.024,-13.293 z"
         style="fill:#5295d6;fill-opacity:1;fill-rule:nonzero;stroke:none"
         id="path5088-6" /><path
         d="m 267.3072,610.8954 c -0.994,-1.721 -1.542,-3.7 -1.542,-5.756 l 0,-19.94 23.024,13.293 -21.482,12.403 z"
         style="fill:#476bbc;fill-opacity:1;fill-rule:nonzero;stroke:none"
         id="path5090-0" /><path
         d="m 334.8373,545.3209 0,26.586 -23.024,-13.293 23.024,-13.293 z"
         style="fill:#7f9ad6;fill-opacity:1;fill-rule:nonzero;stroke:none"
         id="path5092-2" /><path
         d="m 356.3192,559.5043 c 0.994,1.721 1.542,3.7 1.542,5.756 l 0,19.939 -23.024,-13.293 21.482,-12.402 z"
         style="fill:#727ebd;fill-opacity:1;fill-rule:nonzero;stroke:none"
         id="path5094-5" /><path
         d="m 334.8373,571.9068 0,-26.586 17.268,9.97 c 1.781,1.028 3.22,2.492 4.214,4.214 l -21.482,12.402 z"
         style="fill:#8f9fd8;fill-opacity:1;fill-rule:nonzero;stroke:none"
         id="path5096-0" /><path
         d="m 334.8373,598.4928 0,0 0,-26.586 23.024,13.293 0,0 -23.024,13.293 z"
         style="fill:#425da2;fill-opacity:1;fill-rule:nonzero;stroke:none"
         id="path5098-9" /><path
         d="m 311.8132,558.6138 0,-24.805 c 1.987,0 3.975,0.514 5.756,1.542 l 17.268,9.97 -23.024,13.293 z"
         style="fill:#6495d5;fill-opacity:1;fill-rule:nonzero;stroke:none"
         id="path5100-5" /><path
         d="m 311.8132,611.7858 -23.024,13.293 0,-26.586 23.024,13.293 z"
         style="fill:#3a64ad;fill-opacity:1;fill-rule:nonzero;stroke:none"
         id="path5102-1" /><path
         d="m 311.8132,611.7858 23.024,-13.293 0,26.586 -23.024,-13.293 z"
         style="fill:#3a61a3;fill-opacity:1;fill-rule:nonzero;stroke:none"
         id="path5104-7" /><path
         d="m 267.3072,610.8954 21.482,-12.403 0,26.586 -17.268,-9.969 c -1.781,-1.029 -3.22,-2.493 -4.214,-4.214"
         style="fill:#32549d;fill-opacity:1;fill-rule:nonzero;stroke:none"
         id="path5106-7" /><path
         d="m 334.8373,598.4928 23.024,-13.293 0,19.939 c 0,2.057 -0.548,4.035 -1.542,5.757 l -21.482,-12.403 z"
         style="fill:#2f5296;fill-opacity:1;fill-rule:nonzero;stroke:none"
         id="path5108-7" /><path
         d="m 334.8373,598.4928 21.482,12.403 c -0.994,1.721 -2.433,3.185 -4.214,4.213 l -17.268,9.97 0,-26.586 z"
         style="fill:#325295;fill-opacity:1;fill-rule:nonzero;stroke:none"
         id="path5110-4" /><path
         d="m 334.8373,625.0788 -17.269,9.97 c -1.781,1.028 -3.768,1.542 -5.755,1.542 l 0,-24.805 23.024,13.293 z"
         style="fill:#4379c6;fill-opacity:1;fill-rule:nonzero;stroke:none"
         id="path5112-0" /><path
         d="m 311.8132,611.7858 0,24.805 c -1.987,0 -3.975,-0.514 -5.755,-1.542 l -17.269,-9.97 23.024,-13.293 z"
         style="fill:#3f73bd;fill-opacity:1;fill-rule:nonzero;stroke:none"
         id="path5114-8" /><path
         d="m 288.7891,545.3209 23.024,13.293 -23.024,13.293 0,-26.586 z"
         style="fill:#50a0dd;fill-opacity:1;fill-rule:nonzero;stroke:none"
         id="path5116-4" /><path
         id="path5118-4"
         style="fill:#425da2;fill-opacity:1;fill-rule:nonzero;stroke:none"
         d="m 288.7891,598.4929 0,0 0,-26.586 23.024,13.293 0,0 -23.024,13.293 z" /><path
         id="path5120-6"
         style="fill:#487dc8;fill-opacity:1;fill-rule:nonzero;stroke:none"
         d="m 334.8371,571.9069 0,26.586 -23.024,-13.293 0,0 23.024,-13.293 z" /><path
         id="path5122-9"
         transform="matrix(0.8,0,0,-0.8,1.1171875e-4,1020.3178)"
         d="m 389.76562,543.89648 0,0.002 -28.77929,16.61523 28.77929,16.61719 28.78126,-16.61719 -28.78126,-16.61719 z"
         style="fill:#3f73bd;fill-opacity:1;fill-rule:nonzero;stroke:none" /><path
         id="path5124-5"
         style="fill:#2f5296;fill-opacity:1;fill-rule:nonzero;stroke:none"
         d="m 311.8133,585.1998 0,26.586 -23.024,-13.293 23.024,-13.293 z" /><path
         id="path5126-1"
         style="fill:#498cd2;fill-opacity:1;fill-rule:nonzero;stroke:none"
         d="m 311.8132,585.1998 23.024,13.293 -23.024,13.293 0,-26.586 z" /></g><path
       id="path5128"
       d="m 389.76562,499.9747 c -2.43618,0 -4.81861,0.73157 -7.05664,1.89258 l -10.54882,5.47265 -11.48243,6.52735 c -1.36182,0.78605 -2.4626,1.90476 -3.22265,3.2207 -0.76004,1.31671 -1.17969,2.82948 -1.17969,4.40234 0,0 -1.4862,16.50709 0.71875,19.79102 2.20495,3.28392 10.63858,8.48146 12.62891,11.96094 0.49758,0.86987 0.71983,2.69769 0.80273,4.98242 0.16526,4.89501 -0.88215,12.6834 1.38867,14.15039 2.16685,1.39985 5.93202,1.66441 7.9375,1.35352 4.01098,-0.62179 9.63182,-3.29493 9.63182,-3.29493 0,0 0.20899,-4.79283 0,-5.07812 -1.93633,-4.74047 -9.23997,-7.30188 -9.05565,-7.66992 0.21099,-0.42127 5.37,0.62535 9.43165,0.59765 4.06165,0.0277 9.23236,-1.01892 9.44335,-0.59765 0.18433,0.36804 -7.13984,2.94507 -9.07617,7.68554 -0.20899,0.28529 0,5.07812 0,5.07812 0,0 5.64137,2.65752 9.65235,3.27931 2.00548,0.31089 5.77065,0.0463 7.9375,-1.35352 2.27082,-1.46699 1.22341,-9.25538 1.38867,-14.15039 0.0829,-2.28473 0.30515,-4.11255 0.80273,-4.98242 1.99033,-3.47948 10.42396,-8.67702 12.62891,-11.96094 2.20495,-3.28393 0.71875,-19.79102 0.71875,-19.79102 0,-1.57286 -0.41965,-3.08563 -1.17969,-4.40234 -0.76005,-1.31594 -1.86083,-2.43465 -3.22265,-3.2207 l -11.48243,-6.52735 -10.54882,-5.47265 c -2.23803,-1.16101 -4.62045,-1.89258 -7.05665,-1.89258 z m -21.06445,24.85156 c 2.78571,0.0133 8.24037,0.8023 9.30274,1.94727 1.24078,1.33726 2.33203,10.49414 2.33203,10.49414 l -2.9375,-5.44922 c 0,0 -3.11148,-0.33872 -4.06836,-1.4082 -1.10471,-1.23509 -2.0918,-3.74414 -2.0918,-3.74414 0,0 -4.43761,-0.91886 -4.17187,-1.58008 0.0737,-0.1835 0.70619,-0.26421 1.63476,-0.25977 z m 42.12891,0 c 0.92857,-0.004 1.56102,0.0763 1.63476,0.25977 0.26574,0.66122 -4.17187,1.58008 -4.17187,1.58008 0,0 -0.98709,2.50905 -2.0918,3.74414 -0.95688,1.06948 -4.06836,1.4082 -4.06836,1.4082 l -2.9375,5.44922 c 0,0 1.09125,-9.15688 2.33203,-10.49414 1.06237,-1.14497 6.51703,-1.93394 9.30274,-1.94727 z m -21.0586,47.54883 c -5.85256,0 -7.4826,2.17737 -12.9082,2.38281 -2.27783,0.0863 -3.45481,-0.41025 -4.77148,-0.92578 -1.1879,1.53319 -0.7397,6.61381 2.82422,8.25781 2.53809,1.1708 8.45915,3.96005 10.01757,4.51368 1.67687,0.59572 3.3127,1.21679 4.83203,1.21679 1.51934,0 3.15517,-0.62107 4.83204,-1.21679 1.55842,-0.55363 7.47948,-3.34288 10.01757,-4.51368 3.56392,-1.644 4.01212,-6.72462 2.82422,-8.25781 -1.31667,0.51553 -2.49365,1.01203 -4.77148,0.92578 -5.4256,-0.20544 -7.04393,-2.38281 -12.89649,-2.38281 z"
       style="fill:#ffffff;fill-opacity:1;fill-rule:nonzero;stroke:none" /></g></svg>