<?xml version="1.0" encoding="UTF-8" standalone="no"?>
<svg
   xmlns:dc="http://purl.org/dc/elements/1.1/"
   xmlns:cc="http://creativecommons.org/ns#"
   xmlns:rdf="http://www.w3.org/1999/02/22-rdf-syntax-ns#"
   xmlns:svg="http://www.w3.org/2000/svg"
   xmlns="http://www.w3.org/2000/svg"
   xmlns:sodipodi="http://sodipodi.sourceforge.net/DTD/sodipodi-0.dtd"
   xmlns:inkscape="http://www.inkscape.org/namespaces/inkscape"
   id="svg6693"
   version="1.1"
   xml:space="preserve"
   width="169.02838"
   height="186.31958"
   viewBox="0 0 169.02838 186.31957"
   inkscape:version="0.91 r13725"
   inkscape:export-xdpi="532.45001"
   inkscape:export-ydpi="532.45001"
  ><sodipodi:namedview
     pagecolor="#ffffff"
     bordercolor="#666666"
     borderopacity="1"
     objecttolerance="10"
     gridtolerance="10"
     guidetolerance="10"
     inkscape:pageopacity="0"
     inkscape:pageshadow="2"
     inkscape:window-width="1869"
     inkscape:window-height="1056"
     id="namedview60"
     showgrid="false"
     inkscape:zoom="3.5826014"
     inkscape:cx="156.14481"
     inkscape:cy="106.16071"
     inkscape:window-x="51"
     inkscape:window-y="24"
     inkscape:window-maximized="1"
     inkscape:current-layer="lion" /><metadata
     id="metadata6699"><rdf:RDF><cc:Work
         rdf:about=""><dc:format>image/svg+xml</dc:format><dc:type
           rdf:resource="http://purl.org/dc/dcmitype/StillImage" /><dc:title /></cc:Work></rdf:RDF></metadata><defs
     id="defs6697"><clipPath
       clipPathUnits="userSpaceOnUse"
       id="clipPath6707"><path
         d="m 0,870.236 623.626,0 L 623.626,0 0,0 0,870.236 Z"
         id="path6709" /></clipPath><clipPath
       clipPathUnits="userSpaceOnUse"
       id="clipPath6719"><path
         d="m 0,870.236 623.626,0 L 623.626,0 0,0 0,870.236 Z"
         id="path6721" /></clipPath><clipPath
       clipPathUnits="userSpaceOnUse"
       id="clipPath6731"><path
         d="m 0,870.236 623.626,0 L 623.626,0 0,0 0,870.236 Z"
         id="path6733" /></clipPath><clipPath
       id="clipPath4150"
       clipPathUnits="userSpaceOnUse"><path
         id="path4152"
         d="m 0,870.236 623.626,0 L 623.626,0 0,0 0,870.236 Z" /></clipPath><clipPath
       id="clipPath4162"
       clipPathUnits="userSpaceOnUse"><path
         id="path4164"
         d="m 0,870.236 623.626,0 L 623.626,0 0,0 0,870.236 Z" /></clipPath><clipPath
       id="clipPath4390"
       clipPathUnits="userSpaceOnUse"><path
         id="path4392"
         d="m 0,870.236 623.626,0 L 623.626,0 0,0 0,870.236 Z" /></clipPath><clipPath
       id="clipPath4398"
       clipPathUnits="userSpaceOnUse"><path
         id="path4400"
         d="m -80.514,14.173 -595.276,0 0,841.89 595.276,0 0,-841.89 z" /></clipPath><clipPath
       id="clipPath6707-4"
       clipPathUnits="userSpaceOnUse"><path
         id="path6709-2"
         d="m 0,870.236 623.626,0 L 623.626,0 0,0 0,870.236 Z" /></clipPath><clipPath
       id="clipPath6719-3"
       clipPathUnits="userSpaceOnUse"><path
         id="path6721-3"
         d="m 0,870.236 623.626,0 L 623.626,0 0,0 0,870.236 Z" /></clipPath><clipPath
       id="clipPath6731-1"
       clipPathUnits="userSpaceOnUse"><path
         id="path6733-5"
         d="m 0,870.236 623.626,0 L 623.626,0 0,0 0,870.236 Z" /></clipPath><clipPath
       clipPathUnits="userSpaceOnUse"
       id="clipPath4150-1"><path
         d="m 0,870.236 623.626,0 L 623.626,0 0,0 0,870.236 Z"
         id="path4152-0" /></clipPath><clipPath
       clipPathUnits="userSpaceOnUse"
       id="clipPath4162-3"><path
         d="m 0,870.236 623.626,0 L 623.626,0 0,0 0,870.236 Z"
         id="path4164-5" /></clipPath><clipPath
       clipPathUnits="userSpaceOnUse"
       id="clipPath4390-2"><path
         d="m 0,870.236 623.626,0 L 623.626,0 0,0 0,870.236 Z"
         id="path4392-2" /></clipPath><clipPath
       clipPathUnits="userSpaceOnUse"
       id="clipPath4398-1"><path
         d="m -80.514,14.173 -595.276,0 0,841.89 595.276,0 0,-841.89 z"
         id="path4400-4" /></clipPath></defs><g
     transform="matrix(1.2945423,0,0,1.2945423,-420.0547,-610.93861)"
     id="lion"><title
       id="title17040">lion</title><g
       id="g5080"
       transform="matrix(1.25,0,0,-1.25,-1.3964844e-4,1275.3973)"><path
         d="m 288.7891,571.9068 0,0 -21.482,-12.403 c 0.994,-1.721 2.433,-3.185 4.214,-4.213 l 17.268,-9.97 0,26.586 z"
         style="fill:#4c9edc;fill-opacity:1;fill-rule:nonzero;stroke:none"
         id="path5082-8" /><path
         d="m 265.7649,585.1998 0,-19.939 c 0,-2.057 0.549,-4.035 1.542,-5.756 l 21.482,12.402 -23.024,13.293 z"
         style="fill:#498cd2;fill-opacity:1;fill-rule:nonzero;stroke:none"
         id="path5084-8" /><path
         d="m 288.7891,571.9068 0,26.586 -23.024,-13.293 0,0 23.024,-13.293 z"
         style="fill:#487dc8;fill-opacity:1;fill-rule:nonzero;stroke:none"
         id="path5086-9" /><path
         d="m 288.7891,545.3209 0,0 17.268,-9.97 c 1.781,-1.028 3.769,-1.542 5.756,-1.542 l 0,24.805 -23.024,-13.293 z"
         style="fill:#5295d6;fill-opacity:1;fill-rule:nonzero;stroke:none"
         id="path5088-6" /><path
         d="m 267.3072,610.8954 c -0.994,-1.721 -1.542,-3.7 -1.542,-5.756 l 0,-19.94 23.024,13.293 -21.482,12.403 z"
         style="fill:#476bbc;fill-opacity:1;fill-rule:nonzero;stroke:none"
         id="path5090-0" /><path
         d="m 334.8373,545.3209 0,26.586 -23.024,-13.293 23.024,-13.293 z"
         style="fill:#7f9ad6;fill-opacity:1;fill-rule:nonzero;stroke:none"
         id="path5092-2" /><path
         d="m 356.3192,559.5043 c 0.994,1.721 1.542,3.7 1.542,5.756 l 0,19.939 -23.024,-13.293 21.482,-12.402 z"
         style="fill:#727ebd;fill-opacity:1;fill-rule:nonzero;stroke:none"
         id="path5094-5" /><path
         d="m 334.8373,571.9068 0,-26.586 17.268,9.97 c 1.781,1.028 3.22,2.492 4.214,4.214 l -21.482,12.402 z"
         style="fill:#8f9fd8;fill-opacity:1;fill-rule:nonzero;stroke:none"
         id="path5096-0" /><path
         d="m 334.8373,598.4928 0,0 0,-26.586 23.024,13.293 0,0 -23.024,13.293 z"
         style="fill:#425da2;fill-opacity:1;fill-rule:nonzero;stroke:none"
         id="path5098-9" /><path
         d="m 311.8132,558.6138 0,-24.805 c 1.987,0 3.975,0.514 5.756,1.542 l 17.268,9.97 -23.024,13.293 z"
         style="fill:#6495d5;fill-opacity:1;fill-rule:nonzero;stroke:none"
         id="path5100-5" /><path
         d="m 311.8132,611.7858 -23.024,13.293 0,-26.586 23.024,13.293 z"
         style="fill:#3a64ad;fill-opacity:1;fill-rule:nonzero;stroke:none"
         id="path5102-1" /><path
         d="m 311.8132,611.7858 23.024,-13.293 0,26.586 -23.024,-13.293 z"
         style="fill:#3a61a3;fill-opacity:1;fill-rule:nonzero;stroke:none"
         id="path5104-7" /><path
         d="m 267.3072,610.8954 21.482,-12.403 0,26.586 -17.268,-9.969 c -1.781,-1.029 -3.22,-2.493 -4.214,-4.214"
         style="fill:#32549d;fill-opacity:1;fill-rule:nonzero;stroke:none"
         id="path5106-7" /><path
         d="m 334.8373,598.4928 23.024,-13.293 0,19.939 c 0,2.057 -0.548,4.035 -1.542,5.757 l -21.482,-12.403 z"
         style="fill:#2f5296;fill-opacity:1;fill-rule:nonzero;stroke:none"
         id="path5108-7" /><path
         d="m 334.8373,598.4928 21.482,12.403 c -0.994,1.721 -2.433,3.185 -4.214,4.213 l -17.268,9.97 0,-26.586 z"
         style="fill:#325295;fill-opacity:1;fill-rule:nonzero;stroke:none"
         id="path5110-4" /><path
         d="m 334.8373,625.0788 -17.269,9.97 c -1.781,1.028 -3.768,1.542 -5.755,1.542 l 0,-24.805 23.024,13.293 z"
         style="fill:#4379c6;fill-opacity:1;fill-rule:nonzero;stroke:none"
         id="path5112-0" /><path
         d="m 311.8132,611.7858 0,24.805 c -1.987,0 -3.975,-0.514 -5.755,-1.542 l -17.269,-9.97 23.024,-13.293 z"
         style="fill:#3f73bd;fill-opacity:1;fill-rule:nonzero;stroke:none"
         id="path5114-8" /><path
         d="m 288.7891,545.3209 23.024,13.293 -23.024,13.293 0,-26.586 z"
         style="fill:#50a0dd;fill-opacity:1;fill-rule:nonzero;stroke:none"
         id="path5116-4" /><path
         id="path5118-4"
         style="fill:#425da2;fill-opacity:1;fill-rule:nonzero;stroke:none"
         d="m 288.7891,598.4929 0,0 0,-26.586 23.024,13.293 0,0 -23.024,13.293 z" /><path
         id="path5120-6"
         style="fill:#487dc8;fill-opacity:1;fill-rule:nonzero;stroke:none"
         d="m 334.8371,571.9069 0,26.586 -23.024,-13.293 0,0 23.024,-13.293 z" /><path
         id="path5122-9"
         transform="matrix(0.8,0,0,-0.8,1.1171875e-4,1020.3178)"
         d="m 389.76562,543.89648 0,0.002 -28.77929,16.61523 28.77929,16.61719 28.78126,-16.61719 -28.78126,-16.61719 z"
         style="fill:#3f73bd;fill-opacity:1;fill-rule:nonzero;stroke:none" /><path
         id="path5124-5"
         style="fill:#2f5296;fill-opacity:1;fill-rule:nonzero;stroke:none"
         d="m 311.8133,585.1998 0,26.586 -23.024,-13.293 23.024,-13.293 z" /><path
         id="path5126-1"
         style="fill:#498cd2;fill-opacity:1;fill-rule:nonzero;stroke:none"
         d="m 311.8132,585.1998 23.024,13.293 -23.024,13.293 0,-26.586 z" /></g><g
       transform="matrix(0.23628996,0,0,0.23628996,318.87926,472.77428)"
       id="g4785"
       style="fill:#ffffff;fill-opacity:1"><path
         inkscape:connector-curvature="0"
         id="path4224"
         d="M 436.1,310.4 C 409.4,295 384.5,280.6 374.4,274.8 l 0,63.6 55.3,37.5 -55.3,-26.8 0,64 c 0.6,0.4 1.2,0.7 1.8,1.1 34.8,20.1 64,-32.2 84.9,-20.1 -20.9,-12.1 9.9,-63.5 -25,-83.7 z"
         class="st19"
         style="fill:#ffffff;fill-opacity:1" /><path
         inkscape:connector-curvature="0"
         id="path4226"
         d="m 163.9,291.6 c 26.7,15.4 51.6,29.8 61.7,35.6 l 0,-63.6 -55.3,-37.5 55.3,26.8 0,-64 c -0.6,-0.4 -1.2,-0.7 -1.8,-1.1 -34.8,-20.1 -64,32.2 -84.9,20.1 20.9,12.2 -9.9,63.6 25,83.7 z"
         class="st19"
         style="fill:#ffffff;fill-opacity:1" /><path
         inkscape:connector-curvature="0"
         id="path4228"
         d="m 300,151.3 4.5,61.2 55.4,-32 0,-2.1 c 0,-40.2 -59.9,-39.3 -59.9,-63.5 0,24.1 -59.9,23.2 -59.9,63.5 l 0,71.3 55.1,-31.8 4.8,-66.6 z"
         class="st19"
         style="fill:#ffffff;fill-opacity:1" /><path
         inkscape:connector-curvature="0"
         id="path4230"
         d="m 230.5,346.8 -60.1,29.1 50.8,-34.5 -55.4,-32 c -0.6,0.4 -1.2,0.7 -1.8,1.1 -34.8,20.1 -4.1,71.5 -25,83.6 20.9,-12.1 50.1,40.2 84.9,20.1 26.7,-15.4 51.6,-29.8 61.7,-35.6 l -55.1,-31.8 z"
         class="st19"
         style="fill:#ffffff;fill-opacity:1" /><path
         inkscape:connector-curvature="0"
         id="path4232"
         d="m 378.8,260.6 55.4,32 c 0.6,-0.4 1.2,-0.7 1.8,-1.1 34.8,-20.1 4.1,-71.5 25,-83.6 -20.9,12.1 -50.1,-40.2 -84.9,-20.1 -26.7,15.4 -51.6,29.8 -61.7,35.6 l 55,31.8 60.1,-29.1 -50.7,34.5 z"
         class="st19"
         style="fill:#ffffff;fill-opacity:1" /><path
         inkscape:connector-curvature="0"
         id="path4234"
         d="m 300,487.1 c 0,-24.1 59.9,-23.2 59.9,-63.5 l 0,-71.3 -55.1,31.8 -4.8,66.6 -4.5,-61.2 -55.4,32 0,2.1 c 0,40.2 59.9,39.3 59.9,63.5"
         class="st19"
         style="fill:#ffffff;fill-opacity:1" /><polygon
         id="polygon4236"
         points="300,357.7 250.7,329.2 250.7,272.3 300,243.9 349.3,272.3 349.3,329.2 "
         class="st19"
         style="fill:#ffffff;fill-opacity:1" /></g></g></svg>