<?xml version="1.0" encoding="UTF-8" standalone="no"?>
<svg
   xmlns:dc="http://purl.org/dc/elements/1.1/"
   xmlns:cc="http://creativecommons.org/ns#"
   xmlns:rdf="http://www.w3.org/1999/02/22-rdf-syntax-ns#"
   xmlns:svg="http://www.w3.org/2000/svg"
   xmlns="http://www.w3.org/2000/svg"
   xmlns:sodipodi="http://sodipodi.sourceforge.net/DTD/sodipodi-0.dtd"
   xmlns:inkscape="http://www.inkscape.org/namespaces/inkscape"
   id="svg6693"
   version="1.1"
   xml:space="preserve"
   width="169.02838"
   height="186.31958"
   viewBox="0 0 169.02838 186.31957"
   inkscape:version="0.48.4 r9939"
   inkscape:export-xdpi="532.45001"
   inkscape:export-ydpi="532.45001"><sodipodi:namedview
     pagecolor="#ffffff"
     bordercolor="#666666"
     borderopacity="1"
     objecttolerance="10"
     gridtolerance="10"
     guidetolerance="10"
     inkscape:pageopacity="0"
     inkscape:pageshadow="2"
     inkscape:window-width="1869"
     inkscape:window-height="1056"
     id="namedview60"
     showgrid="false"
     inkscape:zoom="5.5053034"
     inkscape:cx="88.690084"
     inkscape:cy="96.767412"
     inkscape:window-x="51"
     inkscape:window-y="24"
     inkscape:window-maximized="1"
     inkscape:current-layer="lion"
     showguides="true"
     inkscape:guide-bbox="true" /><metadata
     id="metadata6699"><rdf:RDF><cc:Work
         rdf:about=""><dc:format>image/svg+xml</dc:format><dc:type
           rdf:resource="http://purl.org/dc/dcmitype/StillImage" /><dc:title></dc:title></cc:Work></rdf:RDF></metadata><defs
     id="defs6697"><clipPath
       clipPathUnits="userSpaceOnUse"
       id="clipPath6707"><path
         d="m 0,870.236 623.626,0 L 623.626,0 0,0 0,870.236 Z"
         id="path6709" /></clipPath><clipPath
       clipPathUnits="userSpaceOnUse"
       id="clipPath6719"><path
         d="m 0,870.236 623.626,0 L 623.626,0 0,0 0,870.236 Z"
         id="path6721" /></clipPath><clipPath
       clipPathUnits="userSpaceOnUse"
       id="clipPath6731"><path
         d="m 0,870.236 623.626,0 L 623.626,0 0,0 0,870.236 Z"
         id="path6733" /></clipPath><clipPath
       id="clipPath4150"
       clipPathUnits="userSpaceOnUse"><path
         id="path4152"
         d="m 0,870.236 623.626,0 L 623.626,0 0,0 0,870.236 Z" /></clipPath><clipPath
       id="clipPath4162"
       clipPathUnits="userSpaceOnUse"><path
         id="path4164"
         d="m 0,870.236 623.626,0 L 623.626,0 0,0 0,870.236 Z" /></clipPath><clipPath
       id="clipPath4390"
       clipPathUnits="userSpaceOnUse"><path
         id="path4392"
         d="m 0,870.236 623.626,0 L 623.626,0 0,0 0,870.236 Z" /></clipPath><clipPath
       id="clipPath4398"
       clipPathUnits="userSpaceOnUse"><path
         id="path4400"
         d="m -80.514,14.173 -595.276,0 0,841.89 595.276,0 0,-841.89 z" /></clipPath><clipPath
       id="clipPath6707-4"
       clipPathUnits="userSpaceOnUse"><path
         id="path6709-2"
         d="m 0,870.236 623.626,0 L 623.626,0 0,0 0,870.236 Z" /></clipPath><clipPath
       id="clipPath6719-3"
       clipPathUnits="userSpaceOnUse"><path
         id="path6721-3"
         d="m 0,870.236 623.626,0 L 623.626,0 0,0 0,870.236 Z" /></clipPath><clipPath
       id="clipPath6731-1"
       clipPathUnits="userSpaceOnUse"><path
         id="path6733-5"
         d="m 0,870.236 623.626,0 L 623.626,0 0,0 0,870.236 Z" /></clipPath><clipPath
       clipPathUnits="userSpaceOnUse"
       id="clipPath4150-1"><path
         d="m 0,870.236 623.626,0 L 623.626,0 0,0 0,870.236 Z"
         id="path4152-0" /></clipPath><clipPath
       clipPathUnits="userSpaceOnUse"
       id="clipPath4162-3"><path
         d="m 0,870.236 623.626,0 L 623.626,0 0,0 0,870.236 Z"
         id="path4164-5" /></clipPath><clipPath
       clipPathUnits="userSpaceOnUse"
       id="clipPath4390-2"><path
         d="m 0,870.236 623.626,0 L 623.626,0 0,0 0,870.236 Z"
         id="path4392-2" /></clipPath><clipPath
       clipPathUnits="userSpaceOnUse"
       id="clipPath4398-1"><path
         d="m -80.514,14.173 -595.276,0 0,841.89 595.276,0 0,-841.89 z"
         id="path4400-4" /></clipPath></defs><g
     transform="matrix(1.2945423,0,0,1.2945423,-420.0547,-610.93861)"
     id="lion"><title
       id="title17040">lion</title><g
       id="g5080"
       transform="matrix(1.25,0,0,-1.25,-1.3964844e-4,1275.3973)"><path
         d="m 288.7891,571.9068 0,0 -21.482,-12.403 c 0.994,-1.721 2.433,-3.185 4.214,-4.213 l 17.268,-9.97 0,26.586 z"
         style="fill:#4c9edc;fill-opacity:1;fill-rule:nonzero;stroke:none"
         id="path5082-8" /><path
         d="m 265.7649,585.1998 0,-19.939 c 0,-2.057 0.549,-4.035 1.542,-5.756 l 21.482,12.402 -23.024,13.293 z"
         style="fill:#498cd2;fill-opacity:1;fill-rule:nonzero;stroke:none"
         id="path5084-8" /><path
         d="m 288.7891,571.9068 0,26.586 -23.024,-13.293 0,0 23.024,-13.293 z"
         style="fill:#487dc8;fill-opacity:1;fill-rule:nonzero;stroke:none"
         id="path5086-9" /><path
         d="m 288.7891,545.3209 0,0 17.268,-9.97 c 1.781,-1.028 3.769,-1.542 5.756,-1.542 l 0,24.805 -23.024,-13.293 z"
         style="fill:#5295d6;fill-opacity:1;fill-rule:nonzero;stroke:none"
         id="path5088-6" /><path
         d="m 267.3072,610.8954 c -0.994,-1.721 -1.542,-3.7 -1.542,-5.756 l 0,-19.94 23.024,13.293 -21.482,12.403 z"
         style="fill:#476bbc;fill-opacity:1;fill-rule:nonzero;stroke:none"
         id="path5090-0" /><path
         d="m 334.8373,545.3209 0,26.586 -23.024,-13.293 23.024,-13.293 z"
         style="fill:#7f9ad6;fill-opacity:1;fill-rule:nonzero;stroke:none"
         id="path5092-2" /><path
         d="m 356.3192,559.5043 c 0.994,1.721 1.542,3.7 1.542,5.756 l 0,19.939 -23.024,-13.293 21.482,-12.402 z"
         style="fill:#727ebd;fill-opacity:1;fill-rule:nonzero;stroke:none"
         id="path5094-5" /><path
         d="m 334.8373,571.9068 0,-26.586 17.268,9.97 c 1.781,1.028 3.22,2.492 4.214,4.214 l -21.482,12.402 z"
         style="fill:#8f9fd8;fill-opacity:1;fill-rule:nonzero;stroke:none"
         id="path5096-0" /><path
         d="m 334.8373,598.4928 0,0 0,-26.586 23.024,13.293 0,0 -23.024,13.293 z"
         style="fill:#425da2;fill-opacity:1;fill-rule:nonzero;stroke:none"
         id="path5098-9" /><path
         d="m 311.8132,558.6138 0,-24.805 c 1.987,0 3.975,0.514 5.756,1.542 l 17.268,9.97 -23.024,13.293 z"
         style="fill:#6495d5;fill-opacity:1;fill-rule:nonzero;stroke:none"
         id="path5100-5" /><path
         d="m 311.8132,611.7858 -23.024,13.293 0,-26.586 23.024,13.293 z"
         style="fill:#3a64ad;fill-opacity:1;fill-rule:nonzero;stroke:none"
         id="path5102-1" /><path
         d="m 311.8132,611.7858 23.024,-13.293 0,26.586 -23.024,-13.293 z"
         style="fill:#3a61a3;fill-opacity:1;fill-rule:nonzero;stroke:none"
         id="path5104-7" /><path
         d="m 267.3072,610.8954 21.482,-12.403 0,26.586 -17.268,-9.969 c -1.781,-1.029 -3.22,-2.493 -4.214,-4.214"
         style="fill:#32549d;fill-opacity:1;fill-rule:nonzero;stroke:none"
         id="path5106-7" /><path
         d="m 334.8373,598.4928 23.024,-13.293 0,19.939 c 0,2.057 -0.548,4.035 -1.542,5.757 l -21.482,-12.403 z"
         style="fill:#2f5296;fill-opacity:1;fill-rule:nonzero;stroke:none"
         id="path5108-7" /><path
         d="m 334.8373,598.4928 21.482,12.403 c -0.994,1.721 -2.433,3.185 -4.214,4.213 l -17.268,9.97 0,-26.586 z"
         style="fill:#325295;fill-opacity:1;fill-rule:nonzero;stroke:none"
         id="path5110-4" /><path
         d="m 334.8373,625.0788 -17.269,9.97 c -1.781,1.028 -3.768,1.542 -5.755,1.542 l 0,-24.805 23.024,13.293 z"
         style="fill:#4379c6;fill-opacity:1;fill-rule:nonzero;stroke:none"
         id="path5112-0" /><path
         d="m 311.8132,611.7858 0,24.805 c -1.987,0 -3.975,-0.514 -5.755,-1.542 l -17.269,-9.97 23.024,-13.293 z"
         style="fill:#3f73bd;fill-opacity:1;fill-rule:nonzero;stroke:none"
         id="path5114-8" /><path
         d="m 288.7891,545.3209 23.024,13.293 -23.024,13.293 0,-26.586 z"
         style="fill:#50a0dd;fill-opacity:1;fill-rule:nonzero;stroke:none"
         id="path5116-4" /><path
         id="path5118-4"
         style="fill:#425da2;fill-opacity:1;fill-rule:nonzero;stroke:none"
         d="m 288.7891,598.4929 0,0 0,-26.586 23.024,13.293 0,0 -23.024,13.293 z" /><path
         id="path5120-6"
         style="fill:#487dc8;fill-opacity:1;fill-rule:nonzero;stroke:none"
         d="m 334.8371,571.9069 0,26.586 -23.024,-13.293 0,0 23.024,-13.293 z" /><path
         id="path5122-9"
         transform="matrix(0.8,0,0,-0.8,1.1171875e-4,1020.3178)"
         d="m 389.76562,543.89648 0,0.002 -28.77929,16.61523 28.77929,16.61719 28.78126,-16.61719 -28.78126,-16.61719 z"
         style="fill:#3f73bd;fill-opacity:1;fill-rule:nonzero;stroke:none" /><path
         id="path5124-5"
         style="fill:#2f5296;fill-opacity:1;fill-rule:nonzero;stroke:none"
         d="m 311.8133,585.1998 0,26.586 -23.024,-13.293 23.024,-13.293 z" /><path
         id="path5126-1"
         style="fill:#498cd2;fill-opacity:1;fill-rule:nonzero;stroke:none"
         d="m 311.8132,585.1998 23.024,13.293 -23.024,13.293 0,-26.586 z" /></g><path
       inkscape:connector-curvature="0"
       d="m 482.01174,471.66254 c -0.68267,-0.39299 -1.38659,-0.71936 -2.10209,-0.9878 5.13212,4.24957 6.59886,11.70105 3.15169,17.65972 -3.45199,5.95674 -10.65338,8.3852 -16.8911,6.04943 0.58804,0.4857 1.22147,0.93373 1.90415,1.32576 6.63941,3.85175 15.14048,1.58937 18.98933,-5.05101 3.85175,-6.63941 1.59033,-15.14532 -5.05198,-18.9961"
       style="fill:#ffffff;fill-opacity:1;fill-rule:nonzero;stroke:none"
       id="path255" /><g
       style="display:inline;fill:#ffffff;fill-opacity:1;stroke:#ffffff;stroke-opacity:1"
       id="g11"
       transform="matrix(0.1267633,0,0,-0.1267633,352.25483,597.47421)"><path
         style="fill:#ffffff;fill-opacity:1;stroke:#ffffff;stroke-width:2.96942591999999994;stroke-linecap:butt;stroke-linejoin:miter;stroke-miterlimit:10;stroke-opacity:1;stroke-dasharray:none"
         id="path15"
         d="m -16.995907,679.33823 -0.164042,-77.45929 54.887495,-54.88749 8.595653,0 -16.436718,-16.43672 0,-221.78093 16.60076,-16.60076 -8.759695,0.16404 -54.887495,-54.8875 0,-77.62333 54.723453,-54.72345 77.623326,0 54.8875,54.8875 -0.16404,8.7597 16.60076,-16.60076 94.81463,0 0.0328,42.94544 -76.90154,0 -41.27225,41.27223 -36.21985,-36.21983 0,-22.44056 -29.49423,-29.49423 -42.026839,-0.16404 -29.658271,29.65827 0.164042,42.02684 29.494229,29.49423 22.440563,0 36.219846,36.21985 -41.27225,41.27225 0,76.90154 -5.610136,-0.0328 0,-79.13248 39.008486,-39.00851 -30.609688,-30.60972 -22.40775,-0.0328 -32.840643,-32.84063 -0.196835,-46.45588 33.07029,-33.0703 46.455886,0.19684 32.84064,32.84065 0.0328,22.40774 30.60972,30.60969 38.81165,-38.81165 73.75201,-0.19685 0,-31.75798 -86.97356,0.0328 -24.47464,24.47464 0,-19.81593 -51.5411,-51.5411 -72.800574,0.0328 -51.311435,51.31143 -0.229666,72.99743 51.541101,51.54109 20.012778,-0.19684 -24.474637,24.47464 0,216.92536 24.63868,24.63869 -20.176821,-0.0328 -51.541101,51.5411 0.03281,72.80058 51.50829,51.50829 72.800575,0.0328 51.5411,-51.5411 0.16404,-19.97997 24.47465,24.47464 105.67401,-0.0328 -0.0328,-31.72516 -92.58371,0 -38.81165,-38.81167 -30.60972,30.60971 -0.0328,22.40774 -32.840641,32.84065 -46.488698,-0.16404 -32.873435,-32.87345 0.03279,-46.29185 32.840643,-32.84065 22.40775,-0.0328 30.609691,-30.60971 -39.008489,-39.00851 0.196836,-79.32932 5.577343,0 -0.164043,77.06558 41.272253,41.27225 -36.055807,36.0558 -22.604605,0.16405 -29.494229,29.49423 0.03281,41.82999 29.658271,29.65826 41.829984,0.0328 29.494226,-29.49423 0,-22.76865 36.05581,-36.05579 41.43629,41.43628 185.88915,0 41.27225,-41.27225 36.0558,36.0558 0.16405,22.60461 29.49423,29.49423 41.82998,-0.0328 29.65829,-29.65826 0.0328,-41.82999 -29.49423,-29.49423 -22.60461,-0.16405 -36.0558,-36.0558 41.27225,-41.27225 -0.16405,-77.06558 5.57735,0 0,79.52618 -38.81165,38.81165 30.41285,30.41286 22.60458,0.22964 32.84065,32.84065 0.0328,46.29185 -33.07029,33.07029 -46.29185,-0.0328 -32.84065,-32.84065 -0.22964,-22.6046 -30.41286,-30.41285 -39.00851,39.00851 -92.38685,-0.19684 -0.0328,31.72516 105.67401,0.0328 24.47465,-24.47464 -0.0328,20.17683 51.5411,51.54109 72.99744,-0.22966 51.31143,-51.31143 0.0328,-72.80058 -51.5411,-51.5411 -19.97997,-0.16404 24.47464,-24.47465 0,-216.92535 -24.47464,-24.47465 19.97997,-0.16404 51.5411,-51.5411 -0.0328,-72.80058 -51.50829,-51.50829 -72.80058,-0.0328 -51.5411,51.54109 0.0328,20.17682 -24.63869,-24.63867 -105.70682,0 0.0328,31.72516 92.58369,0 39.00851,39.0085 30.41286,-30.41285 0.22964,-22.60458 32.84065,-32.84065 46.29185,-0.0328 32.87345,32.87346 0.16404,46.48869 -32.84065,32.84063 -22.60458,0.22966 -30.41285,30.41286 38.81165,38.81165 0,79.52618 -5.57735,0 0.16405,-77.06558 -41.43628,-41.43629 36.0558,-36.05581 22.57178,0.19686 29.69109,-29.69109 -0.0328,-41.82999 -29.65829,-29.65828 -41.82998,-0.0328 -29.69109,29.69108 0.0328,22.40776 -36.0558,36.05578 -41.27225,-41.27223 -90.35276,0 0.22965,31.92201 76.90155,0 54.49381,54.49381 62.17083,-62.17084 3.93695,3.93693 -62.17084,62.17085 54.49381,54.49381 0,159.44603 -54.49381,54.49381 62.17084,62.17083 -3.93695,3.93693 -62.17083,-62.17082 -54.49381,54.49381 -63.84402,0 0,-5.57733 61.58028,-0.0328 109.57816,-109.57816 0,-154.91855 -109.57816,-109.57816 -74.67061,0 0.0328,31.72518 61.58031,-0.0328 90.94329,90.94329 -0.0328,48.52278 -5.57733,0 -0.22964,-46.09499 -87.72814,-87.72814 -58.98848,0 0.0328,31.72516 45.89815,-0.0328 69.09331,69.09329 0,97.83295 -68.89645,68.89645 -46.29185,-0.0328 0.16404,31.92202 59.18532,-0.19686 87.5313,-87.53128 0.22964,-46.09499 5.57733,0 -0.16404,48.32592 -90.9433,90.9433 -128.60669,0.19685 -90.94329,-90.94329 0.0328,-61.58031 -31.72518,-0.0328 0,74.67061 109.57816,109.57816 61.58028,0.0328 0,5.57733 -63.84402,0 -54.49381,-54.49381 -62.17083,62.17082 -3.936936,-3.93693 62.170826,-62.17083 -54.49381,-54.49381 -0.19685,-159.64289 45.17638,-45.17638 4.13379,4.13379 -43.50318,43.50319 0,74.67061 31.72518,-0.0328 -0.0328,-61.58029 90.94329,-90.94329 48.52278,0.0328 0,5.57732 -46.29185,0.0328 -87.53128,87.53128 0,123.94799 87.72814,87.72812 59.18532,0.19686 -0.19684,-31.8892 -45.93097,0 -69.09329,-69.09331 0.19684,-97.63609 68.89645,-68.89645 33.03748,-0.16404 -0.19684,5.77418 -30.41285,-0.16402 -65.87812,65.87812 0,43.70002 31.8892,-0.19684 0,-30.24884 47.24328,-47.24326 17.19129,0 -0.0328,5.61013 -14.89475,0 -43.89689,43.89687 0,61.94119 43.89689,43.89689 14.89475,0 0.0328,5.61013 -17.19129,0 -47.24328,-47.24328 0.0328,-30.6097 -31.92201,0.16404 0,43.70002 65.71408,65.71408 92.94458,-0.0328 65.87811,-65.87811 0.0328,-43.66723 -31.92201,0.16404 0.19685,30.44566 -47.24328,47.24328 -17.38814,-0.19685 0.0328,-5.61014 15.09161,0.19686 43.89687,-43.89689 0,-61.94119 -40.32084,-40.32081 0,-7.87387 45.93097,45.93094 -0.19685,30.44568 31.88921,-0.19684 0.0328,-43.66722 -65.71408,-65.71408 -43.70002,0 -0.19685,56.16699 -25.72133,0 -33.0703,33.0703 0,46.25903 32.87345,32.87346 46.45588,0.19683 33.07029,-33.07029 -0.19683,-46.45588 -32.87346,-32.87345 -7.28333,0.19684 0,-43.30632 25.22922,0.16404 58.06985,58.06984 -0.0328,25.03238 -5.57733,0 0,-22.76863 -54.72346,-54.72345 -17.35534,-0.16405 0,32.08606 3.93694,-0.19685 36.21985,36.21984 0,51.18023 -36.02299,36.02299 -22.76865,0 -0.22965,31.92201 36.21984,0 54.72346,-54.72345 -0.19685,-22.96548 5.61016,0.0328 0.19683,25.19642 -58.06985,58.06984 -82.15082,0 -58.06984,-58.06984 -0.16404,-25.22923 5.61013,0.0328 0.16405,22.93267 54.72345,54.72345 35.82616,0 0.16404,-31.92201 -22.76865,0 -36.21983,-36.21985 0.0328,-51.14741 36.02299,-36.02299 22.76865,0 0,-31.75797 -35.82616,0 -54.72345,54.72345 0,22.76863 -5.57733,0 -0.0328,-25.03238 58.06984,-58.06984 38.08991,0.0328 0.19684,-31.95482 -51.54111,0.0328 -76.7047,76.7047 0,108.65953 76.7047,76.70472 38.28674,-0.16404 0,5.57732 -40.51767,0.22967 -80.11672,-80.11672 0,-113.12141 80.11672,-80.11672 53.77204,0.0328 0,-31.75797 -67.02641,-0.16404 -98.75155,98.75156 0.19685,53.93607 -5.61014,0.0328 -0.0328,-56.39665 101.76988,-101.7699 69.45417,0.0328 0,-31.75798 -82.5117,0.0328 -48.91646,48.91646 -54.88749,-54.8875 0,-22.44057 -18.66767,-18.66764 -26.508712,0 -18.503624,18.50363 0,26.5087 18.667665,18.66768 22.440544,0 54.887497,54.88749 -48.916464,48.91646 -0.196854,170.40387 49.113318,49.11332 -54.887497,54.88749 -22.440544,0 -18.667665,18.66768 0.03281,26.14783 18.667648,18.66764 26.311877,0.19686 18.667671,-18.66766 0,-22.44055 54.88749,-54.8875 48.91646,48.91646 82.5117,0.0328 0,-31.75798 -69.25734,-0.16403 -101.93391,-101.93393 0,-56.03577 5.61014,0.0328 0,53.73922 98.5547,98.55472 139.43329,0.19684 98.75157,-98.75156 0.0328,-66.82955 -31.75797,0 0.0328,53.77204 -80.11672,80.11672 -40.71452,-0.0328 0.0328,-5.61014 38.25392,-0.19685 76.70471,-76.70471 0,-108.26583 -76.70471,-76.70471 -38.25392,-0.19685 -0.0328,-5.61014 40.71452,-0.0328 80.11672,80.11672 -0.0328,53.77204 31.75797,0 -0.22965,-67.0264 -98.55472,-98.55472 -53.73922,0 -0.0328,-5.61013 56.03577,0 101.93393,101.93391 0,144.092 -101.76989,101.76989 -69.25733,0.16403 0,31.75798 82.5117,-0.0328 48.91646,-48.91646 54.88749,54.8875 0,22.44055 18.66768,18.66766 26.31187,-0.19686 18.5036,-18.5036 0.19686,-26.31187 -18.66766,-18.66768 -22.44055,0 -54.8875,-54.88749 48.91646,-48.91648 0,-170.60071 -48.91646,-48.91646 54.8875,-54.88749 22.44055,0 18.66766,-18.66768 -0.19686,-26.31187 -18.66764,-18.66765 -26.14783,-0.0328 -18.66768,18.66764 0,22.44057 -54.88749,54.8875 -49.11332,-49.11332 -69.22451,0.19686 -0.0328,-5.61016 71.71792,0 46.65272,46.65274 48.91648,-48.91647 0.3937,-22.76864 21.8172,-21.81721 31.0034,-0.0328 21.85,21.85002 -0.0328,31.0034 -21.81721,21.8172 -22.76864,0.3937 -48.91647,48.91648 46.65272,46.65272 0,84.77544 31.75799,0 0.16405,-97.99699 -33.59524,-33.59521 17.38816,-17.38816 22.37494,0 40.51767,-40.51767 0.16404,-57.31528 -40.48487,-40.48486 -57.51212,-0.0328 -40.51766,40.51766 0.0328,22.40775 -17.38816,17.38816 -33.43117,-33.43119 -85.10352,0 -0.0328,-5.61013 87.40007,0 31.16743,31.16745 11.74521,-11.74522 0.0328,-22.40775 43.86408,-43.86406 61.974,-0.0328 43.89687,43.89687 -0.0328,61.974 -43.86406,43.86406 -22.40775,0.0328 -11.74522,11.74522 31.16745,31.16743 0,206.09877 -31.16745,31.16745 11.74522,11.74521 22.40775,0.0328 43.86406,43.86408 0.0328,61.974 -43.89687,43.89687 -61.974,-0.0328 -43.86408,-43.86406 -0.0328,-22.40775 -11.74521,-11.74522 -31.16743,31.16745 -87.20321,-0.19686 0.0328,-5.61013 84.90666,0.19686 33.59521,-33.59524 17.38815,17.38816 -0.19684,22.57178 40.51766,40.51768 57.51212,-0.0328 40.48487,-40.48487 0.0328,-57.51212 -40.51768,-40.51766 -22.57178,0.19684 -17.38816,-17.38815 33.59524,-33.59523 -0.16405,-97.99697 -31.75799,0 0,84.77542 -46.65272,46.65274 49.27736,49.27736 22.40775,0.0328 21.81721,21.8172 0.0328,31.0034 -21.85,21.85 -31.0034,-0.0328 -21.8172,-21.81721 -0.0328,-22.40775 -49.27736,-49.27736 -46.65272,46.65272 -175.12819,0 -46.65274,-46.65272 -49.27736,49.27736 -0.0328,22.40775 -21.817197,21.81721 -31.003403,0.0328 -21.849999,-21.85 0.03279,-31.0034 21.817206,-21.8172 22.407751,-0.0328 49.277362,-49.27736 -46.652724,-46.65274 0,-84.77542 -31.922032,-0.16404 0,98.16101 33.431187,33.43119 -17.388159,17.38816 -22.407731,-0.0328 -40.517682,40.51766 0.032812,57.51212 40.48487,40.48487 57.315259,-0.16404 40.51768,-40.51767 0,-22.37494 17.38815,-17.38816 33.59521,33.59524 84.90666,-0.19686 0.0328,5.61013 -87.20319,0.19686 -31.16745,-31.16745 -11.74522,11.74522 -0.0328,22.40775 -43.86407,43.86406 -61.973998,0.0328 -43.8968691,-43.89687 0.032812,-61.974 43.8640571,-43.86408 22.40775,-0.0328 11.745212,-11.74521 -31.167445,-31.16745 0,-206.09877 31.167445,-31.16743 -11.942047,-11.94205 -22.407751,-0.0328 -43.8640755,-43.86408 0,-61.94118 43.8968875,-43.89687 61.941182,0 43.86406,43.86408 0.0328,22.40774 11.94205,11.94206 31.16745,-31.16745 68.30588,0 0.0328,5.61013 -66.07497,0 -33.59521,33.59524 -17.38815,-17.38816 0,-22.76863 -40.51768,-40.51767 -57.315259,0.22964 -40.4848702,40.48486 -0.2296479,57.31528 40.5176631,40.51767 22.768629,0 17.388158,17.38816 -33.595229,33.59521 -0.03279,97.80015 31.954825,0.19684 -0.196854,-84.97228 46.652735,-46.65274 -49.080519,-49.0805 -22.407751,-0.0328 -22.014041,-22.01406 0,-30.97059 21.850018,-21.85 30.970591,0 22.014032,22.01405 0.0328,22.40775 49.0805,49.08051 46.65274,-46.65273 84.97228,0.19684 -0.22965,-56.19979 113.90878,0 16.43672,16.43671 0,-8.59565 54.69066,-54.69066 77.65612,-0.0328 54.72345,54.72345 -0.0328,77.65612 -54.69064,54.69066 -8.7597,-0.16404 16.60076,16.60076 0,221.78093 -16.60076,16.60076 8.7597,-0.16404 54.8875,54.88749 -0.16405,77.45929 -54.72345,54.72345 -77.45929,0.16405 -54.88749,-54.8875 0.16404,-8.7597 -16.60076,16.60076 -221.78093,0 -16.60076,-16.60076 0.16404,8.7597 -54.8875,54.8875 -77.459281,-0.16405 -54.723453,-54.72345 z m 113.908785,-456.22567 3.936932,-3.93693 62.13802,62.13801 54.49381,-54.4938 64.04088,0.19685 0,5.57733 -61.58028,0.0328 -56.75755,56.75755 -66.271812,-66.27182 z"
         inkscape:connector-curvature="0" /></g></g></svg>