<?xml version="1.0" encoding="UTF-8" standalone="no"?>
<svg xmlns:dc="http://purl.org/dc/elements/1.1/" xmlns:cc="http://creativecommons.org/ns#" xmlns:rdf="http://www.w3.org/1999/02/22-rdf-syntax-ns#" xmlns:svg="http://www.w3.org/2000/svg" xmlns="http://www.w3.org/2000/svg" xmlns:sodipodi="http://sodipodi.sourceforge.net/DTD/sodipodi-0.dtd" xmlns:inkscape="http://www.inkscape.org/namespaces/inkscape" id="svg6693" version="1.1" xml:space="preserve" width="169.02838" height="186.31958" viewBox="0 0 169.02838 186.31957" inkscape:version="0.91 r13725" inkscape:export-xdpi="532.45001" inkscape:export-ydpi="532.45001"><sodipodi:namedview pagecolor="#ffffff" bordercolor="#666666" borderopacity="1" objecttolerance="10" gridtolerance="10" guidetolerance="10" inkscape:pageopacity="0" inkscape:pageshadow="2" inkscape:window-width="1869" inkscape:window-height="1056" id="namedview60" showgrid="false" inkscape:zoom="2.7526517" inkscape:cx="77.254411" inkscape:cy="115.94054" inkscape:window-x="51" inkscape:window-y="24" inkscape:window-maximized="1" inkscape:current-layer="lion" showguides="true" inkscape:guide-bbox="true"/><metadata id="metadata6699"><rdf:RDF><cc:Work rdf:about=""><dc:format>image/svg+xml</dc:format><dc:type rdf:resource="http://purl.org/dc/dcmitype/StillImage"/><dc:title/></cc:Work></rdf:RDF></metadata><defs id="defs6697"><clipPath clipPathUnits="userSpaceOnUse" id="clipPath6707"><path d="m 0,870.236 623.626,0 L 623.626,0 0,0 0,870.236 Z" id="path6709"/></clipPath><clipPath clipPathUnits="userSpaceOnUse" id="clipPath6719"><path d="m 0,870.236 623.626,0 L 623.626,0 0,0 0,870.236 Z" id="path6721"/></clipPath><clipPath clipPathUnits="userSpaceOnUse" id="clipPath6731"><path d="m 0,870.236 623.626,0 L 623.626,0 0,0 0,870.236 Z" id="path6733"/></clipPath><clipPath id="clipPath4150" clipPathUnits="userSpaceOnUse"><path id="path4152" d="m 0,870.236 623.626,0 L 623.626,0 0,0 0,870.236 Z"/></clipPath><clipPath id="clipPath4162" clipPathUnits="userSpaceOnUse"><path id="path4164" d="m 0,870.236 623.626,0 L 623.626,0 0,0 0,870.236 Z"/></clipPath><clipPath id="clipPath4390" clipPathUnits="userSpaceOnUse"><path id="path4392" d="m 0,870.236 623.626,0 L 623.626,0 0,0 0,870.236 Z"/></clipPath><clipPath id="clipPath4398" clipPathUnits="userSpaceOnUse"><path id="path4400" d="m -80.514,14.173 -595.276,0 0,841.89 595.276,0 0,-841.89 z"/></clipPath><clipPath id="clipPath6707-4" clipPathUnits="userSpaceOnUse"><path id="path6709-2" d="m 0,870.236 623.626,0 L 623.626,0 0,0 0,870.236 Z"/></clipPath><clipPath id="clipPath6719-3" clipPathUnits="userSpaceOnUse"><path id="path6721-3" d="m 0,870.236 623.626,0 L 623.626,0 0,0 0,870.236 Z"/></clipPath><clipPath id="clipPath6731-1" clipPathUnits="userSpaceOnUse"><path id="path6733-5" d="m 0,870.236 623.626,0 L 623.626,0 0,0 0,870.236 Z"/></clipPath><clipPath clipPathUnits="userSpaceOnUse" id="clipPath4150-1"><path d="m 0,870.236 623.626,0 L 623.626,0 0,0 0,870.236 Z" id="path4152-0"/></clipPath><clipPath clipPathUnits="userSpaceOnUse" id="clipPath4162-3"><path d="m 0,870.236 623.626,0 L 623.626,0 0,0 0,870.236 Z" id="path4164-5"/></clipPath><clipPath clipPathUnits="userSpaceOnUse" id="clipPath4390-2"><path d="m 0,870.236 623.626,0 L 623.626,0 0,0 0,870.236 Z" id="path4392-2"/></clipPath><clipPath clipPathUnits="userSpaceOnUse" id="clipPath4398-1"><path d="m -80.514,14.173 -595.276,0 0,841.89 595.276,0 0,-841.89 z" id="path4400-4"/></clipPath></defs><g transform="matrix(1.2945423,0,0,1.2945423,-420.0547,-610.93861)" id="lion"><title id="title17040">lion</title><g id="g5080" transform="matrix(1.25,0,0,-1.25,-1.3964844e-4,1275.3973)"><path d="m 288.7891,571.9068 0,0 -21.482,-12.403 c 0.994,-1.721 2.433,-3.185 4.214,-4.213 l 17.268,-9.97 0,26.586 z" style="fill:#4c9edc;fill-opacity:1;fill-rule:nonzero;stroke:none" id="path5082-8"/><path d="m 265.7649,585.1998 0,-19.939 c 0,-2.057 0.549,-4.035 1.542,-5.756 l 21.482,12.402 -23.024,13.293 z" style="fill:#498cd2;fill-opacity:1;fill-rule:nonzero;stroke:none" id="path5084-8"/><path d="m 288.7891,571.9068 0,26.586 -23.024,-13.293 0,0 23.024,-13.293 z" style="fill:#487dc8;fill-opacity:1;fill-rule:nonzero;stroke:none" id="path5086-9"/><path d="m 288.7891,545.3209 0,0 17.268,-9.97 c 1.781,-1.028 3.769,-1.542 5.756,-1.542 l 0,24.805 -23.024,-13.293 z" style="fill:#5295d6;fill-opacity:1;fill-rule:nonzero;stroke:none" id="path5088-6"/><path d="m 267.3072,610.8954 c -0.994,-1.721 -1.542,-3.7 -1.542,-5.756 l 0,-19.94 23.024,13.293 -21.482,12.403 z" style="fill:#476bbc;fill-opacity:1;fill-rule:nonzero;stroke:none" id="path5090-0"/><path d="m 334.8373,545.3209 0,26.586 -23.024,-13.293 23.024,-13.293 z" style="fill:#7f9ad6;fill-opacity:1;fill-rule:nonzero;stroke:none" id="path5092-2"/><path d="m 356.3192,559.5043 c 0.994,1.721 1.542,3.7 1.542,5.756 l 0,19.939 -23.024,-13.293 21.482,-12.402 z" style="fill:#727ebd;fill-opacity:1;fill-rule:nonzero;stroke:none" id="path5094-5"/><path d="m 334.8373,571.9068 0,-26.586 17.268,9.97 c 1.781,1.028 3.22,2.492 4.214,4.214 l -21.482,12.402 z" style="fill:#8f9fd8;fill-opacity:1;fill-rule:nonzero;stroke:none" id="path5096-0"/><path d="m 334.8373,598.4928 0,0 0,-26.586 23.024,13.293 0,0 -23.024,13.293 z" style="fill:#425da2;fill-opacity:1;fill-rule:nonzero;stroke:none" id="path5098-9"/><path d="m 311.8132,558.6138 0,-24.805 c 1.987,0 3.975,0.514 5.756,1.542 l 17.268,9.97 -23.024,13.293 z" style="fill:#6495d5;fill-opacity:1;fill-rule:nonzero;stroke:none" id="path5100-5"/><path d="m 311.8132,611.7858 -23.024,13.293 0,-26.586 23.024,13.293 z" style="fill:#3a64ad;fill-opacity:1;fill-rule:nonzero;stroke:none" id="path5102-1"/><path d="m 311.8132,611.7858 23.024,-13.293 0,26.586 -23.024,-13.293 z" style="fill:#3a61a3;fill-opacity:1;fill-rule:nonzero;stroke:none" id="path5104-7"/><path d="m 267.3072,610.8954 21.482,-12.403 0,26.586 -17.268,-9.969 c -1.781,-1.029 -3.22,-2.493 -4.214,-4.214" style="fill:#32549d;fill-opacity:1;fill-rule:nonzero;stroke:none" id="path5106-7"/><path d="m 334.8373,598.4928 23.024,-13.293 0,19.939 c 0,2.057 -0.548,4.035 -1.542,5.757 l -21.482,-12.403 z" style="fill:#2f5296;fill-opacity:1;fill-rule:nonzero;stroke:none" id="path5108-7"/><path d="m 334.8373,598.4928 21.482,12.403 c -0.994,1.721 -2.433,3.185 -4.214,4.213 l -17.268,9.97 0,-26.586 z" style="fill:#325295;fill-opacity:1;fill-rule:nonzero;stroke:none" id="path5110-4"/><path d="m 334.8373,625.0788 -17.269,9.97 c -1.781,1.028 -3.768,1.542 -5.755,1.542 l 0,-24.805 23.024,13.293 z" style="fill:#4379c6;fill-opacity:1;fill-rule:nonzero;stroke:none" id="path5112-0"/><path d="m 311.8132,611.7858 0,24.805 c -1.987,0 -3.975,-0.514 -5.755,-1.542 l -17.269,-9.97 23.024,-13.293 z" style="fill:#3f73bd;fill-opacity:1;fill-rule:nonzero;stroke:none" id="path5114-8"/><path d="m 288.7891,545.3209 23.024,13.293 -23.024,13.293 0,-26.586 z" style="fill:#50a0dd;fill-opacity:1;fill-rule:nonzero;stroke:none" id="path5116-4"/><path id="path5118-4" style="fill:#425da2;fill-opacity:1;fill-rule:nonzero;stroke:none" d="m 288.7891,598.4929 0,0 0,-26.586 23.024,13.293 0,0 -23.024,13.293 z"/><path id="path5120-6" style="fill:#487dc8;fill-opacity:1;fill-rule:nonzero;stroke:none" d="m 334.8371,571.9069 0,26.586 -23.024,-13.293 0,0 23.024,-13.293 z"/><path id="path5122-9" transform="matrix(0.8,0,0,-0.8,1.1171875e-4,1020.3178)" d="m 389.76562,543.89648 0,0.002 -28.77929,16.61523 28.77929,16.61719 28.78126,-16.61719 -28.78126,-16.61719 z" style="fill:#3f73bd;fill-opacity:1;fill-rule:nonzero;stroke:none"/><path id="path5124-5" style="fill:#2f5296;fill-opacity:1;fill-rule:nonzero;stroke:none" d="m 311.8133,585.1998 0,26.586 -23.024,-13.293 23.024,-13.293 z"/><path id="path5126-1" style="fill:#498cd2;fill-opacity:1;fill-rule:nonzero;stroke:none" d="m 311.8132,585.1998 23.024,13.293 -23.024,13.293 0,-26.586 z"/></g><g inkscape:label="Meubles" id="g13310" transform="matrix(0.18588844,0,0,0.18588844,333.99972,489.24636)" style="fill:#ffffff;fill-opacity:1;stroke:none;stroke-width:0.48436078;stroke-miterlimit:4;stroke-dasharray:none;stroke-opacity:1"><g style="display:inline;fill:#ffffff;fill-opacity:1;stroke:none;stroke-width:0.30485988;stroke-miterlimit:4;stroke-dasharray:none;stroke-opacity:1" transform="matrix(1.588788,0,0,1.588808,-3197.717,-727.3813)" id="g16252"><path inkscape:connector-curvature="0" style="fill:#ffffff;fill-opacity:1;fill-rule:evenodd;stroke:none;stroke-width:0.30485988;stroke-linecap:butt;stroke-linejoin:miter;stroke-miterlimit:4;stroke-dasharray:none;stroke-opacity:1" d="m 2201.4845,500.70333 c -4.7445,0 -9.4057,0.2639 -14.0313,0.71875 -0.2868,12.97986 -10.9206,23.43752 -23.9687,23.4375 -5.1093,-8e-5 -9.8347,-1.63974 -13.7188,-4.375 -2.2056,-2.45229 -4.4786,-4.85284 -6.8125,-7.1875 -5.4822,2.48316 -10.7899,5.30529 -15.875,8.4375 1.8116,1.69271 3.5803,3.41917 5.3125,5.1875 0.9351,1.11745 1.9518,2.14558 3,3.15625 0.068,0.0658 0.1188,0.15342 0.1875,0.21875 22.38,24.1556 37.657,54.94886 42.5,89.125 -38.3346,-5.42977 -72.4383,-23.98976 -97.6562,-50.96875 -3.1307,5.08128 -5.9862,10.36584 -8.4688,15.84375 2.0007,1.9988 4.0376,3.96832 6.125,5.875 3.3757,4.13081 5.4062,9.41583 5.4063,15.15625 -1e-4,13.06932 -10.491,23.68449 -23.5,23.9375 -0.425,4.47328 -0.6251,9.00982 -0.625,13.59375 0,4.89355 0.2352,9.73331 0.7187,14.5 12.9652,0.30349 23.4062,10.93119 23.4063,23.96875 -1e-4,4.66188 -1.3433,9.01161 -3.6563,12.6875 -2.694,2.39906 -5.3195,4.86243 -7.875,7.4063 2.5682,5.6668 5.5205,11.1335 8.7813,16.375 25.1633,-26.77177 59.0893,-45.19557 97.2187,-50.62505 -5.5898,37.99185 -24.0768,71.78525 -50.875,96.81255 5.093,3.1371 10.4149,5.9515 15.9063,8.4375 2.038,-2.0283 4.0306,-4.0928 5.9687,-6.2188 4.1126,-3.3169 9.3155,-5.3124 15,-5.3125 13.0587,10e-5 23.6679,10.4742 23.9375,23.4688 4.4835,0.4269 8.999,0.6562 13.5938,0.6562 4.8935,0 9.7333,-0.2665 14.5,-0.75 0,-3e-4 0.031,3e-4 0.031,0 0.3203,-12.9502 10.9108,-23.375 23.9375,-23.375 4.6794,10e-5 9.0341,1.3899 12.7188,3.7188 2.3852,2.6766 4.844,5.2811 7.375,7.8125 5.6759,-2.571 11.1569,-5.5156 16.4062,-8.7813 -26.5665,-24.9688 -44.9135,-58.5778 -50.5,-96.34375 37.7562,5.58971 71.3818,23.91034 96.3438,50.46875 3.2615,-5.2462 6.1822,-10.7342 8.75,-16.4062 -2.3226,-2.32558 -4.7095,-4.58075 -7.1563,-6.7813 -2.7264,-3.88977 -4.3437,-8.61826 -4.3437,-13.71875 10e-5,-13.03745 10.441,-23.63489 23.4062,-23.9375 0.4548,-4.62558 0.6875,-9.31801 0.6875,-14.0625 0,-4.73391 -0.2347,-9.4157 -0.6875,-14.03125 -12.9653,-0.30344 -23.4062,-10.93116 -23.4062,-23.96875 10e-5,-5.12497 1.6243,-9.8592 4.375,-13.75 2.4304,-2.18711 4.8158,-4.43881 7.125,-6.75 -2.486,-5.49134 -5.3004,-10.81321 -8.4375,-15.90625 -1.7668,1.89537 -3.5818,3.7532 -5.4375,5.5625 -1.0978,0.93785 -2.1643,1.92066 -3.1563,2.96875 -23.9289,22.14845 -54.3982,37.33603 -88.1875,42.3125 5.4331,-38.12885 23.8756,-72.06549 50.6563,-97.21875 -5.2482,-3.26636 -10.7314,-6.20943 -16.4063,-8.78125 -2.3091,2.31661 -4.5599,4.69301 -6.75,7.125 -3.9111,2.77508 -8.6935,4.43741 -13.8437,4.4375 -13.0481,-1.7e-4 -23.6514,-10.45766 -23.9375,-23.4375 -4.6256,-0.45485 -9.3181,-0.71875 -14.0625,-0.71875 z m 0,14.40625 c 5.4852,14.65345 19.2193,25.25893 35.5312,26.25 -18.591,27.8166 -29.7948,60.96631 -30.7187,96.6875 35.7195,-0.91794 68.9048,-12.07803 96.7187,-30.65625 1.0096,16.28659 11.6475,29.97823 26.2813,35.46875 -14.6483,5.48332 -25.2839,19.1956 -26.2813,35.5 -27.8138,-18.5782 -60.9991,-29.76931 -96.7187,-30.6875 0.9235,35.7122 12.1362,68.87535 30.7187,96.68755 -16.1071,1.1604 -29.6178,11.7696 -35.0625,26.2812 -5.5304,-14.7738 -19.4178,-25.4737 -35.9062,-26.3125 18.5586,-27.8036 29.7016,-60.9561 30.625,-96.65625 -35.7135,0.92401 -68.8445,12.13636 -96.6563,30.71875 -1.1604,-16.10716 -11.7698,-29.6178 -26.2812,-35.0625 14.7805,-5.53279 25.4823,-19.43906 26.3125,-35.9375 27.8043,18.56783 60.9271,29.73277 96.625,30.65625 -0.9242,-35.72327 -12.0746,-68.8717 -30.6563,-96.6875 16.2943,-1.00304 29.9763,-11.61102 35.4688,-26.25 z" id="path14367"/><g style="fill:#ffffff;fill-opacity:1;stroke:none;stroke-width:0.30485988;stroke-miterlimit:4;stroke-dasharray:none;stroke-opacity:1" id="g16238"><ellipse ry="19.5" rx="20.5" cy="387.86218" cx="1434.5" transform="matrix(0.775253,0,0,0.81501,1089.4,186.8612)" id="path14388" style="fill:#ffffff;fill-opacity:1;fill-rule:evenodd;stroke:none;stroke-width:0.38352799;stroke-linecap:butt;stroke-linejoin:miter;stroke-miterlimit:4;stroke-dasharray:none;stroke-opacity:1"/><ellipse ry="19.5" rx="20.5" cy="387.86218" cx="1434.5" transform="matrix(0.671389,-0.387627,0.407505,0.705818,1010.393,804.0035)" id="path14390" style="fill:#ffffff;fill-opacity:1;fill-rule:evenodd;stroke:none;stroke-width:0.38352817;stroke-linecap:butt;stroke-linejoin:miter;stroke-miterlimit:4;stroke-dasharray:none;stroke-opacity:1"/><ellipse ry="19.5" rx="20.5" cy="387.86218" cx="1434.5" transform="matrix(-0.671389,-0.387627,0.407505,-0.705818,2936.607,1593.817)" id="path14392" style="fill:#ffffff;fill-opacity:1;fill-rule:evenodd;stroke:none;stroke-width:0.38352817;stroke-linecap:butt;stroke-linejoin:miter;stroke-miterlimit:4;stroke-dasharray:none;stroke-opacity:1"/><ellipse ry="19.5" rx="20.5" cy="387.86218" cx="1434.5" transform="matrix(-0.775254,-4.402797e-7,4.628583e-7,-0.815011,3313.6,1098.86)" id="path14394" style="fill:#ffffff;fill-opacity:1;fill-rule:evenodd;stroke:none;stroke-width:0.38352752;stroke-linecap:butt;stroke-linejoin:miter;stroke-miterlimit:4;stroke-dasharray:none;stroke-opacity:1"/><ellipse ry="19.5" rx="20.5" cy="387.86218" cx="1434.5" transform="matrix(-0.671389,0.387627,-0.407505,-0.705819,3392.606,481.716)" id="path14396" style="fill:#ffffff;fill-opacity:1;fill-rule:evenodd;stroke:none;stroke-width:0.38352796;stroke-linecap:butt;stroke-linejoin:miter;stroke-miterlimit:4;stroke-dasharray:none;stroke-opacity:1"/><ellipse ry="19.5" rx="20.5" cy="387.86218" cx="1434.5" style="fill:#ffffff;fill-opacity:1;fill-rule:evenodd;stroke:none;stroke-width:0.38352785;stroke-linecap:butt;stroke-linejoin:miter;stroke-miterlimit:4;stroke-dasharray:none;stroke-opacity:1" id="path14398" transform="matrix(-0.387628,0.671389,-0.705819,-0.407505,3152.458,-92.24858)"/><ellipse ry="19.5" rx="20.5" cy="387.86218" cx="1434.5" style="fill:#ffffff;fill-opacity:1;fill-rule:evenodd;stroke:none;stroke-width:0.38352752;stroke-linecap:butt;stroke-linejoin:miter;stroke-miterlimit:4;stroke-dasharray:none;stroke-opacity:1" id="path14400" transform="matrix(-4.402797e-7,0.775254,-0.815011,-4.628583e-7,2657.502,-469.2423)"/><ellipse ry="19.5" rx="20.5" cy="387.86218" cx="1434.5" style="fill:#ffffff;fill-opacity:1;fill-rule:evenodd;stroke:none;stroke-width:0.38352796;stroke-linecap:butt;stroke-linejoin:miter;stroke-miterlimit:4;stroke-dasharray:none;stroke-opacity:1" id="path14402" transform="matrix(0.387627,0.671389,-0.705819,0.407505,2040.357,-548.2492)"/><ellipse ry="19.5" rx="20.5" cy="387.86218" cx="1434.5" transform="matrix(0.671389,0.387628,-0.407505,0.705819,1466.393,-308.0995)" id="path14404" style="fill:#ffffff;fill-opacity:1;fill-rule:evenodd;stroke:none;stroke-width:0.38352785;stroke-linecap:butt;stroke-linejoin:miter;stroke-miterlimit:4;stroke-dasharray:none;stroke-opacity:1"/><ellipse ry="19.5" rx="20.5" cy="387.86218" cx="1434.5" style="fill:#ffffff;fill-opacity:1;fill-rule:evenodd;stroke:none;stroke-width:0.38352817;stroke-linecap:butt;stroke-linejoin:miter;stroke-miterlimit:4;stroke-dasharray:none;stroke-opacity:1" id="path14406" transform="matrix(0.387627,-0.671389,0.705818,0.407505,1250.543,1377.968)"/><ellipse ry="19.5" rx="20.5" cy="387.86218" cx="1434.5" style="fill:#ffffff;fill-opacity:1;fill-rule:evenodd;stroke:none;stroke-width:0.38352799;stroke-linecap:butt;stroke-linejoin:miter;stroke-miterlimit:4;stroke-dasharray:none;stroke-opacity:1" id="path14408" transform="matrix(1.565175e-7,-0.775253,0.81501,1.645442e-7,1745.499,1754.96)"/><ellipse ry="19.5" rx="20.5" cy="387.86218" cx="1434.5" style="fill:#ffffff;fill-opacity:1;fill-rule:evenodd;stroke:none;stroke-width:0.38352817;stroke-linecap:butt;stroke-linejoin:miter;stroke-miterlimit:4;stroke-dasharray:none;stroke-opacity:1" id="path14410" transform="matrix(-0.387627,-0.671389,0.705818,-0.407505,2362.644,1833.966)"/></g></g></g></g></svg>