<?xml version="1.0" encoding="UTF-8" standalone="no"?>
<svg
   xmlns:dc="http://purl.org/dc/elements/1.1/"
   xmlns:cc="http://creativecommons.org/ns#"
   xmlns:rdf="http://www.w3.org/1999/02/22-rdf-syntax-ns#"
   xmlns:svg="http://www.w3.org/2000/svg"
   xmlns="http://www.w3.org/2000/svg"
   xmlns:xlink="http://www.w3.org/1999/xlink"
   xmlns:sodipodi="http://sodipodi.sourceforge.net/DTD/sodipodi-0.dtd"
   xmlns:inkscape="http://www.inkscape.org/namespaces/inkscape"
   id="svg6693"
   version="1.1"
   xml:space="preserve"
   width="169.02838"
   height="186.31958"
   viewBox="0 0 169.02838 186.31957"
   inkscape:version="0.91 r13725"
   inkscape:export-xdpi="531.34509"
   inkscape:export-ydpi="531.34509"
   enable-background="new"><sodipodi:namedview
     pagecolor="#ffffff"
     bordercolor="#666666"
     borderopacity="1"
     objecttolerance="10"
     gridtolerance="10"
     guidetolerance="10"
     inkscape:pageopacity="0"
     inkscape:pageshadow="2"
     inkscape:window-width="1869"
     inkscape:window-height="1056"
     id="namedview60"
     showgrid="false"
     inkscape:zoom="5.0665636"
     inkscape:cx="107.58884"
     inkscape:cy="111.30644"
     inkscape:window-x="51"
     inkscape:window-y="24"
     inkscape:window-maximized="1"
     inkscape:current-layer="g4584"
     showguides="false" /><metadata
     id="metadata6699"><rdf:RDF><cc:Work
         rdf:about=""><dc:format>image/svg+xml</dc:format><dc:type
           rdf:resource="http://purl.org/dc/dcmitype/StillImage" /><dc:title /></cc:Work></rdf:RDF></metadata><defs
     id="defs6697"><clipPath
       clipPathUnits="userSpaceOnUse"
       id="clipPath6707"><path
         d="m 0,870.236 623.626,0 L 623.626,0 0,0 0,870.236 Z"
         id="path6709" /></clipPath><clipPath
       clipPathUnits="userSpaceOnUse"
       id="clipPath6719"><path
         d="m 0,870.236 623.626,0 L 623.626,0 0,0 0,870.236 Z"
         id="path6721" /></clipPath><clipPath
       clipPathUnits="userSpaceOnUse"
       id="clipPath6731"><path
         d="m 0,870.236 623.626,0 L 623.626,0 0,0 0,870.236 Z"
         id="path6733" /></clipPath><clipPath
       id="clipPath4150"
       clipPathUnits="userSpaceOnUse"><path
         id="path4152"
         d="m 0,870.236 623.626,0 L 623.626,0 0,0 0,870.236 Z" /></clipPath><clipPath
       id="clipPath4162"
       clipPathUnits="userSpaceOnUse"><path
         id="path4164"
         d="m 0,870.236 623.626,0 L 623.626,0 0,0 0,870.236 Z" /></clipPath><clipPath
       id="clipPath4390"
       clipPathUnits="userSpaceOnUse"><path
         id="path4392"
         d="m 0,870.236 623.626,0 L 623.626,0 0,0 0,870.236 Z" /></clipPath><clipPath
       id="clipPath4398"
       clipPathUnits="userSpaceOnUse"><path
         id="path4400"
         d="m -80.514,14.173 -595.276,0 0,841.89 595.276,0 0,-841.89 z" /></clipPath><clipPath
       id="clipPath6707-4"
       clipPathUnits="userSpaceOnUse"><path
         id="path6709-2"
         d="m 0,870.236 623.626,0 L 623.626,0 0,0 0,870.236 Z" /></clipPath><clipPath
       id="clipPath6719-3"
       clipPathUnits="userSpaceOnUse"><path
         id="path6721-3"
         d="m 0,870.236 623.626,0 L 623.626,0 0,0 0,870.236 Z" /></clipPath><clipPath
       id="clipPath6731-1"
       clipPathUnits="userSpaceOnUse"><path
         id="path6733-5"
         d="m 0,870.236 623.626,0 L 623.626,0 0,0 0,870.236 Z" /></clipPath><clipPath
       clipPathUnits="userSpaceOnUse"
       id="clipPath4150-1"><path
         d="m 0,870.236 623.626,0 L 623.626,0 0,0 0,870.236 Z"
         id="path4152-0" /></clipPath><clipPath
       clipPathUnits="userSpaceOnUse"
       id="clipPath4162-3"><path
         d="m 0,870.236 623.626,0 L 623.626,0 0,0 0,870.236 Z"
         id="path4164-5" /></clipPath><clipPath
       clipPathUnits="userSpaceOnUse"
       id="clipPath4390-2"><path
         d="m 0,870.236 623.626,0 L 623.626,0 0,0 0,870.236 Z"
         id="path4392-2" /></clipPath><clipPath
       clipPathUnits="userSpaceOnUse"
       id="clipPath4398-1"><path
         d="m -80.514,14.173 -595.276,0 0,841.89 595.276,0 0,-841.89 z"
         id="path4400-4" /></clipPath><clipPath
       clipPathUnits="userSpaceOnUse"
       id="clipPath3427"><g
         id="g3429"
         transform="matrix(0.06483916,0,0,0.06709863,307.54738,474.29433)"
         style="fill:#ffffff;stroke:none;display:inline"
         clip-path="none"
         mask="none"><path
           id="path3431"
           d="m 1638,1790 c -4,-12 -99,-15 -155,-5 -35,6 -44,5 -49,-9 -8,-20 14,-77 37,-93 19,-14 32,-53 17,-53 -6,0 -8,-7 -4,-15 3,-8 1,-15 -3,-15 -5,0 -8,-11 -6,-25 1,-14 -1,-25 -5,-25 -4,0 -6,-11 -5,-24 5,-38 -9,-49 -30,-26 -23,25 -88,43 -130,36 -18,-4 -46,0 -66,8 -55,23 -207,55 -308,66 -133,13 -295,-9 -416,-58 -68,-27 -218,-101 -225,-110 -3,-4 -49,-38 -103,-75 -53,-38 -97,-72 -97,-78 0,-20 31,-20 73,0 24,12 48,21 54,21 5,0 34,13 64,30 30,16 61,30 69,30 8,0 27,6 42,14 14,8 43,19 65,26 21,7 43,17 50,22 27,22 165,49 271,55 61,3 112,3 112,0 0,-3 -26,-13 -58,-22 -31,-9 -59,-20 -62,-24 -3,-4 -48,-27 -100,-51 -107,-49 -225,-117 -281,-161 -20,-16 -41,-29 -46,-29 -17,0 -52,-56 -43,-70 7,-11 19,-9 65,8 31,12 70,32 88,45 18,13 51,31 74,40 23,9 61,25 85,35 101,45 174,69 187,64 11,-4 9,-8 -7,-15 -28,-13 -28,-18 3,-47 29,-27 31,-47 7,-76 -25,-31 -49,-37 -55,-13 -7,25 -24,24 -32,-1 -5,-15 -15,-20 -44,-20 -26,0 -44,-7 -59,-23 -25,-27 -28,-47 -8,-47 8,0 24,-13 35,-28 18,-26 19,-31 5,-51 -11,-15 -22,-20 -35,-16 -10,4 -24,1 -31,-4 -7,-6 -23,-19 -35,-29 -13,-10 -23,-30 -23,-47 -3,-48 -1,-55 15,-49 11,5 15,-1 15,-25 0,-24 4,-31 20,-31 13,0 18,-5 14,-15 -4,-8 -15,-15 -25,-15 -12,0 -19,-7 -19,-20 0,-26 30,-100 40,-100 5,0 10,-10 12,-23 2,-18 9,-22 36,-20 27,1 32,-2 27,-17 -3,-10 1,-24 8,-32 8,-7 14,-25 13,-38 -1,-21 4,-25 29,-26 45,-2 67,-14 111,-63 34,-38 39,-50 38,-90 -2,-53 -13,-111 -23,-111 -10,0 -12,-68 -1,-75 5,-3 26,-1 47,4 29,8 40,7 53,-4 26,-23 40,-18 40,14 0,17 5,33 11,37 8,4 7,9 -2,15 -12,8 -11,12 3,23 10,7 14,17 9,22 -4,5 -4,28 1,51 7,31 14,43 27,43 10,0 30,14 45,32 46,56 31,96 -51,136 -72,34 -90,60 -107,151 -18,100 -46,115 -80,44 -14,-31 -19,-34 -30,-22 -26,28 -36,97 -20,143 8,22 13,49 10,59 -2,10 1,17 10,17 8,0 14,3 14,8 0,4 18,26 40,49 24,24 36,44 30,48 -5,3 -10,10 -10,16 0,5 8,4 18,-2 15,-10 28,-7 67,12 26,13 50,32 53,41 2,9 9,15 16,12 6,-2 47,2 91,11 75,14 82,14 149,-6 38,-12 84,-23 100,-25 179,-21 201,-26 232,-49 17,-13 34,-22 37,-18 3,3 21,0 39,-7 18,-7 56,-16 83,-20 28,-5 66,-11 86,-15 26,-5 47,-2 72,10 19,9 41,15 49,14 7,-2 46,0 86,5 51,5 72,11 72,21 0,8 5,17 12,21 8,5 9,0 5,-15 -5,-21 -4,-22 12,-7 10,9 27,16 39,16 l 22,0 0,380 0,380 -284,0 c -174,0 -286,-4 -288,-10 z m -628,-454 c 0,-50 -30,-77 -44,-40 -6,16 -45,11 -57,-9 -4,-5 -10,-4 -15,4 -5,8 -22,21 -38,29 l -28,14 53,12 c 30,6 71,12 92,13 33,1 37,-2 37,-23 z m 874,-172 c 9,-3 16,-16 16,-29 0,-31 -49,-46 -94,-29 -19,7 -21,50 -3,57 18,8 63,8 81,1 z M 885,682 c 4,-26 9,-55 12,-64 8,-31 -13,-19 -40,22 -22,34 -24,45 -16,69 15,42 37,29 44,-27 z m 125,-177 c 56,-28 69,-55 45,-91 -23,-35 -57,-29 -65,11 -4,17 -14,44 -23,62 -27,52 -26,53 43,18 z"
           inkscape:connector-curvature="0" /></g></clipPath><radialGradient
       r="405"
       cy="-80"
       cx="-80"
       gradientUnits="userSpaceOnUse"
       id="Gradient1"><stop
         id="stop7"
         offset="0"
         style="stop-color:#fff;stop-opacity:0.31" /><stop
         id="stop9"
         offset="0.19"
         style="stop-color:#fff;stop-opacity:0.25" /><stop
         id="stop11"
         offset="0.6"
         style="stop-color:#6b6b6b;stop-opacity:0.125" /><stop
         id="stop13"
         offset="1"
         style="stop-color:#000;stop-opacity:0.125" /></radialGradient><clipPath
       id="shield_cut"><path
         d="M -298.5,-298.5 L 298.5,-298.5 L 298.5,-40 C 298.5,246.31 0,358.5 0,358.5 C 0,358.5 -298.5,246.31 -298.5,-40 L -298.5,-298.5 z"
         id="shield" /></clipPath><g
       id="f"><rect
         width="100"
         height="60"
         x="-50"
         y="-30"
         style="fill:#28166f"
         id="rect1964" /><g
         transform="translate(0,-20)"
         style="fill:#ffffff"
         id="g1966"><path
           d="M -1.2116,27.8178 C -1.2116,22.1752 -2.0914,20.4715 -4.5417,13.9804 C -5.709,10.8879 -5.0241,7.1025 -2.8585,3.6009 C -2.0824,2.346 -1.1136,1.2135 0,0 C 1.1136,1.2135 2.0824,2.346 2.8585,3.6009 C 5.0241,7.1025 5.709,10.8879 4.5417,13.9804 C 2.0914,20.4715 1.2116,22.1752 1.2116,27.8178 L -1.2116,27.8178 z"
           id="path1968" /><path
           d="M 2.9221,27.6725 C 2.9221,21.7209 5.2387,17.8293 8.5007,16.6604 C 9.9492,16.1414 11.8076,16.3869 13.5193,18.107 C 15.6379,20.236 16.2551,26.1004 10.0355,27.2283 C 10.6938,26.2724 10.6546,24.1467 9.3215,23.4409 C 8.3311,22.9165 7.209,23.1877 6.6462,23.5643 C 5.8225,24.1156 4.9171,25.6702 4.9672,27.6725 L 2.9221,27.6725 z"
           id="rwi" /><path
           d="M 1.7773,30.1835 C 1.7899,32.1913 2.7952,33.5181 4.5165,34.257 C 4.2948,34.9549 3.2566,36.3776 1.8314,36.2812 C 1.5499,37.787 1.2822,38.6324 0,40 C -1.2822,38.6324 -1.5499,37.787 -1.8314,36.2812 C -3.2566,36.3776 -4.2948,34.9549 -4.5165,34.257 C -2.7952,33.5181 -1.7899,32.1913 -1.7773,30.1835 L 1.7773,30.1835 z"
           id="path1971" /><use
           transform="scale(-1,1)"
           id="use1973"
           x="0"
           y="0"
           width="800"
           height="400"
           xlink:href="#rwi" /><rect
           width="15.846"
           height="3.2179999"
           x="-7.9229999"
           y="27.33077"
           id="rect1975" /></g></g></defs><g
     inkscape:groupmode="layer"
     id="layer3"
     inkscape:label="Fodn"
     style="display:inline"><g
       transform="matrix(1.2945423,0,0,1.2945423,-418.17995,-611.33282)"
       id="lion"
       clip-path="none"
       mask="none"><title
         id="title17040">lion</title><g
         id="g5080"
         transform="matrix(1.25,0,0,-1.25,-1.3964844e-4,1275.3973)"><path
           inkscape:connector-curvature="0"
           d="m 288.7891,571.9068 0,0 -21.482,-12.403 c 0.994,-1.721 2.433,-3.185 4.214,-4.213 l 17.268,-9.97 0,26.586 z"
           style="fill:#4c9edc;fill-opacity:1;fill-rule:nonzero;stroke:none"
           id="path5082-8" /><path
           inkscape:connector-curvature="0"
           d="m 265.7649,585.1998 0,-19.939 c 0,-2.057 0.549,-4.035 1.542,-5.756 l 21.482,12.402 -23.024,13.293 z"
           style="fill:#498cd2;fill-opacity:1;fill-rule:nonzero;stroke:none"
           id="path5084-8" /><path
           inkscape:connector-curvature="0"
           d="m 288.7891,571.9068 0,26.586 -23.024,-13.293 0,0 23.024,-13.293 z"
           style="fill:#487dc8;fill-opacity:1;fill-rule:nonzero;stroke:none"
           id="path5086-9" /><path
           inkscape:connector-curvature="0"
           d="m 288.7891,545.3209 0,0 17.268,-9.97 c 1.781,-1.028 3.769,-1.542 5.756,-1.542 l 0,24.805 -23.024,-13.293 z"
           style="fill:#5295d6;fill-opacity:1;fill-rule:nonzero;stroke:none"
           id="path5088-6" /><path
           inkscape:connector-curvature="0"
           d="m 267.3072,610.8954 c -0.994,-1.721 -1.542,-3.7 -1.542,-5.756 l 0,-19.94 23.024,13.293 -21.482,12.403 z"
           style="fill:#476bbc;fill-opacity:1;fill-rule:nonzero;stroke:none"
           id="path5090-0" /><path
           inkscape:connector-curvature="0"
           d="m 334.8373,545.3209 0,26.586 -23.024,-13.293 23.024,-13.293 z"
           style="fill:#7f9ad6;fill-opacity:1;fill-rule:nonzero;stroke:none"
           id="path5092-2" /><path
           inkscape:connector-curvature="0"
           d="m 356.3192,559.5043 c 0.994,1.721 1.542,3.7 1.542,5.756 l 0,19.939 -23.024,-13.293 21.482,-12.402 z"
           style="fill:#727ebd;fill-opacity:1;fill-rule:nonzero;stroke:none"
           id="path5094-5" /><path
           inkscape:connector-curvature="0"
           d="m 334.8373,571.9068 0,-26.586 17.268,9.97 c 1.781,1.028 3.22,2.492 4.214,4.214 l -21.482,12.402 z"
           style="fill:#8f9fd8;fill-opacity:1;fill-rule:nonzero;stroke:none"
           id="path5096-0" /><path
           inkscape:connector-curvature="0"
           d="m 334.8373,598.4928 0,0 0,-26.586 23.024,13.293 0,0 -23.024,13.293 z"
           style="fill:#425da2;fill-opacity:1;fill-rule:nonzero;stroke:none"
           id="path5098-9" /><path
           inkscape:connector-curvature="0"
           d="m 311.8132,558.6138 0,-24.805 c 1.987,0 3.975,0.514 5.756,1.542 l 17.268,9.97 -23.024,13.293 z"
           style="fill:#6495d5;fill-opacity:1;fill-rule:nonzero;stroke:none"
           id="path5100-5" /><path
           inkscape:connector-curvature="0"
           d="m 311.8132,611.7858 -23.024,13.293 0,-26.586 23.024,13.293 z"
           style="fill:#3a64ad;fill-opacity:1;fill-rule:nonzero;stroke:none"
           id="path5102-1" /><path
           inkscape:connector-curvature="0"
           d="m 311.8132,611.7858 23.024,-13.293 0,26.586 -23.024,-13.293 z"
           style="fill:#3a61a3;fill-opacity:1;fill-rule:nonzero;stroke:none"
           id="path5104-7" /><path
           inkscape:connector-curvature="0"
           d="m 267.3072,610.8954 21.482,-12.403 0,26.586 -17.268,-9.969 c -1.781,-1.029 -3.22,-2.493 -4.214,-4.214"
           style="fill:#32549d;fill-opacity:1;fill-rule:nonzero;stroke:none"
           id="path5106-7" /><path
           inkscape:connector-curvature="0"
           d="m 334.8373,598.4928 23.024,-13.293 0,19.939 c 0,2.057 -0.548,4.035 -1.542,5.757 l -21.482,-12.403 z"
           style="fill:#2f5296;fill-opacity:1;fill-rule:nonzero;stroke:none"
           id="path5108-7" /><path
           inkscape:connector-curvature="0"
           d="m 334.8373,598.4928 21.482,12.403 c -0.994,1.721 -2.433,3.185 -4.214,4.213 l -17.268,9.97 0,-26.586 z"
           style="fill:#325295;fill-opacity:1;fill-rule:nonzero;stroke:none"
           id="path5110-4" /><path
           inkscape:connector-curvature="0"
           d="m 334.8373,625.0788 -17.269,9.97 c -1.781,1.028 -3.768,1.542 -5.755,1.542 l 0,-24.805 23.024,13.293 z"
           style="fill:#4379c6;fill-opacity:1;fill-rule:nonzero;stroke:none"
           id="path5112-0" /><path
           inkscape:connector-curvature="0"
           d="m 311.8132,611.7858 0,24.805 c -1.987,0 -3.975,-0.514 -5.755,-1.542 l -17.269,-9.97 23.024,-13.293 z"
           style="fill:#3f73bd;fill-opacity:1;fill-rule:nonzero;stroke:none"
           id="path5114-8" /><path
           inkscape:connector-curvature="0"
           d="m 288.7891,545.3209 23.024,13.293 -23.024,13.293 0,-26.586 z"
           style="fill:#50a0dd;fill-opacity:1;fill-rule:nonzero;stroke:none"
           id="path5116-4" /><path
           inkscape:connector-curvature="0"
           id="path5118-4"
           style="fill:#425da2;fill-opacity:1;fill-rule:nonzero;stroke:none"
           d="m 288.7891,598.4929 0,0 0,-26.586 23.024,13.293 0,0 -23.024,13.293 z" /><path
           inkscape:connector-curvature="0"
           id="path5120-6"
           style="fill:#487dc8;fill-opacity:1;fill-rule:nonzero;stroke:none"
           d="m 334.8371,571.9069 0,26.586 -23.024,-13.293 0,0 23.024,-13.293 z" /><path
           inkscape:connector-curvature="0"
           id="path5122-9"
           transform="matrix(0.8,0,0,-0.8,1.1171875e-4,1020.3178)"
           d="m 389.76562,543.89648 0,0.002 -28.77929,16.61523 28.77929,16.61719 28.78126,-16.61719 -28.78126,-16.61719 z"
           style="fill:#3f73bd;fill-opacity:1;fill-rule:nonzero;stroke:none" /><path
           inkscape:connector-curvature="0"
           id="path5124-5"
           style="fill:#2f5296;fill-opacity:1;fill-rule:nonzero;stroke:none"
           d="m 311.8133,585.1998 0,26.586 -23.024,-13.293 23.024,-13.293 z" /><path
           inkscape:connector-curvature="0"
           id="path5126-1"
           style="fill:#498cd2;fill-opacity:1;fill-rule:nonzero;stroke:none"
           d="m 311.8132,585.1998 23.024,13.293 -23.024,13.293 0,-26.586 z" /></g><path
         style="fill:#000000"
         d=""
         id="path3146"
         inkscape:connector-curvature="0" /></g><g
       id="g4584"
       transform="matrix(0.16722367,0,0,0.16722367,36.320814,43.964523)"><g
         id="use16508"
         transform="matrix(2.3432492,0,0,2.1302266,-849.74461,-687.23409)"><path
           sodipodi:nodetypes="ccscscc"
           id="path4227"
           style="display:inline;fill:#ffffff;fill-opacity:1;fill-rule:evenodd;stroke:none;stroke-width:1;stroke-linecap:butt;stroke-linejoin:miter;stroke-miterlimit:4;stroke-dasharray:none;stroke-opacity:1"
           d="m 360.34779,474.11538 c 0.14246,-6.1956 1.67512,-11.95395 4.52896,-17.41086 7.47144,-15.71858 30.29204,-15.34317 25.26152,3.88113 -1.85368,7.08394 -8.15086,11.24739 -15.63188,11.9615 0.53996,-1.86654 3.51003,-8.46524 1.11244,-9.75615 -3.83381,0.14483 -8.59443,6.77051 -9.73928,9.93007 -0.16527,0.45361 -0.11904,0.9778 -0.30358,1.424"
           inkscape:connector-curvature="0" /><path
           sodipodi:nodetypes="ccscscc"
           id="path4229"
           style="fill:#ffffff;fill-opacity:1;fill-rule:evenodd;stroke:none;stroke-width:1;stroke-linecap:butt;stroke-linejoin:miter;stroke-miterlimit:4;stroke-dasharray:none;stroke-opacity:1"
           d="m 350.84396,474.52498 c -0.14246,-6.1956 -1.67511,-11.95394 -4.52896,-17.41086 -7.47144,-15.71858 -30.29203,-15.34317 -25.26152,3.88113 1.85369,7.08394 8.15086,11.24739 15.63189,11.96151 -0.53996,-1.86654 -3.51003,-8.46525 -1.11245,-9.75616 3.83382,0.14484 8.59444,6.77051 9.73928,9.93007 0.16527,0.45361 0.11904,0.9778 0.30359,1.42401"
           inkscape:connector-curvature="0" /><path
           sodipodi:nodetypes="csccccsccc"
           id="path4231"
           style="fill:#ffffff;fill-opacity:1;fill-rule:nonzero;stroke:none;stroke-width:1;stroke-linecap:butt;stroke-linejoin:miter;stroke-miterlimit:4;stroke-dasharray:none;stroke-opacity:1"
           d="m 355.15426,414.49978 c -7.87143,8.48494 -13.15646,18.29615 -10.87812,29.80312 1.25695,6.34839 4.30418,12.22797 6.45312,18.34375 1.34365,3.83699 1.68722,7.84518 1.52812,11.87813 l 6.67813,0 c -0.31965,-4.06262 0.38067,-7.99983 1.52813,-11.87813 2.04741,-6.15383 5.16257,-11.99055 6.45312,-18.34375 2.4128,-11.87792 -3.25069,-20.83595 -10.84375,-29.76562 l -0.46404,-0.59183 -0.45471,0.55433 z"
           inkscape:connector-curvature="0" /><path
           sodipodi:nodetypes="cssscccssscc"
           id="path4233"
           style="fill:#ffffff;fill-opacity:1;fill-rule:evenodd;stroke:none;stroke-width:1;stroke-linecap:butt;stroke-linejoin:miter;stroke-miterlimit:4;stroke-dasharray:none;stroke-opacity:1"
           d="m 348.92613,479.2279 c -1.39616,3.913 -7.08881,11.07921 -10.11249,13.12188 -0.78422,0.52978 3.74863,-0.30516 5.77812,-0.75 2.6619,-0.58347 6.12174,-3.41976 6.04062,-2.41875 -0.008,4.58382 1.28111,12.23242 4.64063,15.74687 l 0.31821,0.33876 0.32867,-0.33876 c 3.35776,-3.91709 4.62376,-10.8042 4.64062,-15.74687 -0.0811,-1.00101 3.37872,1.83528 6.04062,2.41875 2.02949,0.44484 6.56235,1.27978 5.77813,0.75 -3.02368,-2.04267 -8.71321,-9.20888 -10.10938,-13.12188 l -13.34375,0 z"
           inkscape:connector-curvature="0" /><rect
           id="rect4235"
           style="fill:#ffffff;fill-opacity:1;stroke:none;stroke-width:1;stroke-miterlimit:4;stroke-dasharray:none;stroke-opacity:1"
           y="474.32571"
           x="339.72687"
           height="5.1503344"
           width="31.788773" /></g><g
         id="use16510"
         transform="matrix(2.3432492,0,0,2.1302266,-217.56161,-687.23409)"
         style="fill:#ffffff;fill-opacity:1"><path
           sodipodi:nodetypes="ccscscc"
           id="path4239"
           style="display:inline;fill:#ffffff;fill-opacity:1;fill-rule:evenodd;stroke:none;stroke-width:1;stroke-linecap:butt;stroke-linejoin:miter;stroke-miterlimit:4;stroke-dasharray:none;stroke-opacity:1"
           d="m 360.34779,474.11538 c 0.14246,-6.1956 1.67512,-11.95395 4.52896,-17.41086 7.47144,-15.71858 30.29204,-15.34317 25.26152,3.88113 -1.85368,7.08394 -8.15086,11.24739 -15.63188,11.9615 0.53996,-1.86654 3.51003,-8.46524 1.11244,-9.75615 -3.83381,0.14483 -8.59443,6.77051 -9.73928,9.93007 -0.16527,0.45361 -0.11904,0.9778 -0.30358,1.424"
           inkscape:connector-curvature="0" /><path
           sodipodi:nodetypes="ccscscc"
           id="path4241"
           style="fill:#ffffff;fill-opacity:1;fill-rule:evenodd;stroke:none;stroke-width:1;stroke-linecap:butt;stroke-linejoin:miter;stroke-miterlimit:4;stroke-dasharray:none;stroke-opacity:1"
           d="m 350.84396,474.52498 c -0.14246,-6.1956 -1.67511,-11.95394 -4.52896,-17.41086 -7.47144,-15.71858 -30.29203,-15.34317 -25.26152,3.88113 1.85369,7.08394 8.15086,11.24739 15.63189,11.96151 -0.53996,-1.86654 -3.51003,-8.46525 -1.11245,-9.75616 3.83382,0.14484 8.59444,6.77051 9.73928,9.93007 0.16527,0.45361 0.11904,0.9778 0.30359,1.42401"
           inkscape:connector-curvature="0" /><path
           sodipodi:nodetypes="csccccsccc"
           id="path4243"
           style="fill:#ffffff;fill-opacity:1;fill-rule:nonzero;stroke:none;stroke-width:1;stroke-linecap:butt;stroke-linejoin:miter;stroke-miterlimit:4;stroke-dasharray:none;stroke-opacity:1"
           d="m 355.15426,414.49978 c -7.87143,8.48494 -13.15646,18.29615 -10.87812,29.80312 1.25695,6.34839 4.30418,12.22797 6.45312,18.34375 1.34365,3.83699 1.68722,7.84518 1.52812,11.87813 l 6.67813,0 c -0.31965,-4.06262 0.38067,-7.99983 1.52813,-11.87813 2.04741,-6.15383 5.16257,-11.99055 6.45312,-18.34375 2.4128,-11.87792 -3.25069,-20.83595 -10.84375,-29.76562 l -0.46404,-0.59183 -0.45471,0.55433 z"
           inkscape:connector-curvature="0" /><path
           sodipodi:nodetypes="cssscccssscc"
           id="path4245"
           style="fill:#ffffff;fill-opacity:1;fill-rule:evenodd;stroke:none;stroke-width:1;stroke-linecap:butt;stroke-linejoin:miter;stroke-miterlimit:4;stroke-dasharray:none;stroke-opacity:1"
           d="m 348.92613,479.2279 c -1.39616,3.913 -7.08881,11.07921 -10.11249,13.12188 -0.78422,0.52978 3.74863,-0.30516 5.77812,-0.75 2.6619,-0.58347 6.12174,-3.41976 6.04062,-2.41875 -0.008,4.58382 1.28111,12.23242 4.64063,15.74687 l 0.31821,0.33876 0.32867,-0.33876 c 3.35776,-3.91709 4.62376,-10.8042 4.64062,-15.74687 -0.0811,-1.00101 3.37872,1.83528 6.04062,2.41875 2.02949,0.44484 6.56235,1.27978 5.77813,0.75 -3.02368,-2.04267 -8.71321,-9.20888 -10.10938,-13.12188 l -13.34375,0 z"
           inkscape:connector-curvature="0" /><rect
           id="rect4247"
           style="fill:#ffffff;fill-opacity:1;stroke:none;stroke-width:1;stroke-miterlimit:4;stroke-dasharray:none;stroke-opacity:1"
           y="474.32571"
           x="339.72687"
           height="5.1503344"
           width="31.788773" /></g><path
         style="fill:#ffffff"
         d="m 308.96516,-115.96982 c -1.65685,-0.0303 -3.0026,0.0415 -3.97769,0.22442 l -3.56183,0.66913 0,27.887261 c 0,21.572879 0.29828,27.899903 1.31768,27.949013 0.72469,0.03492 9.85612,0.01765 20.29209,-0.03911 20.68274,-0.112341 29.46154,1.006258 49.49294,6.30423 13.73044,3.631474 27.14794,5.451265 34.08443,4.62419 2.73417,-0.326006 9.34952,-1.50101 14.7023,-2.610638 18.769,-3.890789 32.75182,-2.403937 51.36852,5.458052 5.23944,2.212658 10.07363,4.045312 10.74314,4.07241 0.80944,0.03283 1.05642,-1.453894 0.73503,-4.43272 -1.17521,-10.89204 -2.85556,-19.458129 -7.43661,-37.911847 l -4.89805,-19.728001 -4.82181,-0.78235 c -6.69167,-1.08599 -48.57245,-1.05641 -70.18038,0.0495 -20.04092,1.02559 -25.04735,0.44486 -53.34708,-6.19099 -14.28681,-3.35005 -27.33302,-5.41089 -34.51268,-5.54245 z m -12.60227,87.246249 -57.77982,49.27674 -57.77987,49.2747 9.97725,0.292356 c 7.84295,0.228345 10.25693,0.664139 11.29284,2.044453 0.85541,1.139767 1.31769,5.568449 1.31769,12.622861 l 0,10.866656 30.04287,0 30.04286,0 0,-12.009331 c 0,-9.978928 0.28222,-12.11797 1.66771,-12.649622 0.91706,-0.351936 15.05385,-0.640304 31.41408,-0.640304 21.73009,0 30.08642,0.342101 31.01053,1.266189 0.82766,0.827691 1.2641,5.200406 1.2641,12.649642 l 0,11.383426 30.56997,0 30.56996,0 0,-11.465786 c 0,-8.140942 0.3993,-11.796371 1.37534,-12.606392 0.75605,-0.627511 5.76337,-1.279186 11.12809,-1.447373 l 9.7549,-0.306775 -54.97777,-46.909067 C 327.01653,-2.8811687 300.94622,-25.053863 299.3194,-26.355893 Z m 100.98913,105.36627 0,11.404017 c 0,7.463812 -0.43618,11.84021 -1.26416,12.668164 -0.93452,0.93453 -10.67984,1.26413 -37.30856,1.26413 -31.89508,0 -36.11855,-0.19013 -36.68482,-1.66562 -0.35187,-0.917076 -0.64031,-6.609414 -0.64031,-12.649638 l 0,-10.984 -25.79337,0 -25.79133,0 -0.29854,12.386085 -0.2965,12.386113 -36.36762,0 -36.36775,0 -0.29644,-12.386113 -0.2965,-12.386085 -25.79337,0 -25.79343,0 0,22.13686 0,22.136858 152.34534,0 152.34324,0 -0.28412,-21.873327 -0.28616,-21.873322 -25.56283,-0.282077 z M 239.65778,127.47182 c -53.06835,-0.0251 -90.64344,0.0721 -90.8348,0.26354 -0.25536,0.25523 2.95517,4.52657 7.13597,9.49134 l 7.60131,9.02605 132.97145,-0.0144 132.97145,-0.0145 7.68575,-9.20929 7.68365,-9.20926 -147.79318,-0.26559 c -20.32155,-0.0368 -39.73219,-0.0596 -57.4216,-0.068 z m -63.14732,25.10575 c -9.39929,0 -12.12254,0.31641 -12.12254,1.40618 0,2.53215 1.27382,2.81035 12.82666,2.81035 10.71711,0 11.41849,-0.12974 11.41849,-2.10826 0,-1.98607 -0.70272,-2.10827 -12.12261,-2.10827 z m 78.53316,0 c -10.89273,0 -11.59551,0.12776 -11.59551,2.10827 0,1.98049 0.70278,2.10826 11.59551,2.10826 10.89279,0 11.5955,-0.12777 11.5955,-2.10826 0,-1.98051 -0.70271,-2.10827 -11.5955,-2.10827 z m 82.2226,0 c -10.89272,0 -11.59544,0.12776 -11.59544,2.10827 0,1.98049 0.70272,2.10826 11.59544,2.10826 10.89279,0 11.59551,-0.12777 11.59551,-2.10826 0,-1.98051 -0.70272,-2.10827 -11.59551,-2.10827 z m 79.06026,0 c -10.89279,0 -11.5955,0.12776 -11.5955,2.10827 0,1.98049 0.70271,2.10826 11.5955,2.10826 10.89273,0 11.59544,-0.12777 11.59544,-2.10826 0,-1.98051 -0.70271,-2.10827 -11.59544,-2.10827 z m -222.42273,1.05413 0,16.86617 0,16.86617 -14.62617,0 -14.62611,0 -0.65884,3.29419 c -0.36234,1.81178 -0.65884,4.65796 -0.65884,6.32482 l 0,3.03063 132.82116,0 132.82111,0 0,-6.32482 0,-6.32482 -14.75785,0 -14.75792,0 0,-16.86617 0,-16.86617 -22.66397,0 -22.66391,0 0,16.86617 0,16.86617 -16.86619,0 -16.86612,0 0,-16.86617 0,-16.86617 -24.24515,0 -24.24514,0 0,16.86617 0,16.86617 -16.86619,0 -16.86619,0 0,-16.86617 0,-16.86617 -22.13681,0 z m -29.51583,9.48722 0,3.68948 0,3.68947 12.12254,0 12.12261,0 0,-3.68947 0,-3.68948 -12.12261,0 z m 79.06019,0 0,3.68948 0,3.68947 11.59551,0 11.5955,0 0,-3.68947 0,-3.68948 -11.5955,0 z m 82.22267,0 0,3.68948 0,3.68947 11.59544,0 11.59551,0 0,-3.68947 0,-3.68948 -11.59551,0 z m 79.0602,0 0,3.68948 0,3.68947 11.5955,0 11.59544,0 0,-3.68947 0,-3.68948 -11.59544,0 z m -228.22052,13.70377 c -11.99695,0 -12.12254,0.0262 -12.12254,2.46034 0,1.35282 0.31758,2.7759 0.70411,3.16241 0.38654,0.38651 5.84172,0.70207 12.12255,0.70207 l 11.41849,0 0,-3.16242 0,-3.1624 z m 66.93765,0 0,3.1624 0,3.16242 11.59551,0 11.5955,0 0,-3.16242 0,-3.1624 -11.5955,0 z m 82.22267,0 0,3.1624 0,3.16242 11.59544,0 11.59551,0 0,-3.16242 0,-3.1624 -11.59551,0 z m 79.0602,0 0,3.1624 0,3.16242 11.5955,0 11.59544,0 0,-3.16242 0,-3.1624 -11.59544,0 z m -241.08215,27.3396 -0.68361,8.09954 c -0.3765,4.45452 -0.68557,11.82339 -0.68557,16.37413 l 0,8.27248 12.15143,0 12.14927,0 -0.29028,-16.07557 -0.29238,-16.07558 -11.17341,-0.29647 z m 28.14664,0.0495 0,16.34942 0,16.34733 6.32476,0 6.32482,0 0,-5.27068 0,-5.27067 22.13688,0 22.13687,0 0,5.27067 0,5.27068 22.69273,0 22.6907,0 -0.29028,-16.07557 -0.29237,-16.07557 -50.86205,-0.27177 z m 107.52189,0.0186 0,16.3391 0,16.33911 22.13681,0 22.13687,0 0,-5.27067 0,-5.27068 21.60984,0 21.60977,0 0,5.27068 0,5.27067 4.74359,0 4.74364,0 0,-16.33911 0,-16.3391 -48.49029,0 z m 103.30534,0 0,16.3391 0,16.33911 14.21228,0 14.21024,0 -0.59497,-15.02144 c -0.32774,-8.26178 -0.77966,-15.61438 -1.00264,-16.33911 -0.29619,-0.96246 -3.96646,-1.31766 -13.61528,-1.31766 z m -190.79869,28.46168 0,24.77219 0,24.7722 14.75792,0 14.75791,0 0,-24.7722 0,-24.77219 -14.75791,0 z m 138.09186,0 0,24.77219 0,24.7722 14.75791,0 14.75792,0 0,-24.7722 0,-24.77219 -14.75792,0 z m -15.81206,8.40837 -37.68537,0.27589 -37.68531,0.27589 -0.29034,16.07557 -0.29232,16.07557 37.97769,0 37.97565,0 0,-16.35146 z m -150.77438,0.0247 c -15.96951,0 -21.21695,0.32115 -21.52952,1.31768 -0.22736,0.72471 -0.72024,8.07731 -1.09528,16.3391 l -0.68151,15.02144 22.21097,0 22.21096,0 0,-16.3391 0,-16.33912 z m 67.49764,0 c -2.01761,0 -2.10827,0.70276 -2.10827,16.33912 0,15.63634 0.0907,16.3391 2.10827,16.3391 2.01761,0 2.10827,-0.70276 2.10827,-16.3391 0,-15.63636 -0.0907,-16.33912 -2.10827,-16.33912 z m 135.98358,0 0,16.33912 0,16.3391 22.92746,0.002 22.92746,0.002 -0.67941,-13.96934 c -0.37441,-7.68291 -0.73021,-15.03669 -0.79065,-16.34119 l -0.11118,-2.3718 -22.1368,0 z m -45.8899,0.16266 c -1.41172,-0.0676 -1.54625,1.97513 -1.54625,16.10029 0,15.78399 0.0837,16.41527 2.1371,16.41527 2.06414,0 2.12598,-0.53706 1.84472,-16.06117 -0.25949,-14.32423 -0.49193,-16.10153 -2.1371,-16.41734 -0.10577,-0.0203 -0.20438,-0.0326 -0.29847,-0.0371 z m -180.57643,36.68063 -0.57852,6.61512 c -0.31898,3.63806 -0.77313,11.0009 -1.00887,16.36381 l -0.42825,9.75076 17.81531,0 17.81531,0 -0.29028,-16.07558 -0.29237,-16.07557 -16.51616,-0.28825 z m 88.37448,0.0106 0,5.29125 0,5.29127 -22.13687,0 -22.13688,0 0,-5.27068 c 0,-4.91929 -0.17555,-5.27068 -2.63531,-5.27068 l -2.63531,0 0,16.33912 0,16.3391 47.46498,0 47.46282,0 -0.29028,-16.07557 -0.29237,-16.07559 -22.40036,-0.28412 z m 50.59856,0 0,16.35969 0,16.35969 46.90906,0 46.90905,0 0,-16.3391 0,-16.33912 -3.16241,0 c -3.09212,0 -3.16241,0.11713 -3.16241,5.27068 l 0,5.27068 -21.55218,0 -21.55213,0 -0.3212,-5.00714 -0.32113,-5.00716 -21.87332,-0.28412 z m 100.14293,0.0412 0,16.33911 0,16.33911 17.55386,0 17.55379,0 -0.68766,-11.23107 c -0.37796,-6.17783 -0.68767,-13.53042 -0.68767,-16.33913 l 0,-5.10802 -16.86613,0 z M 158.3843,314.915 l -0.68767,11.23313 c -0.37802,6.17784 -0.68767,13.53044 -0.68767,16.3391 l 0,5.10598 39.5301,0 39.5301,0 0,-16.33911 0,-16.3391 -38.84243,0 z m 82.95554,0 0,16.3391 0,16.33911 54.81511,0 54.81505,0 0,-16.33911 0,-16.3391 -54.81505,0 z m 114.90085,0 0,16.3391 0,16.33911 39.93161,0 39.92952,0 -0.44266,-11.85902 c -0.2433,-6.52249 -0.69008,-13.87508 -0.99236,-16.33911 l -0.5497,-4.48008 -38.93716,0 z m -177.65491,36.89469 c -16.39451,0 -21.74202,0.31954 -22.05033,1.31767 -0.2238,0.72472 -0.65561,8.07733 -0.9615,16.3391 l -0.55796,15.02146 22.60626,0 22.60632,0 0,-16.33912 0,-16.33911 z m 26.91341,0 0,15.63706 c 0,8.59999 0.32171,15.95857 0.71446,16.35144 0.39288,0.39285 20.19749,0.58983 44.0102,0.43854 l 43.29573,-0.2759 0.29237,-16.07557 0.29028,-16.07557 -44.30047,0 z m 93.81817,0 0,16.33911 0,16.33912 43.74665,0 43.74664,0 0,-16.33912 0,-16.33911 -43.74664,0 z m 92.76398,0 0,16.33911 0,16.33912 22.66391,0 22.66391,0 -0.006,-6.06128 c -0.006,-3.33371 -0.31333,-10.68631 -0.68767,-16.33913 l -0.67942,-10.27782 -21.97833,0 z m -236.87183,36.89477 -0.68145,8.06662 c -0.37497,4.43579 -0.6815,11.78839 -0.6815,16.3391 l 0,8.2725 5.27068,0 5.27068,0 0,-16.33912 0,-16.3391 -4.58924,0 z m 15.50323,0 0,16.3391 0,16.33912 36.36769,0 36.36768,0 0,-16.33912 0,-16.3391 -36.36768,0 z m 78.00606,0 0,16.3391 0,16.33912 47.43615,0 47.43609,0 0,-16.33912 0,-16.3391 -47.43609,0 z m 100.14293,0 0,16.35352 0,16.35353 36.63124,-0.27796 36.63123,-0.27794 0.29238,-16.07558 0.29028,-16.07557 -36.92152,0 z m 79.06019,0 0,16.3391 0,16.33912 5.9522,0 5.95213,0 -0.68145,-8.06456 c -0.37497,-4.43579 -0.68151,-11.78838 -0.68151,-16.33911 l 0,-8.27455 -5.27068,0 z m -275.1295,36.89476 -0.0102,6.06128 c 0,3.33371 -0.3113,10.68631 -0.68557,16.33911 l -0.68151,10.27784 24.40361,0 24.40572,0 0,-16.33911 0.006,0 0,-16.33912 -23.7181,0 z m 52.70677,0 0,16.33912 0,16.33911 18.02947,0 18.02946,0 5.00504,-4.48009 c 10.38467,-9.29467 23.7249,-15.41702 39.21925,-18.0006 l 7.73717,-1.2909 0.32533,-4.45331 0.32323,-4.45333 -44.33343,0 z m 93.81817,0 0,4.74362 c 0,4.0735 0.30495,4.74361 2.15355,4.74361 11.43385,0 32.81112,8.70507 43.70137,17.79473 l 6.32482,5.2789 17.65678,0.0597 17.65677,0.0576 0,-16.3391 0,-16.33912 -43.74664,0 z m 92.76398,0 0,16.33912 0,16.33911 24.50863,0.003 24.5087,0.003 -0.67948,-13.96937 c -0.37434,-7.68289 -0.73015,-15.03666 -0.79059,-16.34116 l -0.11117,-2.37181 -23.71805,0 z m -96.36492,16.35559 c -7.42753,0.0737 -14.64598,0.44044 -15.21086,1.03766 -0.63408,0.6703 0.16419,4.22075 2.19266,9.75076 l 3.18914,8.69662 10.81933,0 c 9.31453,0 10.92244,-0.25643 11.56877,-1.84474 0.41282,-1.01461 1.86695,-5.06827 3.23035,-9.00956 2.2896,-6.61874 2.34116,-7.22252 0.67941,-7.90602 -1.40448,-0.57769 -9.04127,-0.79837 -16.4688,-0.72472 z m 23.20746,2.53034 -2.89067,7.68779 c -1.58899,4.22802 -2.91651,8.4122 -2.95036,9.29779 -0.0381,0.99709 2.52821,2.73641 6.73866,4.57067 3.73967,1.62917 7.354,3.63231 8.03367,4.45125 1.88295,2.2688 2.77258,1.92184 10.20988,-3.99624 l 6.89307,-5.48686 -4.63654,-4.03537 c -2.55017,-2.22013 -8.40846,-5.93997 -13.01814,-8.26424 z m -45.58731,0.68765 c -1.47203,-0.0985 -3.69357,1.07517 -7.75158,3.12125 -5.34999,2.6975 -15.77123,10.12198 -15.79555,11.25372 -0.0127,0.60891 12.62412,11.37932 13.35166,11.37932 0.12146,0 3.5292,-1.66028 7.57254,-3.68949 4.04328,-2.02921 7.86403,-3.68946 8.49068,-3.68946 1.68651,0 1.42638,-1.76557 -1.59558,-10.8399 -1.72505,-5.17994 -2.37951,-7.40878 -4.27217,-7.53544 z m -27.98811,18.37534 c -2.06676,0 -13.3217,19.49861 -12.01137,20.80889 0.70646,0.70653 11.98927,3.18702 15.14495,3.32917 1.57311,0.0708 2.71245,-0.70879 3.31269,-2.26474 0.50329,-1.3045 2.39011,-4.21826 4.19395,-6.47514 2.43068,-3.04103 2.99079,-4.45242 2.1597,-5.4539 -1.36816,-1.64858 -12.0461,-9.94428 -12.79992,-9.94428 z m 102.96769,0.91413 -6.98366,5.50744 -6.9857,5.50746 3.40742,4.84036 c 1.87393,2.66218 3.68024,5.61767 4.01478,6.56571 0.55484,1.57231 1.28848,1.59013 8.33221,0.20177 4.24708,-0.83712 8.34115,-1.72775 9.10012,-1.97856 1.51489,-0.50059 -4.1102,-12.19178 -8.50515,-17.67532 z m -155.30184,0.14 c -40.66328,0 -42.0642,0.0673 -43.91134,2.10826 -1.90497,2.10511 -1.84167,2.10827 40.73655,2.10827 31.76295,0 42.96932,-0.32197 43.9114,-1.26413 0.69573,-0.69573 1.2641,-1.64445 1.2641,-2.10829 0,-0.46382 -18.89954,-0.84411 -42.00071,-0.84411 z m 206.93601,0 c -23.46053,0 -42.6555,0.38029 -42.6555,0.84411 0,3.14659 3.02813,3.37242 45.04992,3.37242 42.19214,0 42.5089,-0.0163 41.38924,-2.10827 -1.09979,-2.05492 -2.20713,-2.10826 -43.78366,-2.10826 z m 34.29642,10.45076 0,10.58666 0,10.58665 10.54137,0 c 7.77394,0 10.51934,-0.34592 10.45902,-1.31766 -0.0451,-0.72473 -1.36238,-5.34975 -2.92768,-10.27783 l -2.84534,-8.96017 -7.61368,-0.30882 z m -290.81387,0.0906 -2.73626,8.97045 c -1.50486,4.9337 -3.00794,9.6773 -3.33949,10.54138 -0.50964,1.32808 1.04487,1.5709 10.05141,1.5709 l 10.65457,0 0,-10.54137 0,-10.54136 -7.31515,0 z m 19.90092,0 0,10.54136 0,10.54137 29.90902,0 29.907,0 0.69389,-4.32979 c 0.38081,-2.38143 1.62644,-6.9895 2.76915,-10.24076 1.14277,-3.25127 2.07735,-6.04654 2.07735,-6.21159 0,-0.16503 -14.70516,-0.30059 -32.67818,-0.30059 z m 232.85083,0 c -30.8207,0 -32.74459,0.11085 -32.0194,1.84474 1.99723,4.77521 4.72511,14.41469 4.72511,16.69735 l 0,2.54064 30.04286,0 30.04287,0 0,-10.54137 0,-10.54136 z M 231.1464,489.44654 c -0.14596,0.005 -0.23885,0.0223 -0.26971,0.0514 -0.24666,0.23329 -0.6629,5.65653 -0.92645,12.05256 l -0.47968,11.62844 9.36159,-0.30677 9.35961,-0.30678 0.30057,-10.06782 0.29853,-10.06986 -8.73163,-1.67798 c -4.20239,-0.80705 -7.89101,-1.33903 -8.91283,-1.30327 z m 128.34527,0.73706 c -1.21642,-0.0157 -3.11346,0.25546 -6.21162,0.80914 -4.08817,0.73059 -7.82168,1.61491 -8.29716,1.96415 -0.47555,0.34925 -0.71116,5.02196 -0.52501,10.38489 l 0.33765,9.75075 8.88597,0 8.88401,0 -0.0165,-10.27782 c -0.008,-5.65282 -0.42399,-10.92291 -0.92443,-11.71287 -0.37929,-0.59865 -0.91661,-0.9025 -2.13303,-0.91824 z m 33.6438,10.19136 -11.85905,0.29854 -11.85906,0.29646 -0.29231,14.49437 -0.29447,14.49437 12.15346,0 12.15143,0 0,-14.79083 z m -193.96104,0.068 0,14.7579 0,14.75791 12.12254,0 12.12254,0 0,-14.75791 0,-14.7579 -12.12254,0 z m 200.28586,0 0,14.7579 0,14.75791 33.20528,0 c 18.26292,0 33.20528,-0.28591 33.20528,-0.63619 0,-0.35026 -1.98142,-6.99132 -4.40391,-14.7579 l -4.40391,-14.12172 -28.80137,0 z m -263.97462,0.52707 -1.76651,5.79774 c -0.9714,3.18877 -2.9673,9.71123 -4.43686,14.49438 l -2.67238,8.69662 33.67675,0 33.67676,0 -0.29238,-14.49437 -0.2944,-14.49437 -28.94549,0 z m 94.25867,16.33912 0,12.64962 0,12.64963 9.48723,0 9.48723,0 0,-12.64963 0,-12.64962 -9.48723,0 z m 114.90084,0 0,12.64962 0,12.64963 8.9602,0 8.96013,0 0,-12.64963 0,-12.64962 -8.96013,0 z m -188.69035,16.83735 0,15.29939 0,15.29937 33.7612,0 33.76113,0 -0.29231,-15.02144 -0.29237,-15.02144 -33.46883,-0.27793 z m 280.40019,0 -33.46883,0.27795 -33.46883,0.27793 -0.29643,13.6482 c -0.16311,7.50641 -0.0597,14.26605 0.23059,15.02144 0.41758,1.08827 7.42747,1.37324 33.76527,1.37324 l 33.23823,0 0,-15.29937 z m -311.20076,0.55588 -4.618,14.75791 c -2.53994,8.11684 -4.62301,14.8765 -4.62834,15.02144 -0.0102,0.14495 7.82961,0.26353 17.41182,0.26353 l 17.42205,0 -0.29237,-15.02144 -0.29238,-15.02144 -12.50132,0 z m 316.99854,0 -0.2965,13.6482 c -0.16311,7.50641 -0.0597,14.26605 0.2306,15.02144 0.40285,1.04983 4.52898,1.37324 17.51062,1.37324 l 16.98352,0 -0.665,-3.02034 c -0.36489,-1.66123 -2.41722,-8.42089 -4.56245,-15.02144 l -3.9015,-12.0011 -12.64965,0 z m -212.40846,12.04228 0,14.27201 0,14.26996 9.51815,0 9.51808,0 -0.2944,-13.9673 -0.29441,-13.96731 -9.22374,-0.30265 z m 114.90084,0.0803 0,14.23084 0,14.23084 8.9602,0 8.96013,0 0,-14.23084 0,-14.23084 -8.96013,0 z m -150.68175,22.11215 -39.78539,0.27588 -39.78336,0.2759 -2.95854,9.48722 c -1.62765,5.21798 -3.63726,11.74646 -4.46569,14.50672 l -1.50708,5.0195 43.95661,-0.27588 43.95667,-0.27589 0.2944,-14.50673 z m 5.211,0.0246 0,14.75791 0,14.7579 12.12254,0 12.12254,0 0,-14.7579 0,-14.75791 -12.12254,0 z m 169.7159,0 0,14.05585 c 0,7.73035 0.31758,14.37141 0.70411,14.75791 0.38653,0.38652 5.84166,0.70205 12.1226,0.70205 l 11.41843,0 0,-14.7579 0,-14.75791 -12.1226,0 z m 30.56996,0 0,14.75791 0,14.7579 43.74665,0 c 24.06064,0 43.74664,-0.32133 43.74664,-0.71441 0,-0.39309 -1.69006,-6.20401 -3.75535,-12.91317 -2.06535,-6.70916 -3.99369,-13.02888 -4.28657,-14.04349 -0.49485,-1.71454 -3.31682,-1.84474 -39.9913,-1.84474 z m -169.71595,10.54138 0,13.1767 0,13.17668 9.48723,0 9.48723,0 0,-13.17668 0,-13.1767 -9.48723,0 z m 114.90084,0 0,13.1767 0,13.17668 8.9602,0 8.96013,0 0,-13.17668 0,-13.1767 -8.96013,0 z m -193.96104,23.15187 -23.33513,0.28412 -23.33513,0.28207 -3.51034,11.06843 c -1.9305,6.08761 -3.799477,12.37294 -4.154771,13.96732 l -0.646463,2.89886 27.491934,0 27.4899,0 0,-14.24936 z m 5.27069,0.0391 0,14.23082 0,14.23088 33.73237,0 33.73231,0 0,-14.23088 0,-14.23082 -33.73231,0 z m 212.9355,0 0,13.52878 c 0,7.44044 0.31758,13.84431 0.70411,14.23084 0.38653,0.38653 15.56609,0.70208 33.73238,0.70208 l 33.0282,0 0,-14.23088 0,-14.23082 -33.73232,0 z m 72.73537,0 0,14.23082 0,14.23088 28.04786,0 c 22.85718,0 27.94748,-0.2572 27.51048,-1.39591 -0.29492,-0.76849 -2.32167,-7.17242 -4.5048,-14.23085 l -3.96944,-12.83494 -23.54103,0 z m -211.88136,7.37896 0,10.54137 0,10.54137 9.48723,0 9.48723,0 0,-10.54137 0,-10.54137 -9.48723,0 z m 114.90084,0 0,10.54137 0,10.54137 8.9602,0 8.96013,0 0,-10.54137 0,-10.54137 -8.96013,0 z"
         id="path6525"
         inkscape:connector-curvature="0"
         sodipodi:nodetypes="sccscssssscscccssscccccscccssssscccssccscccssssscccccccccccccccccccsccccccccsssssssssssssssssssssccccccscccccccccccccccccccccccccccccccccccccccccccccccccccccccccccccccsssscccscccccccccccccccccccccccccccccscccccccccccccccccccccccccccccccccccccccccccccccssccccccccccccccccccccccccccccscccccccsssssscccccccccccssscccccccccccccccccssccccccccccccccccsscccccccccccccscccccsccccccccccccccccccccccccccscccccccscsccccccccccccccccccccccccccccsccccccccccccccccccccccccccccccccccccccccscccccccccccccccccccccccccccssccccccccccccccccccscccssssscccsscccccsscsssssscccccsccccsscccscscssssssscccsccccccscsccccccccccccsscssscccccsccccccccccssscccccsscccccccccccccccccccccssccccccccccccccccccccccccccccccccccccccccccccscsccccscsccccccscsccccccccccccccccccccccccccccccccccccccccccccscsccccccccssssscccccccccccccccccccccccccccccccccccccccscsccccccccsscccccccccccccccccccccc" /><path
         style="fill:#ffffff;fill-rule:evenodd;stroke:none;stroke-width:5.9800148px;stroke-linecap:butt;stroke-linejoin:miter;stroke-opacity:1;fill-opacity:1"
         d="m 293.27645,-24.489941 -0.59017,-91.177399 10.91769,0 0.29505,94.128124 z"
         id="path4405"
         inkscape:connector-curvature="0" /></g></g></svg>
